<svg xmlns="http://www.w3.org/2000/svg" viewBox="0 0 1200 630"><defs><style>.a{opacity:0.3;}.b,.g,.h,.i,.j,.l{fill:none;}.b,.g,.h,.i,.j,.l,.m,.n{stroke:#324681;}.b,.g,.h,.i,.j,.m,.n{stroke-linecap:round;stroke-linejoin:round;}.b,.i,.j{stroke-width:2px;}.b{stroke-dasharray:8 16;}.c{fill:#fff;}.d,.n{fill:#e1e8f6;}.e,.m{fill:#ffea83;}.f{fill:#f15a24;}.g{stroke-width:3px;}.h,.m,.n{stroke-width:3.14px;}.j{stroke-dasharray:2 8;}.k{fill:#324681;}.l{stroke-miterlimit:10;}</style></defs><title>cover</title><g class="a"><path class="b" d="M78.86,230.22c98.92,6.33,79.61,114.17,201.79,96.88,55.82-7.9,99.29-128,171.9-147.67,76-20.64,196.23,79.19,339.64,96.32,95.34,11.38,227-73.4,348.36-36.35"/><path class="b" d="M77.79,247.18c99.44,4.43,84.24,113,203.23,97.35C338.39,337,383.55,217.29,454.79,198.25,541.44,175.09,656.13,278.46,792.3,296c93.91,12.12,223-72.94,346.73-39"/><path class="b" d="M77,264.18c99.91,2.93,88.26,112,204.47,97.79,59.09-7.23,106-126.54,175.57-144.89,96.82-25.54,206.38,81,335.38,99.08,92.48,13,218.88-72.15,345.1-41.45"/><path class="b" d="M76.28,281.18c100.36,1.71,91.75,111.11,205.58,98.2,61-6.92,109.74-125.84,177.33-143.46C565.7,208.15,670.5,317.54,792.41,336.13c91.09,13.89,214.54-71,343.48-43.69"/><path class="b" d="M75.72,298.2c100.8.69,94.78,110.31,206.59,98.55,63.06-6.63,113.76-125.16,179.06-142,115.66-29.82,216.08,82,331,101.13,89.74,14.93,210-69.49,341.84-45.69"/><path class="b" d="M75.25,315.22c101.24-.16,97.41,109.59,207.55,98.86,65.31-6.37,118.07-124.49,180.75-140.48,124.22-31.69,220.66,82.18,328.83,101.84,88.48,16.08,205.25-67.52,340.2-47.43"/><path class="b" d="M74.86,332.24c101.67-.9,99.69,108.94,208.46,99.11C351,425.23,406,307.52,465.73,292.45c132.15-33.34,225,82.14,326.63,102.31,87.33,17.33,200.25-65.08,338.53-48.89"/><path class="b" d="M74.51,349.27c102.1-1.54,101.67,108.35,209.35,99.31,70.31-5.9,127.59-123.21,184-137.29C607.29,276.52,697,393.2,792.35,413.82c86.36,18.68,195-62.12,336.8-50"/><path class="b" d="M74.21,366.3c102.54-2.1,103.39,107.81,210.24,99.46,73-5.71,132.79-122.62,185.65-135.63C616,294.2,703,411.65,792.39,432.63c85.63,20.11,189.37-58.62,335-50.9"/><path class="b" d="M74,383.33c103-2.6,104.89,107.32,211.12,99.57C361,477.36,423.38,360.84,472.32,349c151.55-36.79,236.45,81,320.23,102.24,85.23,21.6,183.4-54.55,333.07-51.45"/></g><path class="c" d="M573,509.61l-24.18,21.11,29.88-21.14,38.16-.22,25-.13,25.2-.14,25.13-.13,25.1-.11,25.25-.07h25.25l25.25.42,14.42.8h0L813,531.59l9.72-23.31,128.56-.81c11.05,10.16,18.45,16.32,18.45,16.32L956.82,507.4l120.31-.71-53.9-51.85-46.88-45.09a9,9,0,0,0-11.33-1L926.1,435.16,909,446.78h0l-9.55,6.46c-1.12-7-40.36-31.15-49-94.83-2-14.48-10.93-26.88-18.27-37.69l-31.62-36.61,9.67-41.47a37.71,37.71,0,0,1,28.44-35.4l86.95-22a24.2,24.2,0,0,0,17.73-28.49l3,6.1c17.74-5.32,42.22-16.35,51-18,1.62-.32,3-.52,4.07-.63,18.57-1.76,21.07-.19,27.76-.88,7.57-.76,31.33-10,31.33-10a4,4,0,0,0-2.16-7.76l-1.5.6.73-1.17,2,.07,6-2.8a4,4,0,0,0-1.77-7.3l0,0-1.14-2.07,3.18-.63a4,4,0,0,0-3.33-4.38v0a4,4,0,0,0,1.37-4.86,4,4,0,0,0-5.37-2.1s-21.16,10.2-21.34,10.2a3,3,0,0,1-3-3.49l.63-2.79a6.07,6.07,0,0,1,1.37-3l4.16-4.9a4.32,4.32,0,0,0,.87-.9,4.4,4.4,0,0,0-5.71-6.41l-32,28.89-7.33,1.73-42.49,10-21,4.93a13,13,0,0,0-10.64-3L792.8,153.75s-.34.43-1,1.16l-2.68-.54c-5.33.86-15.08,2.28-20.89,2.27-6.94,0-10.88-15.72-10.88-15.72l1.4.49-.33-1.47c19.19,3.4,18.93-17.26,19-20.45.25-13.43-1.7-22.89-6.51-35.26a22,22,0,0,0-1.73-5.13l.86-.39s1.22-15.49-9.07-22c-4.36-2.75-9.49-5-21.52-6.39-27.75-3.19-60.11,20.45-51.76,45.74,1.32,4-.22,8.1-.87,12.13h0a11.38,11.38,0,0,0,1.12,8l1.3-.56h.16L691,119.9h0l-.33.05-.74-.49a10.67,10.67,0,0,0,4.76,14.83c1.87.87,3.54,1.83,4.5,2.16l0,1,4.84,3.54h0l.19-1.27,7.08,1.85,11,20.57h-.2v0l-155.31,29.7a17.26,17.26,0,0,0-7.92,3.79h0l0-1.17-15.69,2.88-37.82,6.94-6.54,1.21-39.3-3.72a3.88,3.88,0,0,0-2.35,7.2,3.76,3.76,0,0,0,1,.42l6.44,1.65-.53.54-18.25,3.08a3.55,3.55,0,0,0,.72,7.06h.15l3.37-.27.44,1.38-4-1.06a3.56,3.56,0,0,0-2.89,4.19,3.51,3.51,0,0,0,1.67,2.37,3.56,3.56,0,0,0,1.66.49h.44l4.87-.38.68,2.12-6-1.61a3.55,3.55,0,0,0,.87,7l4.89-.38h.11l-.11.06a3.57,3.57,0,0,0,.87,7.07s22.47-.48,28.89-2.42c5.67-1.71,7.17-3.78,22.89-8.63.91-.28,2.1-.48,3.52-.77,7.75-1.62,34.77-5.22,51-6.89l0-.25c2.89,2.09,6.41,4.25,10.2,4.25h86.28c11.95,0,22.92,5.64,28.56,16.16l15.6,28.23v-.06l11.83,22h0l2,3.62-4.1,8.79.66.13L709.52,308l-5.27,11.82c-5.61,12.33-10.48,24.88-15.11,37.6l-18.46,66.91-1.42,1.24-.22.19-1.94,9.48v.06l-2.27,11a302.79,302.79,0,0,1-35,27.33v0l-7.47,9.08-6.72.71-6.06-5.76L539.45,411.2a10.07,10.07,0,0,0-12.62-1.08L373.56,510.76Zm283.4-123.34c.73,2.43,1.61,4.91,2.62,7.43h0l0,0s0,0,0,0l-2.17-2.9h0Q856.68,388.47,856.44,386.26Z"/><path class="d" d="M373.55,510.76h0l109.49-71.9,43.76-28.73a11,11,0,0,1,2-1.07,10.38,10.38,0,0,0-2,1.05Z"/><path class="c" d="M465.65,211.28l-1.59.27-18.25,3.08a3.55,3.55,0,0,0-1.21,6.56,3.47,3.47,0,0,0,1.93.5h.16l3.37-.26.44,1.38-4-1.07a3.55,3.55,0,0,0-1.22,6.56,3.48,3.48,0,0,0,1.67.49c.15,0,.28,0,.43,0l4.87-.39.68,2.12-6-1.61a3.55,3.55,0,0,0-1.22,6.55,3.61,3.61,0,0,0,2.09.5l4.89-.39h.11l-.1.07a3.94,3.94,0,0,0-.92.28,3.25,3.25,0,0,0-.54.32,4,4,0,0,0-.48.4,3.55,3.55,0,0,0,.12,5.12,4.36,4.36,0,0,0,.59.43,3.89,3.89,0,0,0,.86.37,3.69,3.69,0,0,0,1.22.11s22.47-.5,28.89-2.44c5.67-1.71,7.17-3.83,22.88-8.68.91-.27,2.1-.57,3.53-.86,7.74-1.62,34.75-5.41,51-7.07l0-.52a17.57,17.57,0,0,0,10.19,3.6h86.28a32.16,32.16,0,0,1,28.56,16.81l15.6,28.78h0l-15.6-29.05a32.42,32.42,0,0,0-28.57-17.09H570.06a17.32,17.32,0,0,1-11.19-30.55l0-1.16-15.7,2.88-37.82,6.95-6.53,1.2-39.31-3.72a3.88,3.88,0,0,0-1.33,7.62Z"/><path class="c" d="M451.51,242.19a4.36,4.36,0,0,1-.59-.43,3.64,3.64,0,0,0,.59.44,3.39,3.39,0,0,0,.86.36A3.89,3.89,0,0,1,451.51,242.19Z"/><path class="c" d="M453.6,242.68a3.69,3.69,0,0,1-1.22-.11,3.42,3.42,0,0,0,1.22.12s22.47-.5,28.89-2.44c5.67-1.7,7.17-3.81,22.88-8.65.91-.28,2.1-.54,3.53-.83,7.75-1.62,34.76-5.34,51-7v-.15c-16.24,1.67-43.25,5.45-51,7.07-1.43.29-2.62.59-3.53.86-15.71,4.85-17.22,7-22.88,8.68C476.06,242.18,453.6,242.68,453.6,242.68Z"/><polygon class="c" points="458.14 209.37 464.59 211.02 464.06 211.56 465.65 211.28 458.14 209.37"/><path class="d" d="M530.28,408.63a9.24,9.24,0,0,0-1.42.43A12.72,12.72,0,0,1,530.28,408.63Z"/><path class="d" d="M535.3,408.79a10,10,0,0,0-4.28-.29A10.14,10.14,0,0,1,535.3,408.79Z"/><path class="d" d="M558.87,204.53a17.32,17.32,0,0,0,11.19,30.55h86.28a32.42,32.42,0,0,1,28.57,17.09,30.86,30.86,0,0,1,23.35-16.46l29-3.89a171.39,171.39,0,0,1,3.59-34.58L743.45,185c-29,2.74-22.64-10.37-20.73-13.51-.07-.16-.12-.34-.2-.54l-.22,0-.2,0h0l-90.25,17.26-65.07,12.46c-.26,0-.51.1-.77.17s-.44.1-.66.17a15.54,15.54,0,0,0-1.6.53l-.62.26-.09,0c-.22.09-.42.19-.62.29s-.45.23-.67.35l-.62.35-.07,0c-.19.11-.4.24-.59.37s-.57.39-.84.59-.44.34-.65.52Z"/><path class="c" d="M560.47,194.39c.19-.14.4-.26.59-.37A6.45,6.45,0,0,0,560.47,194.39Z"/><path class="c" d="M561.13,194l.62-.35A6.75,6.75,0,0,0,561.13,194Z"/><path class="c" d="M562.42,193.27c.2-.1.41-.2.62-.29A6.26,6.26,0,0,0,562.42,193.27Z"/><path class="c" d="M563.14,192.94l.62-.26A6,6,0,0,0,563.14,192.94Z"/><path class="c" d="M565.36,192.15c.22-.07.44-.12.66-.17A6.21,6.21,0,0,0,565.36,192.15Z"/><path class="c" d="M566,192c.26-.07.51-.12.77-.17l65.07-12.46L566.79,191.8A5.86,5.86,0,0,0,566,192Z"/><path class="c" d="M932.77,135.08a6.81,6.81,0,0,0-.71-.57,3.5,3.5,0,0,0-.42-.29c-.24-.17-.49-.33-.74-.48l-.5-.28-.71-.35c-.28-.12-.57-.25-.85-.35l-.83-.28-.07,0-.76-.19-.11,0q-.46-.1-.92-.17l-.69-.08-.33,0c-.28,0-.56,0-.84,0a12.78,12.78,0,0,0-2.16.18L792.8,153.75l-.07.08-.12.14c-.16.19-.44.52-.85.94h0c-4,4.15-19.39,18.27-47.83,21.11l-.46,0-2.55,12.25a171.39,171.39,0,0,0-3.59,34.58l-29,3.89a30.86,30.86,0,0,0-23.35,16.46l15.6,29.05,11.83,22h0l1.94,3.6v0h0l-10,21.86q-3.62,8-7,16.06a1.89,1.89,0,0,0-.09.23c-2.86,7-5.53,14.15-8.14,21.31l-18.46,66.91-1.41,1.22c-.14.65-.28,1.3-.42,1.95l-4,18.82h0c-1.31,1.2-2.65,2.38-4,3.56l-.16.14c-1.39,1.21-2.8,2.43-4.22,3.6a301.18,301.18,0,0,1-26.69,20.07l-7.45,9.06-6.7.71h0l-36.85,26.08,38.15-.23,25-.14h0l25.2-.15,25.12-.14h0l25.08-.12h0l25.22-.1h0l25.17-.06h.08l25.09,0h.16l14.42.27h0L813,531.07l9.62-22.67.1-.25,23.13-53.67a136.84,136.84,0,0,0,10.95-63.79,2.09,2.09,0,0,0,0-.37q0-.7-.1-1.39c0-.27,0-.54-.07-.8l-.17-1.79a0,0,0,0,1,0,0v0c-.61-2-1.11-4-1.52-6a162.73,162.73,0,0,1-4.48-21.89,155,155,0,0,0-18.27-37.69l-31.62-36.61,9.68-41.46a37.7,37.7,0,0,1,28.44-35.41l86.95-22A24,24,0,0,0,937,178.71a24.56,24.56,0,0,0,5.6-9.15c.18-.56.35-1.12.5-1.69l.1-.37a24.32,24.32,0,0,0,.56-8.22q-.07-.63-.17-1.26t-.24-1.26l0,0a25.33,25.33,0,0,0-1.67-5l-5.55-12.21a13,13,0,0,0-3.37-4.49Z"/><path class="c" d="M629.78,473.7l0,0a301.18,301.18,0,0,0,26.69-20.07,302.42,302.42,0,0,1-26.66,20Z"/><path class="c" d="M660.67,450q-2.09,1.82-4.22,3.6C657.87,452.47,659.28,451.26,660.67,450Z"/><path class="c" d="M664.82,446.35c-1.31,1.19-2.65,2.38-4,3.56C662.17,448.73,663.51,447.55,664.82,446.35Z"/><path class="c" d="M667.09,435.31l-2.27,11h0l4-18.82c.14-.65.28-1.3.42-1.95h0l-.22.19-1.94,9.48Z"/><path class="e" d="M694.63,67.7c-7,8.06-10.39,18.08-7,28.38a11,11,0,0,1,.49,4.06,1.52,1.52,0,0,1,0,.23,3.82,3.82,0,0,1,0,.5c0,.22,0,.44-.07.66-.12,1-.32,2-.53,3-.25,1.21-.52,2.44-.71,3.64h0a11.32,11.32,0,0,0,1.11,8l1.29-.56h.15l1.59,4.24h0l-.29,0-.71-.51a10.41,10.41,0,0,0-1.33,4.5,10.41,10.41,0,0,0,6.1,10.16,40.79,40.79,0,0,0,5.06,2.11c3.16.7,6.37,1.59,8.9-.44a22.26,22.26,0,0,0,2.81-2.22l-.15-.5c1.63-5.67,14.59-10.22,11.77-22.32C722,106,710.14,80.87,734.92,74.37c10.67-2.79,22.32-3.41,30.58.67a8.7,8.7,0,0,1,3.63,4l.86-.39a33.82,33.82,0,0,0-.65-8.42c-.1-.46-.2-.94-.33-1.42-.19-.73-.41-1.46-.66-2.21l-.27-.75s0,0,0,0c-.19-.49-.4-1-.62-1.46h0a23.18,23.18,0,0,0-1.16-2.15l-.45-.71a18,18,0,0,0-2.15-2.61c-.2-.2-.42-.41-.63-.6a16.92,16.92,0,0,0-1.38-1.11l-.77-.51c-4.35-2.74-9.49-5-21.52-6.38-15.72-1.81-32.93,5-43.37,15.85C695.55,66.69,695.08,67.18,694.63,67.7Z"/><path class="c" d="M688.08,100.86a6.14,6.14,0,0,1-.07.66C688,101.3,688.07,101.08,688.08,100.86Z"/><path class="c" d="M688.12,100.13a1.52,1.52,0,0,1,0,.23A1.52,1.52,0,0,0,688.12,100.13Z"/><path class="c" d="M688.6,125.26a10.57,10.57,0,0,0,6.09,9c1.87.87,3.54,1.75,4.5,2.07l0,.39,4.84,2.75h0l.19-.49,7.08,2.4,11,20.69.22,0c-1.21-3.41-4.78-13.37-7.05-18.75-2.2-5.2-4-9.73-4-9.73a22.26,22.26,0,0,1-2.81,2.22c-2.53,2-5.74,1.14-8.9.44a40.79,40.79,0,0,1-5.06-2.11A10.6,10.6,0,0,1,688.6,125.26Z"/><path class="c" d="M704.24,319.85c-2.41,5.32-4.69,10.67-6.88,16.06q3.35-8.08,7-16.06l10-21.86h0L709.51,308Z"/><path class="c" d="M722.72,162.54a7,7,0,0,1,.43-.67l-.63.12c-1.21-3.41-4.78-13.37-7.05-18.75-2.2-5.2-4-9.73-4-9.73l-.15-.5c1.63-5.67,14.59-10.22,11.77-22.32C722,106,710.14,80.87,734.92,74.37c10.67-2.79,22.32-3.41,30.58.67a8.7,8.7,0,0,1,3.63,4,.46.46,0,0,1,.06.1c.18.39.36.78.52,1.16,0,0,0,.08,0,.12l.17.45c.11.29.22.59.29.86,0,.11.08.23.11.34.36,1.19.52,2.05.53,2.1,4.81,12.37,6.77,21.82,6.51,35.26,0,.32,0,.83,0,1.46-.19,4.9-1.54,17.9-13.17,19.26-.33,0-.68.07-1,.08a22.25,22.25,0,0,1-4.74-.36V140l.31,1.42-1.39-.49s3.82,15.21,10.56,15.71H769l.84,0c.65,0,1.33-.06,2-.1l1.19-.09,2.22-.19.7-.07c1.37-.15,2.78-.32,4.15-.49l.85-.1,4.06-.57,1.05-.16.67-.1,1.61-.25c.24,0,.48-.07.69-.11h0l2.65.54c-4,4.15-19.39,18.27-47.83,21.11l-.46,0C714.49,178.8,720.81,165.68,722.72,162.54ZM769,118.47s-2.23,2.82-11.32.12-2.73,10.36,6.45,10.9C768.09,129.73,769,121.33,769,118.47Z"/><polygon class="c" points="712.32 294.34 714.27 297.94 712.34 294.33 712.32 294.34"/><path class="c" d="M723.15,161.87l-.63.12c.08.2.14.39.2.54A7,7,0,0,1,723.15,161.87Z"/><path class="c" d="M757.65,118.6c-9.08-2.7-2.73,10.36,6.45,10.9,4,.23,4.89-8.17,4.87-11C769,118.47,766.74,121.3,757.65,118.6Z"/><path class="c" d="M761.69,57.23a16.92,16.92,0,0,1,1.38,1.11A14.82,14.82,0,0,0,761.69,57.23Z"/><path class="c" d="M763.07,58.34c.22.19.43.4.63.6A8.06,8.06,0,0,0,763.07,58.34Z"/><path class="c" d="M763.7,58.94a18,18,0,0,1,2.15,2.61A16.54,16.54,0,0,0,763.7,58.94Z"/><path class="c" d="M766.31,62.27a23.18,23.18,0,0,1,1.16,2.15A18.81,18.81,0,0,0,766.31,62.27Z"/><path class="c" d="M767.47,64.43c.23.49.43,1,.62,1.46C767.9,65.41,767.69,64.91,767.47,64.43Z"/><path class="c" d="M768.09,65.9l.27.75Q768.24,66.28,768.09,65.9Z"/><path class="c" d="M769,68.86c.12.48.23,1,.33,1.42C769.26,69.81,769.14,69.35,769,68.86Z"/><path class="c" d="M777.34,120.95c-.19,4.9-1.54,17.9-13.17,19.26C776,139,777.19,125.89,777.34,120.95Z"/><path class="c" d="M786.78,154.72l-.67.1Z"/><path class="c" d="M789.08,154.36l-.69.11C788.63,154.44,788.87,154.41,789.08,154.36Z"/><path class="f" d="M845.88,454.48l-23.13,53.67,128.55-.75C932.4,490,902.79,461,881.18,431.55a142.41,142.41,0,0,1-17.07-26.93c-1.93-3.71-3.63-7.36-5.06-10.94,0,0,0,0,0,0l0,0s0,0,0,0l-2.16-2.9A136.84,136.84,0,0,1,845.88,454.48Z"/><path class="c" d="M832.18,320.72a155,155,0,0,1,18.27,37.69C848.49,343.93,839.52,331.53,832.18,320.72Z"/><path class="c" d="M856.3,384.88c-.48-1.5-.93-3-1.37-4.59.41,1.95.91,3.93,1.52,6C856.4,385.79,856.35,385.34,856.3,384.88Z"/><path class="c" d="M859.05,393.68c1.43,3.58,3.13,7.23,5.06,10.94a141.48,141.48,0,0,1-7.81-19.73c.06.45.1.91.15,1.36v0a0,0,0,0,1,0,0h0c.17.59.35,1.18.56,1.78s.41,1.22.62,1.85.45,1.24.68,1.86.44,1.14.67,1.72a0,0,0,0,0,0,0A.47.47,0,0,1,859.05,393.68Z"/><polygon class="e" points="908.97 446.77 926.1 435.17 926.14 435.13 926.1 435.15 908.97 446.77"/><path class="c" d="M924.29,131.93c.28,0,.56,0,.84,0C924.85,131.94,924.58,131.93,924.29,131.93Z"/><path class="c" d="M925.46,132l.69.08Z"/><path class="c" d="M965,408.77l-38.88,26.36L965,408.78a9,9,0,0,1,7.38-1.25A9,9,0,0,0,965,408.77Z"/><path class="c" d="M926.15,132.06q.46.07.92.17Q926.61,132.13,926.15,132.06Z"/><path class="c" d="M927.18,132.26l.76.19Z"/><path class="c" d="M928,132.47l.83.28Z"/><path class="c" d="M928.84,132.76c.28.1.57.23.85.35C929.41,133,929.12,132.86,928.84,132.76Z"/><path class="c" d="M929.69,133.11l.71.35Z"/><path class="c" d="M931.64,134.22a3.5,3.5,0,0,1,.42.29C931.92,134.41,931.79,134.31,931.64,134.22Z"/><path class="c" d="M1063.85,114.93l0,0-1.14-2.07,3.19-.62a4,4,0,0,0-.75-2.8,3.88,3.88,0,0,0-.53-.6,3,3,0,0,0-.29-.24,4.23,4.23,0,0,0-1.38-.67l-.37-.08h0a4,4,0,0,0,1.3-1.54,4,4,0,0,0-5.3-5.42s-21.15,10.2-21.34,10.2a3,3,0,0,1-3-3.49l.63-2.78a6,6,0,0,1,.66-2,5.72,5.72,0,0,1,.7-1l4.16-4.91a3.84,3.84,0,0,0,.87-.9,4.4,4.4,0,0,0-5.71-6.42l-32,28.88-7.32,1.73-42.49,10-20.95,4.93a13,13,0,0,1,3.37,4.49l5.55,12.21a25.33,25.33,0,0,1,1.67,5l3,6.06c17.74-5.33,42.22-16.36,51.05-18,1.62-.32,3-.52,4.06-.63,18.58-1.76,21.07-.19,27.76-.87,7.57-.76,31.34-10,31.34-10a4,4,0,0,0,2-1.42,4,4,0,0,0,.71-3.21,4,4,0,0,0-4.85-3.13l-1.51.59.74-1.17,2,.07,6-2.8a4,4,0,0,0,1-5.7,3.63,3.63,0,0,0-.9-.87l-.31-.2a3,3,0,0,0-.77-.35A4.37,4.37,0,0,0,1063.85,114.93Z"/><path class="c" d="M968.84,523l.39.34Z"/><path class="e" d="M969.73,523.73h0Z"/><polygon class="e" points="1023.23 454.83 1023.23 454.84 1077.07 506.62 1023.23 454.83"/><path class="c" d="M1036.26,101.77a5.72,5.72,0,0,0-.7,1,6.43,6.43,0,0,1,.71-1l4.15-4.91Z"/><path class="c" d="M686.8,108.12a11.92,11.92,0,0,0,1.11,8.21l1.29-.33h.15l1.65,3.9h0l-.32,0-.73-.51a10.64,10.64,0,0,0-1.34,5.84,10.6,10.6,0,0,0,6.1,8.82,40.82,40.82,0,0,0,5.05,2.11c3,.67,6.08,1.51,8.55-.18-1-.34-2.62-1.07-4.47-1.93a10.41,10.41,0,0,1-6.1-10.16,10.41,10.41,0,0,1,1.33-4.5l1.18.51.76,0h0l-2.51-3.9h-.15l-1.29.38a11.83,11.83,0,0,1-1.11-8.18l0-.2h0c.19-1,.46-2.32.71-3.53.22-1,.41-2,.53-3,0-.22.06-.42.07-.63a3.62,3.62,0,0,0,0-.49,1.43,1.43,0,0,0,0-.22,11,11,0,0,0-.49-4.05c-3.4-10.3,0-20.32,7-28.38.45-.51.92-1,1.39-1.51a55.31,55.31,0,0,1,33.56-15.91c-15.54-1.55-32.41,5.23-42.7,15.91-.48.5-.94,1-1.39,1.51-7,8.06-10.39,18.08-7,28.38a11,11,0,0,1,.49,4.06,1.52,1.52,0,0,1,0,.23,3.81,3.81,0,0,1,0,.5c0,.22,0,.44-.07.66-.12,1-.32,1.92-.53,2.94-.25,1.21-.52,2.53-.71,3.53h0Z"/><path class="g" d="M723.14,161.88s-4.91-12.08-7.68-18.63c-2.2-5.19-4-9.72-4-9.72a21.74,21.74,0,0,1-2.81,2.23c-2.53,2-5.73,1.14-8.89.43a39.55,39.55,0,0,1-5.06-2.11,10.55,10.55,0,0,1-4.77-14.73h0"/><path class="g" d="M813,530.71l32.86-76.23a135.1,135.1,0,0,0,4.56-96.07,155,155,0,0,0-18.27-37.69l-31.62-36.61,9.67-41.47a37.71,37.71,0,0,1,28.44-35.4l86.95-22a24.19,24.19,0,0,0,16.08-33.47l-5.56-12.21a13,13,0,0,0-14-7.46L792.79,153.75S777.37,173,743.91,176c-21.8,2-22.33-5.21-22.33-5.21"/><path class="g" d="M724.56,377.3l-24.15,30.84A305.66,305.66,0,0,1,625,476.83l-76.16,53.88"/><path class="h" d="M969.75,523.75s-106.3-89-115.28-146"/><path class="g" d="M723.14,161.88,566.78,191.81A17.32,17.32,0,0,0,553,211.63h0a17.32,17.32,0,0,0,17.09,14.51h86.28a32.42,32.42,0,0,1,28.57,17.09L714.3,298l-9.95,21.87a523.91,523.91,0,0,0-35.5,107.68l-4,18.82"/><path class="g" d="M741,132.91c36.32,21.21,36.32-9.49,36.4-13.43.25-13.43-1.7-22.89-6.51-35.26,0-.12-1.26-7.15-5.36-9.17-8.26-4.08-19.92-3.47-30.58-.67C710.14,80.86,722,106,723.08,110.71c2.83,12.09-10.13,16.64-11.76,22.31"/><path class="g" d="M770,78.7s1.22-15.49-9.07-22c-4.36-2.75-9.5-5-21.53-6.39-27.75-3.19-60.11,20.45-51.76,45.74,2.21,6.68-3.62,13.68.2,20.13"/><line class="h" x1="768.12" y1="103.94" x2="769.28" y2="108.21"/><line class="h" x1="756.43" y1="96.53" x2="748.8" y2="94.83"/><line class="h" x1="772.4" y1="89.75" x2="768.86" y2="93.74"/><path class="g" d="M769,118.47s-2.23,2.83-11.32.13-2.73,10.36,6.45,10.9C768.09,129.73,769,121.33,769,118.47Z"/><path class="g" d="M1062.59,107.81a4,4,0,0,0,1.37-4.86,4,4,0,0,0-5.37-2.1s-21.16,10.2-21.34,10.2a3,3,0,0,1-3-3.49l.63-2.79a6.07,6.07,0,0,1,1.37-3l4.16-4.9a4.33,4.33,0,0,0,.87-.9,4.4,4.4,0,0,0-5.71-6.41l-32,28.89-7.33,1.73-42.49,10-21,4.94"/><path class="g" d="M954,160.39c17.74-5.32,34.61-13.88,43.44-15.56,1.62-.32,3-.52,4.06-.63,18.57-1.76,21.07-.19,27.76-.88,7.57-.76,31.33-10,31.33-10a4,4,0,0,0-2.16-7.76L1042.2,132"/><path class="g" d="M558.83,194.44l-15.69,2.88-37.82,6.95-6.54,1.21-39.3-3.72a3.88,3.88,0,0,0-2.35,7.2,3.76,3.76,0,0,0,1,.42l7.49,1.92L487,216.76"/><path class="g" d="M465.64,211.29l-19.84,3.35a3.55,3.55,0,0,0,.72,7.06h.15l19.61-1.54"/><path class="g" d="M446.53,221.74a3.56,3.56,0,0,0-2.89,4.19,3.52,3.52,0,0,0,1.67,2.37,3.56,3.56,0,0,0,1.66.49h.44L467,227.25"/><path class="g" d="M447,228.92a3.55,3.55,0,0,0,.87,7l4.89-.38,14.72-1.16"/><path class="g" d="M452.73,235.63a3.55,3.55,0,0,0,.87,7s22.47-.5,28.89-2.44c5.67-1.71,7.18-3.82,22.89-8.67.91-.28,2.1-.57,3.52-.86,7.75-1.62,34.77-5.41,51-7.08"/><path class="g" d="M728.89,295.48l44.31-7.18a8.88,8.88,0,0,0,7.44-8.43l.84-22a34.61,34.61,0,0,0-39.18-35.63l-34,4.56a30.88,30.88,0,0,0-23.35,16.45h0"/><path class="g" d="M743.49,175.82l-2.59,12.49a171.91,171.91,0,0,0-3.59,34.95h0"/><path class="g" d="M1065.91,112.21a4,4,0,0,0-.74-2.8,4,4,0,0,0-5.24-1.14l-19.86,9"/><path class="g" d="M1059.62,125l6-2.8a4,4,0,0,0-4.28-6.83l-19.85,9"/><path class="g" d="M757.16,140.92s4,15.69,11,15.71c8.28,0,24.67-2.88,24.67-2.88"/><line class="i" x1="800.36" y1="493.63" x2="783.37" y2="528.14"/><line class="i" x1="775.18" y1="493.63" x2="758.19" y2="528.14"/><line class="i" x1="750" y1="493.63" x2="733.01" y2="528.14"/><line class="i" x1="724.82" y1="493.63" x2="707.83" y2="528.14"/><line class="i" x1="700.63" y1="494.15" x2="681.66" y2="527.61"/><line class="i" x1="676.38" y1="494.71" x2="655.55" y2="527.05"/><line class="i" x1="651.67" y1="495.03" x2="629.9" y2="526.74"/><line class="i" x1="628.12" y1="496.28" x2="603.08" y2="525.48"/><path class="c" d="M114.59,211.37l1.14,1.12c6.27,6.17-17,13.64-15.26,6.13S114.59,211.37,114.59,211.37Z"/><path class="c" d="M83.05,231.21c3.4-11.81,17.33-10.06,17.33-10.06s-3.61,16.85-6.61,20-3-9.39-5-10.08S79.65,243,83.05,231.21Z"/><path class="c" d="M122.42,284.42l10.42,5.67a4,4,0,0,0,5.24-1.07c.34-.49.54-.58.63-1.13L140,290h-.61l14.68,20c3.7,5.26,9.89,7.28,16.3,6.78l8-.63a12.21,12.21,0,0,0,9.74-6.27l2,.81c4.48,6.62,18.22,28,19.43,42.57s-11.65,29.11-12.62,55.15c-.31,8.22,6.53,15.61,15.82,21.92l-12.5,79.79,63.46,2.59,31.08-80,43.49,6.21,5.13,5.69-10.26,68.15,58.28-2.59,27.28-81.92a40.71,40.71,0,0,0-16.78-45.9l-26.23-17.06.23,2.1-1.19-.86,1-1.24c1.27-1.65,2.4-3.15,3.36-4.46a7.37,7.37,0,0,0-.86-9.73l-36.13-34.24-8.9-14.55-27-60.45q-2.58-5.78-4.85-11.68l-.25.31-.21-.43.46.12c-2-5.14-5-19.45-6.66-24.71L364.38,197A62.34,62.34,0,0,0,395,178.5h0c.79-.87,1.56-1.75,2.3-2.66l47.17-57.25,6.42-1.29,1-.23a56.49,56.49,0,0,0,8.28-1,114.84,114.84,0,0,0,24.33-11.94,3.43,3.43,0,0,0-2.85-6.23l-6.46,4.08,1.42-1.55,5-2.57,4.21-2.16A3.43,3.43,0,0,0,483,89.45l-2.94,3.12L479.78,91l2.84-1.43a4,4,0,0,0,.36-.17,3.2,3.2,0,0,0,1.12-1.16,3,3,0,0,0,.17-2.63c-.68-1.8-2.71-1.88-4.49-1.16L478.48,87h-.54l1.69-2.25s.09-1.19.13-1.22A3.7,3.7,0,0,0,481.1,82a3.55,3.55,0,0,0,.18-2.86,3.44,3.44,0,0,0-4.49-2L458.4,84.34l-3.84,0,1.9-2a3.64,3.64,0,0,0,.63-.87,3.74,3.74,0,0,0-5.57-4.73L435.6,91.12a23,23,0,0,0-8.68,13.78l0,.17-19.27,18.35-31.92,30.33-9.27,4.66-14,2.57L281,155.42l0,.1,0-.09-.17-.7a6.8,6.8,0,0,0-8-5l-13,2.75-.82-.25-31.79,7.34c-3.56-11.26-10.47-20-13.81-25.41-6.43-10.38-16.43-26-16.43-26h0c0-.1-2.24-17.42-39.09-10.52-33.59,6.29-36.42,30-37.72,53.62s11.15,35.88,31.64,36.15l.06-.1h0a8,8,0,0,0,1.18.78c.27.15.55.27.84.39h0l-4.73-1s-4.1,10.23-1.52,13.74l-.86-.58s-14.78-2.59-16.57,4.21a3.4,3.4,0,0,0-.1.74c-.09-.2-.16-.32-.16-.32s-7.17-1.48-12.61.79-3.82,8.9,6.3,7.42c6.51-1,7.25-4.08,7-6.19,2.86,4.21,17.3,3.19,18.55-5,5.34,1.46,9.38-12.78,9.38-12.78l-1.55-.33a24.18,24.18,0,0,0,6.75-.89h0l1.72,3.4a7.89,7.89,0,0,0,3.94,3.69h0l-10.68,18.9,10.69-18.91.09,0-10.6,19.36-.17-.48-9.12,16.13a5.3,5.3,0,0,0-6.49,3.43l0,.17a5.26,5.26,0,0,0,.38,4.18l1.4,2.55-2.3,4.27-2.32-3.8a5.25,5.25,0,0,0-3.62-2.45l-.29,0a5.3,5.3,0,0,0-6.15,4.79l0,.42a5.25,5.25,0,0,0,1.27,3.89l2.54,2.91-2.54,6.11-1-1.71a5.28,5.28,0,0,0-9.7,1.79l-.12.61a5.26,5.26,0,0,0,1.2,4.43l4.76,5.46-1,1.05-1-3.33S110.07,278.39,122.42,284.42ZM444,118.89h0ZM294.79,432.65l2.58-6.65,0,0ZM165.85,175.28a40.83,40.83,0,0,0-6.32-1.52l1.72-3C163,172.44,164.7,173.95,165.85,175.28Zm-2,12.89h0c3.23-1,5.54-2.36,6.45-1.31a11.61,11.61,0,0,0,1.1,1.09h0Z"/><path class="e" d="M294.86,431.79l.22.1L333.42,437a11.52,11.52,0,0,1,9.67,14.07L339,490.24l58.27-2.59,21.42-59.45a40.7,40.7,0,0,0-16.79-45.9L375.7,365.25h0C363.6,381,338.43,410.33,318.1,411.71c-20.54,1.39-31.08-38-31.08-38l-16.52,60.14a19.14,19.14,0,0,1-25.73,12.66c-9.17-3.77-20.75-8.83-30.23-14.95l-.23.37-8.19,55.75,63.45,2.59Z"/><polygon class="d" points="431.76 111.95 383.02 158.27 395.04 178.5 439.87 123.61 431.76 111.95"/><path class="c" d="M401.52,433.11l-19.9,55.24,15.67-.69,21.42-59.45a40.7,40.7,0,0,0-16.79-45.9L375.7,365.25h0c-2.37,3.09-5.26,6.71-8.51,10.54l17.56,11.42A40.7,40.7,0,0,1,401.52,433.11Z"/><path class="d" d="M83,231.21c-3.39,11.81,3.77-.85,5.76-.17s2,13.19,5,10.07,6.61-20,6.61-20S86.45,219.41,83,231.21Z"/><path class="d" d="M100.48,218.63c-1.75,7.5,21.53,0,15.25-6.13l-1.14-1.12S102.22,211.11,100.48,218.63Z"/><path class="d" d="M116.75,206c-5.43,2.28-3.81,8.9,6.3,7.42,6.49-.95,7.25-4.05,7-6.16a2.69,2.69,0,0,1-.51-1.76l-.15-.29S122.19,203.75,116.75,206Z"/><path class="d" d="M119.58,151.24c-1.23,22.6,10.08,34.78,29,36,.86.07,1.75.11,2.65.12l.07-.1c-5.86-4.57-1.79-14.82,6.19-13.77a44.15,44.15,0,0,1,7.84,1.76C161.61,171,152,165,155.72,155.92a14.55,14.55,0,0,0,.53-10.26c-1.37-3.89-3.68-9,1.36-13.31,8.37-7.19,18.84-4,23.32-6.85,2.86-1.82,2.49-3.39,2.91-7.12.5-4.39,3.76-7.33,8-8.72l4.59-1.52s-2.13-17.44-39.09-10.51C123.71,103.91,120.88,127.61,119.58,151.24Z"/><path class="d" d="M129.62,204.82a3.24,3.24,0,0,0-.11.71,6.69,6.69,0,0,1,.51,1.76c2.9,4.18,17.29,3.15,18.55-5.06a2.86,2.86,0,0,1-1.94-1.81l-.43.19S131.4,198,129.62,204.82Z"/><path class="d" d="M148.56,187.46s-3.59,8.94-1.94,13a2.86,2.86,0,0,0,1.94,1.81c5.34,1.46,9.38-12.78,9.38-12.78v-.34a14.14,14.14,0,0,1-3.66-.35,7.18,7.18,0,0,1-1.81-.69,7.85,7.85,0,0,1-1.17-.77l-.07.1c-.9,0-1.79,0-2.65-.12Z"/><path class="f" d="M154.53,215.18l-9.12,16.13.42.12a5.28,5.28,0,0,1,3.52,3.33l1.48,4.26,13.71,3.85Z"/><path class="f" d="M209.44,370.82l1.47.43s28.26,23.79,77.46,8.42,55-56.86,55-56.86l-8.9-14.54s-9.23,28.16-53.91,44.67-71-.72-71-.72a38.39,38.39,0,0,1,1.34,7A32.15,32.15,0,0,1,209.44,370.82Z"/><path class="f" d="M261.44,152.13l20.15,52.34a38.92,38.92,0,0,0,27.82,24,235.77,235.77,0,0,1-8-24.71c-.37-1.4-.73-2.8-1.07-4.21l-11.25-45.8-.17-.68a6.8,6.8,0,0,0-8-5Z"/><path class="c" d="M120.15,143c3.1-16.38,11.22-30.27,35.76-34.86,18.44-3.46,28.21-.85,33.37,2.63a14.24,14.24,0,0,1,2.52-1.09l4.59-1.52s-2.13-17.44-39.09-10.51C127.63,103.17,122,122.31,120.15,143Z"/><path class="h" d="M426.88,105.11l0-.21a23,23,0,0,1,8.69-13.78l15.93-14.3a3.74,3.74,0,0,1,5.57,4.72,3.89,3.89,0,0,1-.64.87l-2.79,2.89-2.39,2.46L444,99.69"/><path class="h" d="M454.32,85.93l22.47-8.8a3.43,3.43,0,0,1,4.32,4.78,3.38,3.38,0,0,1-1.35,1.38h0l-.12.07L462.75,92"/><path class="h" d="M479.79,83.33a3.42,3.42,0,0,1,4.48,2,3.35,3.35,0,0,1-.18,2.79,3.11,3.11,0,0,1-.87,1.06,1.53,1.53,0,0,1-.24.2l-.36.21L465.74,98.2"/><path class="h" d="M483,89.44l.32-.12a3.42,3.42,0,0,1,4.17,2.08,3.37,3.37,0,0,1-.18,2.8,3.45,3.45,0,0,1-1.47,1.46l-4.2,2.16L469,104.31"/><path class="h" d="M281,155.42l66.9,5.17a43.59,43.59,0,0,0,33.49-12l45.49-43.51s4.86,9.23,7.61,11.66"/><path class="h" d="M293.32,205.43,364.38,197A62.26,62.26,0,0,0,395,178.51q1.19-1.3,2.29-2.67l44.6-55.1a8.85,8.85,0,0,1,4.87-3c2.69-.63,11.08-.89,13.43-1.66a114.5,114.5,0,0,0,24.33-11.94,3.32,3.32,0,0,0,1.48-1.46,3.39,3.39,0,0,0,.17-2.79,3.42,3.42,0,0,0-4.48-2"/><path class="h" d="M333.16,302.28s-9.23,28.16-53.91,44.67-71-.72-71-.72"/><path class="h" d="M227.53,159.25l25.82-5.44,19.44-4.1a6.8,6.8,0,0,1,8,5l.17.68,11.25,45.8c.34,1.41.7,2.81,1.07,4.21a235.77,235.77,0,0,0,8,24.71q2.26,5.91,4.85,11.69l19.14,44.23"/><path class="h" d="M196.93,108.14s10,15.61,16.43,26c3.31,5.36,10.18,14.05,13.76,25.24a44.47,44.47,0,0,1,1.75,20.78,18.94,18.94,0,0,1-18.13,15.7,114.67,114.67,0,0,1-22.45-1.54c-5.76-1-11.24-2.59-15-5a13.48,13.48,0,0,1-3-2.48c-.93-1.07-3.29.3-6.62,1.33a19.16,19.16,0,0,1-5.21.93,14.14,14.14,0,0,1-3.66-.35,7.18,7.18,0,0,1-1.81-.69,7.85,7.85,0,0,1-1.17-.77C146,182.72,150,172.47,158,173.52a44.15,44.15,0,0,1,7.84,1.76c-3.71-4.29-13.36-10.32-9.6-19.37a14.55,14.55,0,0,0,.53-10.26c-1.37-3.89-3.68-9,1.36-13.31,8.37-7.19,18.84-4,23.32-6.85,2.86-1.82,2.49-3.39,2.91-7.12.5-4.39,3.76-7.33,8-8.72Z"/><path class="h" d="M196.93,108.14s-2.13-17.44-39.09-10.51c-33.58,6.28-36.42,30-37.72,53.61-1.23,22.6,10.08,34.78,29,36,.86.07,1.75.11,2.65.12"/><line class="h" x1="206.74" y1="158.44" x2="210.92" y2="162.49"/><line class="h" x1="186.69" y1="150.76" x2="177.8" y2="153.64"/><line class="h" x1="204.67" y1="131" x2="203.44" y2="137.27"/><line class="h" x1="195.17" y1="157.35" x2="189.03" y2="159.35"/><line class="h" x1="208.58" y1="142.73" x2="207.73" y2="147.06"/><path class="h" d="M149.1,187.46s-3.59,8.94-1.94,13a2.86,2.86,0,0,0,1.94,1.81c5.34,1.46,9.38-12.78,9.38-12.78"/><path class="h" d="M146.72,200.61s-14.78-2.59-16.57,4.21a3.24,3.24,0,0,0-.11.71,2.69,2.69,0,0,0,.51,1.76c2.9,4.18,17.29,3.15,18.55-5.06"/><path class="h" d="M130,205.53l-.15-.29s-7.17-1.49-12.61.79-3.81,8.9,6.3,7.42c6.49-.95,7.25-4.05,7-6.16A6.69,6.69,0,0,0,130,205.53Z"/><path class="h" d="M114.59,211.38s-12.37-.26-14.11,7.25,21.53,0,15.25-6.13Z"/><polyline class="h" points="172.67 189.47 169.37 195.3 158.68 214.21 149.56 230.34"/><path class="h" d="M149.56,230.34a5.3,5.3,0,0,0-6.49,3.43l-.06.17a5.27,5.27,0,0,0,.39,4.17l1,1.91,4.29,7.83a4.58,4.58,0,0,0,8.59-2.21,4.45,4.45,0,0,0-.25-1.49l-2.1-6.09-1.48-4.26a5.28,5.28,0,0,0-3.52-3.33Z"/><path class="h" d="M141.18,242.78l-1-1.65a5.26,5.26,0,0,0-3.62-2.45l-.28,0a5.3,5.3,0,0,0-6.16,4.79l0,.42a5.26,5.26,0,0,0,1.27,3.89l2.53,2.91,4.8,5.51a4.58,4.58,0,0,0,7.36-5.39Z"/><path class="h" d="M131.36,256.73l-1-1.7a5.28,5.28,0,0,0-3.65-2.45,5,5,0,0,0-.84-.07,5.32,5.32,0,0,0-5.21,4.31l-.12.62a5.28,5.28,0,0,0,1.2,4.43l2.77,3.18,4.35,5a4.59,4.59,0,0,0,6.08.74,4.57,4.57,0,0,0,1.28-6.14l-4.82-7.89"/><path class="h" d="M124.47,265s-14.4,13.24-2,19.27l10.42,5.56a4,4,0,0,0,5.25-1.29c.06-.09.12-.18.17-.26a4.09,4.09,0,0,0,.53-2,4,4,0,0,0-1.56-3.2l-9.55-7.4"/><path class="h" d="M155,238.05l13.71,3.85,3.49,1a5.57,5.57,0,0,1,3.62,4.83l.89,12.29c0,.33,0,.66,0,1a13.78,13.78,0,0,1-3.16,8.76l-7,8.5-.24.26a4.74,4.74,0,0,1-7-6.43l1-1.09c8.1-8.41,5.83-13.69,5.83-13.69"/><line class="h" x1="144.16" y1="240.17" x2="141.19" y2="242.78"/><polyline class="h" points="133.9 250.64 131.35 256.73 131.35 256.74"/><path class="g" d="M166.54,278.75l-.07,1.07a10,10,0,0,1-9.63,9.09H139.39l14.68,20.54a18,18,0,0,0,16.3,7.49l8.34-.71a12.81,12.81,0,0,0,10.4-7,11.61,11.61,0,0,0,1.12-6.81v0C189.25,297.79,177,261,177,261"/><path class="h" d="M253.36,153.81l20.15,52.34a38.9,38.9,0,0,0,9.84,14.54"/><line class="h" x1="224.64" y1="219.46" x2="279.25" y2="346.95"/><path class="h" d="M333.16,302.28l8.9,14.54s-5.82,41.49-55,56.86c-35.07,9.85-62.38-.23-62.38-.23"/><path class="h" d="M100.38,221.16S86.45,219.41,83,231.21s3.77-.85,5.76-.17,2,13.19,5,10.07S100.38,221.16,100.38,221.16Z"/><line class="h" x1="158.67" y1="214.21" x2="168.68" y2="241.9"/><path class="g" d="M375.7,365.25l26.23,17.05a40.7,40.7,0,0,1,16.79,45.9l-21.42,59.45"/><line class="g" x1="297.37" y1="426" x2="269.57" y2="490.24"/><line class="g" x1="214.3" y1="431.9" x2="206.11" y2="487.65"/><path class="g" d="M339,490.24l4.07-39.13A11.52,11.52,0,0,0,333.42,437l-38.33-5.15"/><path class="i" d="M204.67,182.06a2.75,2.75,0,0,0-.45-.37l-1.23-.84a3.28,3.28,0,0,0-3.5-.12l-2.37,1.39a3.28,3.28,0,0,0-.72,5.07l1.23,1.31a3.28,3.28,0,0,0,4.42.32L204.4,187A3.28,3.28,0,0,0,204.67,182.06Z"/><path class="i" d="M163.68,188.18l1.74,3.43a7.87,7.87,0,0,0,4,3.69,5.33,5.33,0,0,0,.65.25l6.38,2.06a10.7,10.7,0,0,0,9.71-1.55c.71-.54,1.44-1.13,2.16-1.75,3-2.61,6-5.67,8.05-7.08l.06,0"/><path class="h" d="M395,178.51s-11.55-17.12-12.84-21.79"/><path class="h" d="M287,373.67s10.54,39.43,31.08,38c22.46-1.52,50.83-37.2,61-50.92a7.38,7.38,0,0,0-.86-9.73l-36.13-34.25"/><path class="h" d="M190.12,310.69c2.36,3.39,13.83,20.27,18.09,35.53a38.39,38.39,0,0,1,1.34,7,32.15,32.15,0,0,1-1.47,11.56c-3.2,11.34-10.44,24.33-11.16,43.59-.63,16.89,28.83,30.24,47.84,38.07a19.14,19.14,0,0,0,25.73-12.66l6.84-22.06"/><line class="i" x1="204.67" y1="182.06" x2="197.42" y2="187.21"/><path class="h" d="M207.67,177.58c-2.63-1-2.72-4.29-.13-4.89,3.26-.76,6.89-3,10.12-8C225.13,153,226.08,184.59,207.67,177.58Z"/><line class="j" x1="401.49" y1="171.7" x2="389.83" y2="155.28"/><line class="j" x1="428.03" y1="132.67" x2="419.5" y2="114.41"/><line class="j" x1="423.94" y1="143.26" x2="415.41" y2="125.01"/><line class="j" x1="413.95" y1="146.65" x2="401.31" y2="130.96"/><line class="j" x1="406.92" y1="163.79" x2="394.28" y2="148.09"/><path class="c" d="M591.86,456.22l-.05,0-.68-2.46C591.38,454.63,591.63,455.45,591.86,456.22Z"/><path class="c" d="M591.13,453.79c-3.9-13.1-9.57-34.56-10.33-37.43Z"/><polygon class="c" points="506.7 290.72 506.69 290.79 506.62 290.77 506.7 290.72"/><path class="c" d="M475.74,352.55l.1,6.85c0,.3,0,.6,0,.88.05,1.24.1,2.35.13,3.28l2,86.15c.27,8,4.66,15.71,11.1,21.38.06.3.12.64.18.94l-.66,25.12c0,27.91,17.19,43.29,51.51,43.29,0,0,8.1,1.07,23.36.18S599.36,536,616,529h0l1.51-.47c9.82,4.12,20.73,5.47,31.75,5.25l.32,0,.64.08.52.3-1.16.53c.37.13.76-.71,1.14,1.29h0c2,0,4.21-.66,6.44-1,0,0,31.71-6.53,38.48-6.93a84.9,84.9,0,0,0,13.91-1.92A42.94,42.94,0,0,0,722,521.43c4.86-2.86,7.68-7.49,7.68-12.33a12.08,12.08,0,0,0-.28-2.61,13.56,13.56,0,0,0-1.33-3.63l.9-1.51.1-.17,42,10.65a11,11,0,0,0,5.56,3.83l12.5,4c4.75,1.51,10.09-.44,11.94-4.38l28.36-60.78c1.58-3.39-1-7.13-5.27-7.76a8.46,8.46,0,0,0-1.24-.1,7.93,7.93,0,0,0-4.64,1.47L787,471.25a9.67,9.67,0,0,1-5.74,1.82c-4.79,0-8.62,3.24-8.62,7.14,0,.15,0,.29,0,.43l.16,2.2-29.1-9.07c.78-6.43-3-12.88-10.2-16.08a173.35,173.35,0,0,0-40.32-11.75l3.42-.34c-.39-.44-.78-.84-1.19-1.26-15.58-16.2-43.87-19.28-64.67-7.81l-38.48,19.87,0,0-.19-.11,0,.07,0,.06,0,.14,0,.05.07.36h0l-.07,0,0-.46,0,.47h0s0-.4,0-.4l-.06-.51-.2.12-12-39.22c9.82-11.24,23.85-28,33.36-39h0l14.31-14.21V364c1.59-1,3.56-2.13,5.84-3.48a24.29,24.29,0,0,0,3.4-2.48l4.41,5.73a7.05,7.05,0,0,0,11.16-8.62l-5.83-7.53a3.41,3.41,0,0,0,.26-4.53c-1-1.43-1.55-1.82-4.55-1h0l.11-.23,3-2.76a3.59,3.59,0,0,0,1.06-1.84,3.51,3.51,0,0,0-.59-2.82,3.15,3.15,0,0,0-4.66-.7l0,2v0l-1.32-.84.73-.89a1.74,1.74,0,0,0,.21-.23,3.32,3.32,0,0,0,.72-1.51,3.41,3.41,0,0,0-.64-2.75,3,3,0,0,0-4.58-.58l-.13,3.9v.47l-2.69-.19h0l2.3-3.42s.07-1,.1-1a3.52,3.52,0,0,0-4.63-5.29l-2,2-2.7,2.71h0l-.1,0,2.7-2.64-7.34-9.61a13.28,13.28,0,1,0-25.35-1.54,13.07,13.07,0,0,0,14,10.13l3.36,4.6-.46,1.9-4.38,17.8-38,40.31-.59-1.92,1.37-1.36.12.17-.08-.23-2.3-6.94-17.13-51.94h0c-.07,0-.83-.47-2.09-1.22l-1.4-9.93-1.43-10.09,0-.27.1-.3.9-2.72,2.62-8s1-.88,2.49-2l.3.28c8.42,8.07,14.38,5.53,18.06.79.79-1,1.59-2.06,2.37-3.06,2.4-3.12,4.58-5.9,5.74-7.33a6.33,6.33,0,0,1,4.31-2.32l1.69-.17a5.49,5.49,0,0,0,4.84-4.85l.57-5.11a13.5,13.5,0,0,1,1.8-5.38s5.82-8.81,7.17-12a19,19,0,0,0,.64-1.84c1.22-4,2.65-11.28,1.79-14l-9.17,8,.86-2.82v0c2.41.91,3.26-4.65,6.43-6.14a1.14,1.14,0,0,1,1.74.58l0,.05,0,.08a.57.57,0,0,1,0,.1.4.4,0,0,1,.06.12c.57,1.38,2.89,6.41,5.9,4.47,2.73-1.76,6.36-26.56-17.71-40s-47.29-12.5-64.64,2.87a41,41,0,0,0-12.91,36c1.3,9.35,5.64,14.78,13.64,19.82h0c-2,10.45-2.06,4.36-2.06,4.36-1.43,5-5.77,14.28-18.07,26.23h-.11l-.07.2c-1.11,1.08-2.54,2.17-3.79,3.28l-3.59,3c-18.38,15.84-22.67,36.26-23.43,50.91C475.8,349.71,475.76,351.16,475.74,352.55Zm108.21-92,.13-.08-.1.06Zm0-41.56c1.27-.15,2,.77,2.53,2.35ZM583,260.82l.35-.05-.19,0-.16,0Zm-36.8,78.92c.3.78,2.7,7.25,5.1,14.5C548.77,347.16,546.5,340.54,546.22,339.74Zm-28.13-35.89h0v0S518.09,303.85,518.09,303.85Zm-.56,2.37.08-.44.22-1.23-.27,1.7Zm-3.56,21,.37-1.9-.33,1.93Z"/><path class="c" d="M320.32,364.42l6,3.57.42-2a38.68,38.68,0,0,0,1.31,4.26c4.91,13.32,16.48,22.45,30.17,25.54l-5,13.7a54.8,54.8,0,0,0-2.53,28.55l6.2,35.12L354.91,477a3.52,3.52,0,0,0,3.89,5l15.26-3.29.32,2.6-10.84-.14c10.8,31.53,33.89,52.39,59.21,53.46l28.58,1.23a6.89,6.89,0,0,1,4.42,2,6.62,6.62,0,0,0,5,2,6.82,6.82,0,0,0,5.11-3.1l9.06-12.8c2.34-3.29,1.27-8.89-2-10.47a3.65,3.65,0,0,0-1.82-.37,3.33,3.33,0,0,0-1.07.24l4.16-13.86a26.52,26.52,0,0,0-10.93-29.85l-3.45-2.25.31,1.39-1.48.85c2.85-19-1.41-33.83-16.72-55.27l-4.58-6.41c-.18-.93-.36-1.78-.52-2.58l2.09,2.61s3.06-3.35,6.71-7.81,7.92-10.06,10.34-14.54a13.6,13.6,0,0,1,5.38-5.43l1.28-.7a13.62,13.62,0,0,0,5.52-5.71L475.81,360c0,.3.68.56.69.84l-.7-12.06c.09,1.51-.56,3-.49,4.39a4.28,4.28,0,0,0-4.93.49l-6.59,6a55.34,55.34,0,0,0-21.42,3.11l-30.89,11,.21.28-1-.2c6.53-10.66,8.39-23.54,4-35.52a40,40,0,0,0-20.34-22.1l.34-6.75a5,5,0,0,0-4.11-5.15l-.93-.16a5,5,0,0,0-5.64,3.47l-1.35,4.52,1.32.52a49,49,0,0,0-27.22,2.06c-18.51,6.83-30.39,23.26-31.08,40.46l-1.15-.35a4.8,4.8,0,0,0-5.81,2.69l-.37.83A4.82,4.82,0,0,0,320.32,364.42Z"/><path class="d" d="M326.52,367.34l-.88.26-6-3.61a4.81,4.81,0,0,1-1.92-6.07l.38-.83a4.8,4.8,0,0,1,5.83-2.64l1.15.36Z"/><path class="c" d="M368.25,350.61a1.87,1.87,0,1,0-2-1.77A1.87,1.87,0,0,0,368.25,350.61Zm14,23.73a5.86,5.86,0,0,0,8.66,2.73l5.35-3.49a5.87,5.87,0,0,0,1.43-8.53l-8.94-11.45a5.87,5.87,0,0,0-7.2-1.67l-2,1a5.86,5.86,0,0,0-2.88,7.46Zm.61-31a1.88,1.88,0,1,0-2-1.78A1.88,1.88,0,0,0,382.88,343.38Zm-57.79,11.43c.84-17.2,12.85-33.53,31.42-40.2a49,49,0,0,1,26-2.09,44.86,44.86,0,0,1,11.31,3.79,40,40,0,0,1,20.38,22.37c4.3,11.95,2.37,24.75-4.16,35.32a49.6,49.6,0,0,1-52.76,21.71c-13.66-3.2-25.15-12.42-30-25.78-.3-.85-.58-1.71-.82-2.57Z"/><path class="c" d="M449.8,496.63l.57-.8c3.54-10.59,6-19.52,7.05-27.73,2.31-17.92-2.1-32.38-16.6-53.07l-4-5.69,1-.72s3.08-3.33,6.78-7.75,8-10,10.46-14.45a13.6,13.6,0,0,1,5.42-5.39l1.28-.69a13.61,13.61,0,0,0,5.57-5.66l7.22-13.86c-.17-2-.35-4.27-.44-6.83a3.82,3.82,0,0,0-4.63.44l-6.49,6a54.91,54.91,0,0,0-21.37,2.93L410.7,374.09l-.65-.1a49.6,49.6,0,0,1-52.76,21.7l-5.15,13.66a54.85,54.85,0,0,0-2.77,28.52L355.29,473l-2,3.82a3.52,3.52,0,0,0,3.85,5.07l4.71-1,0,.18c10.54,31.62,33.46,52.66,58.77,53.95l28.57,1.46a6.86,6.86,0,0,1,4.4,2.06,6.63,6.63,0,0,0,5,2.07,6.8,6.8,0,0,0,5.13-3.06l9.18-12.72c2.36-3.27,1.34-8.87-1.92-10.49a3.66,3.66,0,0,0-1.8-.39,3.35,3.35,0,0,0-1.08.23,3.05,3.05,0,0,0-.69.33l-6.6,4.15-3-9.42A27,27,0,0,0,449.8,496.63Z"/><path class="k" d="M368.07,346.87a1.87,1.87,0,1,0,2,1.78A1.87,1.87,0,0,0,368.07,346.87Z"/><circle class="k" cx="382.78" cy="341.51" r="1.88" transform="translate(-16.47 19.41) rotate(-2.84)"/><path class="k" d="M386.88,361.62a1.53,1.53,0,0,0,.3-1l-.12-2.37a1.26,1.26,0,0,0-1.88-1.18l-2.07,1.22a1.42,1.42,0,0,0,.12,2.51l2.1,1.16A1.22,1.22,0,0,0,386.88,361.62Z"/><path class="d" d="M382.72,311.54l-.19,1a44.89,44.89,0,0,1,11.3,3.78L394,316l.4-7a4.82,4.82,0,0,0-3.92-5l-.9-.16a4.81,4.81,0,0,0-5.48,3.31Z"/><path class="d" d="M450.37,495.83l-.57.8a27,27,0,0,1,8.07,12.68l3,9.42,6.6-4.15a3.05,3.05,0,0,1,.69-.33l4.27-13.82a26.52,26.52,0,0,0-10.69-29.94l-3.44-2.28-.86-.11C456.37,476.31,453.9,485.24,450.37,495.83Z"/><path class="f" d="M557.36,391.45l.17.14a7.33,7.33,0,0,0,8.93-.8l5.24-5.22-19.42-58.89h0c-.45-.25-29.55-16.93-37.6-26.49l-8-9.48q-1.79,1.74-3.81,3.55l-3.58,3C472.86,315.7,476,362.4,476,363.54l2.09,86.14c.28,8.14,4.35,15.85,11.37,21.54a42.38,42.38,0,0,0,26.55,9A45.1,45.1,0,0,0,526.55,479s25.12-6,43.92-13.46c6.54-2.6,13.6-5.87,21.44-9.14C587.77,442.86,580.72,416,580.72,416c-1.1,1.27-2.16,2.47-3.15,3.6a27.32,27.32,0,0,1-37.81,3.14l-6.34-5.07-.1-.17a15.59,15.59,0,0,0,3.17-2.71L557,391.88Z"/><path class="d" d="M531.23,208a41.45,41.45,0,0,0-13.34,36c1.28,9.21,6.08,14.6,12.75,19.58,2.34,1.75,4.92,3.46,7.65,5.25l.08,0a6.16,6.16,0,0,0,8.32-1.53c6.94-9.39,9.24-15.37,2.7-18.06-7.54-3.09-6.35-12-2.59-14.51s6.9-3.26,13.73,4,17.62-8.48,25.65-14.74,4.53,8.71,10,18,5.48-.23,9.76-2.27a1.14,1.14,0,0,1,1.74.58l0,.06,0,.08a.39.39,0,0,1,0,.09s0,.08,0,.12c.57,1.39,2.88,6.41,5.89,4.47,2.73-1.75,6.33-26.55-17.74-40S548.58,192.67,531.23,208Z"/><path class="k" d="M580.72,257.13a2.44,2.44,0,1,0,3.35-.82A2.45,2.45,0,0,0,580.72,257.13Z"/><path class="f" d="M610.52,324.31l3.95,5.12h0l4.58,5.93,10-10.08-7.39-9.58a13.26,13.26,0,0,1-9.37,8.31A11,11,0,0,1,610.52,324.31Z"/><path class="f" d="M636.54,358.07l4.42,5.71a7.06,7.06,0,0,0,11.18-8.62l-5.83-7.55-.1.11A82.23,82.23,0,0,1,636.54,358.07Z"/><path class="e" d="M641.36,520.18a11.49,11.49,0,0,0-2.49,6.36c-.43,6.42,4.8,11.81,11.78,13.28h0a18.62,18.62,0,0,0,6.43.21s31.72-5.49,38.49-5.9a85.69,85.69,0,0,0,13.91-1.85,43.11,43.11,0,0,0,12.41-4.71c4.86-2.86,7.67-7.47,7.67-12.31a12.31,12.31,0,0,0-.27-2.61A13.4,13.4,0,0,0,728,509c-4.1-7.58-15.23-11.22-24.74-7.3L697.63,504a111,111,0,0,1-24.43,6.91l-21.75,3.57a16.61,16.61,0,0,0-8.78,4.22A13.42,13.42,0,0,0,641.36,520.18Z"/><path class="e" d="M762.62,500.94a7.8,7.8,0,0,0,.16,5.93,10.41,10.41,0,0,0,6.58,5.6l12.5,4c4.75,1.52,10.1-.44,11.93-4.38l28.36-60.77c1.58-3.38-1-7.13-5.27-7.76a8.08,8.08,0,0,0-5.88,1.38l-31.19,23.14a9.69,9.69,0,0,1-5.75,1.82c-4.79,0-8.63,3.23-8.63,7.14,0,.14,0,.28,0,.42l.19,2.61.14,1.93a40.63,40.63,0,0,1-2.5,17.19Z"/><path class="c" d="M476,363.54l2.1,86.14c.26,7.75,4,15.12,10.39,20.72,0-.54-.07-1.1-1.37-1.56L485,370.93c1.25-1.39-5.86-52.69,24.58-75.4l.64-.61-3.55-4.21q-1.79,1.75-3.81,3.56l-3.58,3C472.86,315.7,476,362.4,476,363.54Z"/><path class="g" d="M641.45,514h0L632,519.5a121,121,0,0,1-16,7.58c-16.61,6.57-37.25,11.72-52.44,12.59a230.44,230.44,0,0,1-23.34.43c-34.32,0-51.47-15.22-51.47-43.12l.74-25.75"/><path class="g" d="M602.58,236.77l0-.06"/><path class="g" d="M602.64,236.94a1,1,0,0,0,0-.09"/><path class="g" d="M547.71,285.33a50.89,50.89,0,0,0,6,7.07c8.42,8.06,14.38,5.53,18.06.79l2.37-3.07.45-.58c2.22-2.88,4.2-5.4,5.29-6.74a5,5,0,0,1,.42-.47,6.39,6.39,0,0,1,3.89-1.86l1.69-.17a5.48,5.48,0,0,0,4.84-4.85l.57-5.1a13.41,13.41,0,0,1,1.8-5.38s5.82-8.8,7.17-12c.2-.47.41-1.1.64-1.84,1.22-4,2.65-11.28,1.79-14,0,0,0-.08,0-.12a.39.39,0,0,0,0-.09l0-.08,0-.06a1.14,1.14,0,0,0-1.74-.58c-4.28,2-4.33,11.52-9.76,2.27s-1.92-24.23-10-18-18.82,22-25.65,14.74-10-6.5-13.73-4-5,11.42,2.59,14.51c6.54,2.69,4.24,8.66-2.7,18.06a6.16,6.16,0,0,1-8.32,1.53l-.08,0c-2.73-1.79-5.31-3.5-7.65-5.25-6.67-5-11.48-10.37-12.75-19.58a41.45,41.45,0,0,1,13.34-36c17.35-15.37,40.63-16.31,64.7-2.87s20.47,38.23,17.74,40c-3,1.94-5.32-3.08-5.89-4.47"/><path class="g" d="M673.26,504.77a111,111,0,0,0,24.43-6.91l5.61-2.31c9.51-3.92,20.64-.28,24.74,7.3a13.4,13.4,0,0,1,1.33,3.62,12.31,12.31,0,0,1,.27,2.61c0,4.84-2.81,9.45-7.67,12.31a43.11,43.11,0,0,1-12.41,4.71,85.69,85.69,0,0,1-13.91,1.85c-6.77.4-38.49,5.9-38.49,5.9a18.62,18.62,0,0,1-6.43-.21"/><path class="g" d="M650.71,533.64c-7-1.46-12.21-6.85-11.78-13.28a11.49,11.49,0,0,1,2.49-6.36,13.42,13.42,0,0,1,1.3-1.44,16.61,16.61,0,0,1,8.78-4.22"/><path class="g" d="M650.73,533.64h0l-1.46,0a78.1,78.1,0,0,1-33.26-6.6"/><path class="g" d="M591.91,456.37C587.77,442.86,580.72,416,580.72,416"/><path class="g" d="M591.93,456.36c19.85-8.28,44.69-16.5,78.75-13.44a245.39,245.39,0,0,1,25.74,3.7c15.2,3,28.17,7.12,37.11,11.11,6.75,3,10.54,8.89,10.29,14.93a14,14,0,0,1-1.58,5.94l-13.3,22.74-.89,1.52"/><path class="g" d="M525.35,260.22s.46,11.93-18.67,30.5q-1.79,1.74-3.81,3.55l-3.58,3c-20.27,17.48-23.39,40.54-23.56,55.26,0,2.56,0,4.87.1,6.84.06,1.61.13,3,.17,4.15l2.09,86.14c.28,8.14,4.35,15.85,11.37,21.54a42.38,42.38,0,0,0,26.55,9A45.1,45.1,0,0,0,526.55,479s25.12-6,43.92-13.46c6.54-2.6-2.22.95,5.62-2.32"/><path class="g" d="M557.53,391.59a7.33,7.33,0,0,0,8.93-.8l5.24-5.22,37.13-37,5.63-19.17"/><path class="g" d="M623.37,366.48c-.94,1-26.65,31.21-42.66,49.56-1.1,1.27-2.16,2.47-3.15,3.6a27.32,27.32,0,0,1-37.81,3.14l-6.34-5.07"/><path class="g" d="M619,335.36l10-10.08,2-2a3.5,3.5,0,0,1,5,.7,3.51,3.51,0,0,1-.34,4.55l-.1.1-6.18,6.7"/><path class="g" d="M635.74,328.58a3.51,3.51,0,0,1,5.58,3.51,3.54,3.54,0,0,1-.76,1.54c-.09.11-.2.21-.3.31l-6.18,6.7"/><path class="g" d="M640.64,333.7a3.51,3.51,0,0,1,5,.69,3.52,3.52,0,0,1-.45,4.66L642,342l-.36.34L639,345.76"/><path class="g" d="M641.66,342.38a3.8,3.8,0,0,1,.4-.27,3.51,3.51,0,0,1,4.58,1,3.49,3.49,0,0,1-.34,4.53l-.1.11a82.23,82.23,0,0,1-9.66,10.34,24.21,24.21,0,0,1-3.39,2.49c-5,3-8.56,5.21-9.77,5.92"/><line class="g" x1="621.7" y1="315.7" x2="629.08" y2="325.28"/><path class="g" d="M646.3,347.61l5.83,7.55A7.06,7.06,0,0,1,641,363.78l-4.42-5.71h0"/><polyline class="g" points="619.04 335.36 614.47 329.44 614.47 329.43 610.52 324.31"/><polyline class="g" points="641.99 342.02 642.06 342.11 642.07 342.12"/><path class="g" d="M578.21,282.22s-6.75-3.31-9.8-2.91c-1.34.19-1.73,5.81,4.92,9.88"/><path class="g" d="M621.7,315.7a13.31,13.31,0,1,0-11.18,8.61,11,11,0,0,0,1.81-.3A13.26,13.26,0,0,0,621.7,315.7Z"/><line class="i" x1="650.84" y1="365.05" x2="661.93" y2="382.33"/><path class="g" d="M325.08,354.81c.84-17.2,12.85-33.53,31.42-40.2a49,49,0,0,1,26-2.09,44.86,44.86,0,0,1,11.31,3.79,40,40,0,0,1,20.38,22.37c4.3,11.95,2.37,24.75-4.16,35.32a49.6,49.6,0,0,1-52.76,21.71c-13.66-3.2-25.15-12.42-30-25.78-.3-.85-1.8-5.86-1.76-8.88"/><path class="g" d="M394,316l.4-7a4.82,4.82,0,0,0-3.92-5l-.9-.16a4.81,4.81,0,0,0-5.48,3.31l-1.35,4.36"/><path class="g" d="M325.63,367.61l-6-3.62a4.81,4.81,0,0,1-1.92-6.07l.37-.83a4.81,4.81,0,0,1,5.83-2.65l1.15.37,3.2,1"/><path class="g" d="M388.75,353.61l8.94,11.45a5.87,5.87,0,0,1-1.43,8.53l-5.35,3.49a5.86,5.86,0,0,1-8.66-2.73l-5.58-14a5.86,5.86,0,0,1,2.88-7.46l2-1A5.87,5.87,0,0,1,388.75,353.61Z"/><polyline class="g" points="386.49 360.96 386.88 361.63 389.58 366.27 394.11 367.06"/><line class="g" x1="386.98" y1="370.87" x2="389.58" y2="366.27"/><path class="g" d="M357.35,395.54l-.06.15-5.15,13.66a54.85,54.85,0,0,0-2.77,28.52L355.29,473l-2,3.82a3.52,3.52,0,0,0,3.85,5.07l4.71-1,11.28-2.33a6.17,6.17,0,0,0,4.81-7.18,13.8,13.8,0,0,1-.21-1.75,13.1,13.1,0,0,1,.68-4.86L386,442.28a39.4,39.4,0,0,0,.59-23.35"/><path class="g" d="M422.26,370.56l19.38-7.22A54.91,54.91,0,0,1,463,360.42l6.49-6a3.82,3.82,0,0,1,4.63-.44,3.61,3.61,0,0,1,.75.61,3.81,3.81,0,0,1,1.06,2.45,3.87,3.87,0,0,1-.44,2l-.93,1.79-7.22,13.86a13.61,13.61,0,0,1-5.57,5.66l-1.28.69a13.6,13.6,0,0,0-5.42,5.39c-2.45,4.46-6.76,10-10.46,14.45s-6.78,7.75-6.78,7.75"/><path class="g" d="M431.5,401.75l5.32,7.59,4,5.69c14.51,20.68,18.91,35.14,16.6,53.07-1,8.21-3.51,17.15-7.05,27.73"/><path class="g" d="M365.27,488.09c10.54,31.62,30.09,45.71,55.4,47l28.57,1.46a6.86,6.86,0,0,1,4.4,2.06,6.63,6.63,0,0,0,5,2.07,6.8,6.8,0,0,0,5.13-3.06l9.18-12.72c2.36-3.27,1.34-8.87-1.92-10.49a3.66,3.66,0,0,0-1.8-.39,3.35,3.35,0,0,0-1.08.23,3.05,3.05,0,0,0-.69.33l-6.6,4.15-3-9.42a27,27,0,0,0-8.07-12.68,18,18,0,0,0-4.47-2.77l-26.9-11.53"/><path class="g" d="M458.28,468.21l3.44,2.28a26.52,26.52,0,0,1,10.69,29.94l-2.32,7.52"/><line class="g" x1="772.85" y1="483.25" x2="743.83" y2="472.65"/><polyline class="g" points="728.17 501.18 728.93 501.34 769.98 510.06"/><path class="g" d="M770,510.06a10.41,10.41,0,0,0,6.58,5.6l12.5,4c4.75,1.52,10.1-.44,11.93-4.38l28.36-60.77c1.58-3.38-1-7.13-5.27-7.76a8.08,8.08,0,0,0-5.88,1.38L787,471.26a9.69,9.69,0,0,1-5.75,1.82c-4.79,0-8.63,3.23-8.63,7.14,0,.14,0,.28,0,.42l.19,2.61.14,1.93a40.63,40.63,0,0,1-2.5,17.19l-.67,1.77A7.8,7.8,0,0,0,770,510.06Z"/><path class="g" d="M696.63,445.58c-.39-.44-.79-.87-1.19-1.29-15.58-16.2-43.48-17.57-67.23-8.53l-26.86,10.78"/><path class="g" d="M552.28,326.68c-.17-.46-6.41-17.13-4.64-22.86,1-3.09,6.08-11.42,6.08-11.42"/><path class="l" d="M580.72,257.13a2.44,2.44,0,1,0,3.35-.82A2.45,2.45,0,0,0,580.72,257.13Z"/><path class="i" d="M574.47,264.42s-7.12,11.28-11.62,4.11,9.2-7,9.2-7"/><path class="g" d="M498.49,323.91l-2,8.57C490,361,498.85,387.56,515,411.94a14.09,14.09,0,0,0,11.77,6.26,14.74,14.74,0,0,0,7.94-2.33,15.59,15.59,0,0,0,3.17-2.71L555,393.62l.37-.43a14.68,14.68,0,0,0,1.84-15.88c-1.59-3.22-12.95-35.92-12.95-35.92"/><path class="g" d="M552.28,326.68h0l19.42,58.89.08.23"/><path class="g" d="M507.51,291.68l14,14.93c8.54,9.09,30.41,19.83,30.89,20.08"/><polygon class="e" points="1024.42 318.94 1015.42 311.8 996.46 313.72 997.05 314.12 1010.45 323.13 1024.42 318.94"/><path class="c" d="M1000.54,441.92c-.68,14-.71,28.84-.37,43.15a.5.5,0,0,1,0,.12c.45,19.07,1.56,38,2.62,52.14l1.62,32.67H812.07l11.63-12.15A384,384,0,0,0,865.14,517l.18-.38.11-.27C876,504.07,886,490.3,893,476.15c5.34-10.77,8.95-21.81,9.74-32.62a58.24,58.24,0,0,0,.15-6c-.72-26.78-6-39.43-9-44.48l-1.41-5.2a40.59,40.59,0,0,0,5-39.9,59.36,59.36,0,0,0-6.14-11.35c-10.76-15.18-20.8-29.79-21.11-30.24l.14-.12,12.06-8.76a19.11,19.11,0,0,1,25.18,2.91,83.19,83.19,0,0,1,5.58,7c10.93,15.11,28.61,22.49,47.25,27.64,2.88.79,9,1.33,15.91,1.7a35.31,35.31,0,0,1,7.64,1.26l1.12.34.7.24a32.78,32.78,0,0,1,3.27,1.3q.61.27,1.19.57l1.22.65c.29.15.58.32.86.49a3.76,3.76,0,0,1,.33.2c.34.2.68.41,1,.63l.09.07c.38.25.74.49,1.1.75.67.47,1.33,1,2,1.5l.37.3c.27.23.54.46.79.7a33.7,33.7,0,0,1,2.93,3c.22.25.44.52.65.78a1.16,1.16,0,0,1,.17.21c.25.29.47.59.7.91s.53.71.77,1.07.4.59.58.9a27.28,27.28,0,0,1,1.55,2.7c.17.32.33.65.49,1a30.11,30.11,0,0,1,2.07,6c0,.18.08.37.13.56s.13.63.19,1a1,1,0,0,1,0,.23c.08.37.13.74.18,1.12a1.76,1.76,0,0,1,0,.24c0,.38.09.75.12,1.14a1.5,1.5,0,0,1,0,.23c0,.26,0,.52,0,.78a2.31,2.31,0,0,1,0,.26l.17.54c0,.37.16.73.16,1.09v.51c-1,9.33-5,34.42-6.92,53.15-.09.87-.25,1.73-.33,2.61-.07.61-.16,1.24-.21,1.86-.23,2.55-.44,5.15-.61,7.79-.06.77-.11,1.56-.15,2.34s-.11,1.81-.16,2.73C1000.59,440.83,1000.56,441.37,1000.54,441.92Z"/><path class="c" d="M823.82,429l-1.84,1.3-.82.58-.83.58-6.19,4.4L812.55,437l-.81.58-1.64,1.17-2.5,1.78-.91.65L805,442.45c-4.38,3.15-9,6.5-13.69,9.89l-1.87,1.37c-3.43,2.5-6.85,5-10.2,7.5l-3.57,2.66-1.76,1.32c-6,4.51-11.56,8.76-16,12.35-.27.22-.54.44-.81.65-2.39,2-4.46,3.69-6.1,5.16l-.53.48c-1,.91-1.82,1.72-2.42,2.38-10.33,11.41-10.53,13.83-14.28,17.92-4.24,4.63-22.09,15.77-22.09,15.77a3.33,3.33,0,0,1-4.06-5.26l0,0-3.75,2.64a3.34,3.34,0,0,1-4.4-.51,3.32,3.32,0,0,1,.34-4.75l-.06-.09h0a1.67,1.67,0,0,1-.35.16l-.45.14-.34.06-.41,0a3.29,3.29,0,0,1-2.48-1.11,3.33,3.33,0,0,1,.33-4.75l0,0-.33.19a.48.48,0,0,1-.16.07,1.35,1.35,0,0,1-.32.12l-.08,0-.39.09-.16,0-.36,0a3.33,3.33,0,0,1-2.16-5.87l14.37-12.17-6.95,2a3.53,3.53,0,0,1-1,.15l-1.55-.35a4.4,4.4,0,0,1-.46-.25l-.41-.33a2.21,2.21,0,0,1-.29-.3l-.12-.14a2.45,2.45,0,0,1-.23-.32l-.07-.12a2.7,2.7,0,0,1-.23-.43,3.64,3.64,0,0,1,1.81-4.67l33.43-15.77,4.69-4.09L762,440.59l41-35.74.75-.37a1,1,0,0,1-.07-.14c-.13-.26-.25-.52-.37-.78a1,1,0,0,1-.08-.21q-.18-.42-.34-.85a.34.34,0,0,1,0-.1c-.1-.28-.2-.58-.29-.87s-.18-.62-.25-.94-.14-.59-.2-.9a13,13,0,0,1-.22-1.35,18.57,18.57,0,0,1,3.33-13.1c18-25.13,55.64-71.16,65-78.91h0c.31.45,10.35,15.06,21.11,30.24a59.35,59.35,0,0,1,6.14,11.35,40.59,40.59,0,0,1-5,39.89c-.35.47-.72.93-1.08,1.4l0,0c-.37.44-.74.89-1.13,1.32s-.8.89-1.22,1.31-.84.85-1.27,1.26c-12.05,11.39-28.45,24.78-41.71,28a28.32,28.32,0,0,1-4.42.7,33.1,33.1,0,0,1-5.72,0c-.53,0-1-.11-1.57-.18s-1-.15-1.57-.25l-.29,1.63S829.12,425.28,823.82,429Z"/><path class="c" d="M823.69,557.06l41.44-40.49A373.9,373.9,0,0,1,823.69,557.06Z"/><path class="c" d="M865.43,516.22,893,476.1C886,490.25,876,504,865.43,516.22Z"/><path class="c" d="M893,476.1l9.74-32.6C901.95,454.32,898.33,465.33,893,476.1Z"/><path class="c" d="M902.89,437.51a58,58,0,0,1-.15,6l-2.19-25.94L893.85,393C896.85,398.08,902.17,410.73,902.89,437.51Z"/><path class="c" d="M983.79,336.78l.39.38-.23.79a35.31,35.31,0,0,0-7.64-1.26c-6.9-.37-13-.91-15.91-1.7-18.64-5.15-36.32-12.53-47.25-27.64a83.19,83.19,0,0,0-5.58-7,19.11,19.11,0,0,0-25.18-2.91l-12.06,8.76,13.27-11.12,0,0a37.77,37.77,0,0,1-8.86-5.33l-.92-.76a.5.5,0,0,1-.11-.09l-.8-.72c-.37-.33-.74-.67-1.08-1s-.52-.51-.76-.77-.46-.48-.69-.73l-.67-.74c-.65-.74-1.28-1.51-1.89-2.3-17.47-22.79-10-55.85,15-69.91,10.86-6.09,21.83-11.51,27.18-12,12.64-1.08,17.61,14.5,17.61,14.5l.91.41.31.15.55.27c3.1,1.67,11.32,8.38,11.32,8.38a13.49,13.49,0,0,0,5.2,2.35l4.85,1.08a5.34,5.34,0,0,1,4.17,5.33v1.59c0,.22.2.43.22.65a7.84,7.84,0,0,0,.3,1.12,6.39,6.39,0,0,0,1.68,2.87v0l-.86.15-.6.13,7.93,6.58L964,246l2.83,2.69A10.74,10.74,0,0,1,964.39,266l-.74.39a29.2,29.2,0,0,0-8,26.7c.13.61.26,1.23.41,1.83,0,.24.1.47.16.7.16.65.33,1.29.51,1.93a.1.1,0,0,0,0,0q.3,1.06.62,2.09t.71,2.09v0c.27.41,4.54,6.93,9.77,14.42C973.28,323.9,979.7,332.65,983.79,336.78Z"/><path class="c" d="M1000.18,485.19l2.62,51.35C1001.73,522.39,1000.63,504.25,1000.18,485.19Z"/><path class="c" d="M1045,493.28h0l-3,3.48-1.27,1.48-2.82,3.3-1.55,1.8-2.8,3.23,0,0v0l-.93-2.17-2.44.73-2,.59-5.48,1.63,0,0-22.46-22.26c-.34-14.3-.31-29.13.37-43.15-.08,1.58-.14,3.19-.2,4.79l2.79,1.81,40.52,26.32-.25.7-1.62,4.5h0l-5.11-.69-2.06-.27,5.18,7.08Z"/><path class="d" d="M990.55,337.94c14.2,4,25,16.71,24.76,31.88-.16,9.33-4.85,34.42-6.78,53.15-.78,7.57-1.3,15.86-1.6,24.12-.06,1.55-.11,4.91-.15,4.91h0c-32.58,0-58.54-24.72-62.18-57.09l-8-71.29.39-.69c9,5.47,19.36,9.12,30.06,12.08,2.88.79,9,1.31,15.91,1.68A35.31,35.31,0,0,1,990.55,337.94Z"/><path class="f" d="M907.19,299.93l0,0a19.08,19.08,0,0,0-22.07-4l-.11-.24a38.89,38.89,0,0,1-17.15-13c-17.47-22.79-10-55.85,15-69.91,10.86-6.09,21.83-11.51,27.18-12,12.64-1.07,17.61,14.5,17.61,14.5-5.24-2.19-16.41-5.38-15-1.42,1.6,4.5,11.1,5.5,1.29,10s-24.44-.52-19,8.17,20.16,21,12.16,27.16-7.51,9.32-5.42,13.33,10.93,6.11,14.78-1.12,8.75-2.38,19.76,8.27l-.53.55c-3.25.08-12.43-1.64-12.43-1.64,2,5.15.74,13.18.74,13.18-4.28-4.18-7.28-4.39-7.28-4.39,4.12,2.85,1.6,10.61,1.6,10.61a13.43,13.43,0,0,1-3.19,3A6,6,0,0,1,907.19,299.93Z"/><path class="k" d="M927.68,229.88a2.45,2.45,0,1,1-2.45,2.44A2.45,2.45,0,0,1,927.68,229.88Z"/><path class="e" d="M897.45,347.94a40.7,40.7,0,0,1-9.74,45.21c-12.05,11.39-28.45,24.78-41.71,28a32.52,32.52,0,0,1-13.29.24c-8.16-1.44-16-5.42-22.42-9.58a18.68,18.68,0,0,1-5.05-26.51c18-25.13,55.64-71.16,65-78.91,0,0,10.19,14.82,21.12,30.25A59.35,59.35,0,0,1,897.45,347.94Z"/><path class="e" d="M772.53,449.72c2.35,2.75,5.71,9.5,6.67,11.48-12.28,9.1-23.35,17.61-28.81,22.62,0,0-3.67-8.12-6.12-11.11a11.83,11.83,0,0,0-4.68-3.75l27.14-23.66C767.55,445.93,769.92,446.67,772.53,449.72Z"/><path class="d" d="M1071.66,231.92c.45-.25.92.08,1.41.08h10.82c3.63,0,6.92,1.32,8.43,4.62l10.74,23.63a9,9,0,0,1-8.43,12.79s-3.39-.06-6.79,0a10.89,10.89,0,0,1-9.75-6c0-.07-.07-.16-.1-.23-3.34-6.87-7.72-16.49-9.58-20.61-.16-.35-.3-.66-.41-.92l-.16-.35c-.07-.16-.13-.29-.19-.41l-.15-.35a10.17,10.17,0,0,1-.82-2.66,7.36,7.36,0,0,1,0-2.73A9.39,9.39,0,0,1,1071.66,231.92Z"/><path class="c" d="M878.63,318.53c-10.74,9.83-46.6,53.72-64,78A18.65,18.65,0,0,0,812,412.85c-.58-.36-1.16-.73-1.72-1.08a18.68,18.68,0,0,1-5.05-26.51c18-25.13,55.64-71.16,65-78.91C870.19,306.34,873.62,311.33,878.63,318.53Z"/><path class="c" d="M877.26,282.62A39.49,39.49,0,0,0,891,294.17a19,19,0,0,0-5.92,1.73l-.11-.24a38.89,38.89,0,0,1-17.15-13c-17.47-22.79-10-55.85,15-69.91,10.86-6.09,21.83-11.51,27.18-12a13.47,13.47,0,0,1,5.86.75c-5.9,1.76-14.78,6.26-23.61,11.21C867.27,226.77,859.79,259.83,877.26,282.62Z"/><path class="g" d="M1005.32,564.82s-3.94-35.75-5.05-76.53c-.34-12.09-.43-24.62-.08-36.79,0-1.56.09-3.11.15-4.66.3-8.26.82-16.29,1.6-23.86,1.93-18.74,6.62-43.83,6.78-53.15.25-15.17-10.56-27.86-24.76-31.88a35.32,35.32,0,0,0-7.64-1.26c-6.9-.37-13-.91-15.91-1.7-10.7-3-21.09-6.65-30.06-12.12a58.08,58.08,0,0,1-17.19-15.52,83.19,83.19,0,0,0-5.58-7l-.41-.43a19.08,19.08,0,0,0-22.07-4,18.53,18.53,0,0,0-2.7,1.57l-11.28,9.14s9.26,14.56,20.19,30a59.35,59.35,0,0,1,6.14,11.35,40.7,40.7,0,0,1-9.74,45.21c-12.05,11.39-28.45,24.78-41.71,28a32.52,32.52,0,0,1-13.29.24c-8.16-1.44-16-5.42-22.42-9.58a18.68,18.68,0,0,1-5.05-26.51c18-25.13,43.4-55.66,51-64.66"/><path class="g" d="M891.82,390.19s10.07,9.76,11.07,47.31C904.46,496.77,814,564.82,814,564.82"/><path class="g" d="M963.66,266.35a29.2,29.2,0,0,0-8,26.7,65.16,65.16,0,0,0,2.42,8.69,60.9,60.9,0,0,0,7.53,14.52c4.5,6.53,10.53,13.13,18.55,20.89"/><path class="g" d="M964.39,266a10.74,10.74,0,0,0,2.46-17.32L964,246c-2.87-2.72-5.44-5.18-6.75-6.48l-.47,0a6.94,6.94,0,0,1-2.3-4.64v-1.59a5.14,5.14,0,0,0-3.92-5.33l-4.82-1.08a13,13,0,0,1-5.09-2.35s-8.17-6.71-11.27-8.38a18.56,18.56,0,0,0-1.74-.83c-5.24-2.19-16.39-5.38-15-1.42,1.6,4.5,11.1,5.5,1.3,10s-24.44-.52-19,8.17,20.16,21,12.17,27.16-7.5,9.32-5.42,13.33,10.93,6.11,14.79-1.12,8.75-2.38,19.76,8.27l.08.08"/><path class="g" d="M927.68,215.25s-5-15.58-17.61-14.5c-5.36.45-16.32,5.87-27.18,12-25,14.06-32.52,47.12-15,69.91a38.89,38.89,0,0,0,17.15,13"/><path class="g" d="M907.17,299.9l0,0a6,6,0,0,0,8,1,13.43,13.43,0,0,0,3.19-3s2.52-7.76-1.6-10.61c0,0,3,.22,7.28,4.39,0,0,1.23-8-.74-13.18,0,0,9.17,1.73,12.43,1.64a3.77,3.77,0,0,0,.61,0"/><path class="g" d="M803,404.85l-41,35.74-27.14,23.66-4.69,4.09-33.43,15.77a3.63,3.63,0,0,0,1.55,6.92,3.52,3.52,0,0,0,1-.15l6.95-2L726.11,483"/><path class="g" d="M706.28,488.85,691.92,501a3.33,3.33,0,0,0,4,5.34.53.53,0,0,0,.12-.08l15-10.61"/><path class="g" d="M695.89,506.39a3.33,3.33,0,0,0-.33,4.75,3.29,3.29,0,0,0,2.48,1.11,3.33,3.33,0,0,0,1.57-.4c.12-.07.24-.14.35-.22L715,501"/><path class="g" d="M699.68,512a3.33,3.33,0,0,0,4.06,5.26l3.75-2.64,11.3-8"/><path class="g" d="M707.52,514.62a3.33,3.33,0,0,0,4.06,5.26s17.85-11.14,22.09-15.77c3.75-4.08,4-6.51,14.28-17.92.6-.66,1.41-1.46,2.42-2.38,5.47-5,16.54-13.52,28.81-22.62,24.25-18,53.22-38.23,53.22-38.23"/><path class="g" d="M1000.72,446.86l10.14,7L1042,473.81a3.63,3.63,0,0,1-3.42,6.38l-6.64-2.91L1013,469"/><path class="g" d="M1031.91,477.28l12.69,13.92a3.34,3.34,0,0,1-2.46,5.57,3.26,3.26,0,0,1-2.15-.8.37.37,0,0,1-.09-.08l-13.57-12.46"/><path class="g" d="M1040,496a3.33,3.33,0,0,1-4.39,5,2,2,0,0,1-.31-.25l-13.56-12.46"/><path class="g" d="M1035.51,501a3.32,3.32,0,0,1-4.71,4.69l-3.38-3.1-10.18-9.34"/><path class="g" d="M1027.39,502.67a3.33,3.33,0,0,1-4.71,4.7s-17.13-14-20.74-19.12"/><path class="g" d="M744.26,472.71c2.45,3,6.12,11.11,6.12,11.11"/><path class="g" d="M761.93,440.53l.08.06c.82.62,8.93,6.18,12.72,12.57"/><path class="g" d="M957.21,239.48s-13.2,1.88-8.49,8.31,14.94-1.44,14.94-1.44"/><path class="g" d="M1066.66,238.41a10.18,10.18,0,0,1,5-7.23c.45-.25.92.32,1.41.13,1.09-.41,2.3.19,3.57.19h13.49c3.94,0,7.53,1.44,9.17,5l13.11,28.32c3,6.57-1.66,14.82-8.82,15.06-.11,0-.24.59-.36.59H1090c-3,0-5.7-2.28-7.58-4.42a13.17,13.17,0,0,1-1.57-2.9l-2.71-6-9.68-20.91"/><path class="g" d="M1068,245.27l-.16-.35-.19-.41-.15-.31a9.64,9.64,0,0,1-.82-2.7"/><polyline class="g" points="1103.5 280 1103.5 278.94 1102.68 565.4"/><polyline class="g" points="1095.41 278.95 1095.41 278.95 1094.59 564.87"/><path class="l" d="M930.13,232.32a2.45,2.45,0,1,1-2.45-2.44A2.45,2.45,0,0,1,930.13,232.32Z"/><line class="i" x1="874.51" y1="314.46" x2="862.1" y2="325.57"/><line class="i" x1="877.72" y1="322.17" x2="865.31" y2="333.29"/><line class="i" x1="882.82" y1="328" x2="870.42" y2="339.11"/><line class="i" x1="888.86" y1="333.82" x2="876.46" y2="344.94"/><line class="i" x1="892.76" y1="341.2" x2="880.35" y2="352.31"/><line class="i" x1="895.07" y1="350.45" x2="882.67" y2="361.57"/><path class="g" d="M916.71,301.88s9.41,13.48,27,14.81c5.93.44,13.93.13,21.92-.2,15.71-.63,31.42-1.38,31.42-1.38L958.1,303.5H958"/><polygon class="g" points="996.46 313.72 1015.42 311.8 1024.42 318.94 1010.45 323.13 997.05 314.12 996.46 313.72"/><path class="g" d="M933.63,356,938,394.66c3.14,27.82,22.75,49.8,48.88,55.43"/><line class="g" x1="1074" y1="244.5" x2="1088" y2="244.5"/><line class="g" x1="1079" y1="253.5" x2="1091" y2="253.5"/><line class="g" x1="1083" y1="262.5" x2="1094" y2="262.5"/><path class="i" d="M925.22,243.43s.24,13.41,7.85,9.59-4.24-10.84-4.24-10.84"/><ellipse class="m" cx="532.81" cy="134.99" rx="8.24" ry="10.44" transform="translate(339.14 649.38) rotate(-83.59)"/><polyline class="h" points="543.18 136.15 547.3 99.45 599.78 105.35 595.65 142.05"/><ellipse class="n" cx="585.28" cy="140.88" rx="8.24" ry="10.44" transform="translate(379.89 706.76) rotate(-83.59)"/><line class="h" x1="1015.71" y1="169.66" x2="1026.22" y2="205.06"/><ellipse class="n" cx="1016.21" cy="208.03" rx="10.44" ry="8.24" transform="matrix(0.96, -0.28, 0.28, 0.96, -17.18, 297.86)"/></svg>