<svg xmlns="http://www.w3.org/2000/svg" xmlns:xlink="http://www.w3.org/1999/xlink" viewBox="0 0 410 400"><defs><style>.a,.g,.i,.k{fill:none;}.b{opacity:0.75;}.c{clip-path:url(#a);}.d{fill:#ffea83;}.e,.h{fill:#fff;}.f{fill:#e1e8f6;}.g,.h,.i{stroke:#324681;}.g,.h,.i,.k{stroke-linecap:round;stroke-linejoin:round;}.g,.h{stroke-width:3px;}.i{stroke-width:3.14px;}.j{fill:#f15a24;}.k{stroke:#fff;stroke-width:2px;}.l{fill:#324681;}</style><clipPath id="a"><rect class="a" x="62.58" y="74.21" width="290.51" height="252.04" rx="40.21" ry="40.21"/></clipPath></defs><title>q-2</title><g class="b"><g class="c"><path class="d" d="M129.06,39.18h-20.8a.72.72,0,0,0-.61,1.09L198.52,189a.72.72,0,0,0,1.26-.68L129.71,39.59A.72.72,0,0,0,129.06,39.18Z"/><path class="d" d="M81.18,39.18H53.56A.72.72,0,0,0,53,40.4l143,150.08a.72.72,0,0,0,1.09-.94L81.75,39.46A.72.72,0,0,0,81.18,39.18Z"/><path class="d" d="M34.89,184.17v15.42a.72.72,0,0,0,.72.72H190.92a.72.72,0,0,0,.07-1.44L35.68,183.46A.72.72,0,0,0,34.89,184.17Z"/><path class="d" d="M34.89,253.2V271a.72.72,0,0,0,1,.66l156.35-65.76a.72.72,0,0,0-.49-1.35l-156.35,48A.72.72,0,0,0,34.89,253.2Z"/><path class="d" d="M34.89,345.73v15a.72.72,0,0,0,.72.72h16a.72.72,0,0,0,.52-.22L196,210.27a.72.72,0,0,0-1-1l-159.83,136A.72.72,0,0,0,34.89,345.73Z"/><path class="d" d="M130.65,361.44h18.87a.72.72,0,0,0,.68-.49l51-148.19a.72.72,0,0,0-1.33-.54L130,360.42A.72.72,0,0,0,130.65,361.44Z"/><path class="d" d="M281.85,361.44h20.8a.72.72,0,0,0,.61-1.09L212.38,211.66a.72.72,0,0,0-1.26.68L281.2,361A.72.72,0,0,0,281.85,361.44Z"/><path class="d" d="M329.73,361.44h27.62a.72.72,0,0,0,.52-1.22l-143-150.08a.72.72,0,0,0-1.09.94L329.16,361.16A.72.72,0,0,0,329.73,361.44Z"/><path class="d" d="M376,216.45V201a.72.72,0,0,0-.72-.72H220a.72.72,0,0,0-.07,1.44l155.31,15.42A.72.72,0,0,0,376,216.45Z"/><path class="d" d="M376,147.43V129.66a.72.72,0,0,0-1-.66L218.66,194.76a.72.72,0,0,0,.49,1.35l156.35-48A.72.72,0,0,0,376,147.43Z"/><path class="d" d="M327.91,39.18H304.33a.72.72,0,0,0-.61.34L212.46,188.85a.72.72,0,0,0,1.18.81L328.48,40.34A.72.72,0,0,0,327.91,39.18Z"/></g></g><rect class="e" x="196.58" y="176.13" width="20.26" height="41.97" rx="10.13" ry="10.13"/><path class="e" d="M319.51,234.85A11.89,11.89,0,0,0,319,237v49.4c-16-1.16-29.45-2.19-39.47-2.92l-28.68-.93.67.87c-4.93.58-12.76,1.5-22.6,2.86a57.27,57.27,0,0,1-10.07.37c-1.72-.06-3.47-.18-5.24-.32a207.58,207.58,0,0,1-26.48-4.3l-1.81-.42-.36-.06a8.4,8.4,0,0,1-7.38-8,8.44,8.44,0,0,1,7.15-8.64,11.76,11.76,0,0,1,1.33-.16l-.17,0-1.17-.11-10.39-.8a8.46,8.46,0,0,1-4.72-1.9,8.58,8.58,0,0,1-3.07-6.18,8.7,8.7,0,0,1,8.37-9,8.59,8.59,0,0,1-3.72-1.75,8.4,8.4,0,0,1-3-6.18,8.51,8.51,0,0,1,8.31-8.85,8.18,8.18,0,0,1-4.35-1.86,8.41,8.41,0,0,1,5.23-14.9l6.69.78,22.82,2.68a9.78,9.78,0,0,0,10.91-9.84l-.12-6.94,3.07.82a57.37,57.37,0,0,1,32,22.14,13.32,13.32,0,0,0,4.08,3.73,12.4,12.4,0,0,0,5.09,1.75Z"/><path class="f" d="M211,190.53v24.39c-2,.94-2.57,1.54-4,1.72a7.8,7.8,0,0,1-2,0l-18.67-2.39-1.32-.15v0l-.63-24.68s.11-.23.12-.23a28.74,28.74,0,0,0,15.1,3.84h0C203.42,193,208,192.4,211,190.53Z"/><path class="f" d="M186.8,282a176.77,176.77,0,0,0,24.2,4.3v8.45c0,5.83-4.2,10.23-9.55,10.23H194.3c-5.35,0-7.13-5-7.13-10.8Z"/><path class="g" d="M217.49,199.81l3.22.86a57.36,57.36,0,0,1,32,22.14h0a13.27,13.27,0,0,0,9.31,5.49l58.06,6.58"/><path class="g" d="M321,286.49c-31.28-2.29-55.69-4.11-57.33-4.17"/><path class="g" d="M176.46,229.93a8.5,8.5,0,0,0-8.3,8.85,8.36,8.36,0,0,0,3,6.17,8.49,8.49,0,0,0,3.72,1.76c.34.07.68.09,1,.13l21.59,3.39"/><path class="g" d="M174.9,246.71a8.69,8.69,0,0,0-8.37,9,8.44,8.44,0,0,0,7.79,8.08l10.39.8,1.17.1,10,2.49"/><path class="g" d="M185.88,264.8a9.1,9.1,0,0,0-1.16.09,8.42,8.42,0,0,0-7.14,8.65,8.36,8.36,0,0,0,7.38,8,2.69,2.69,0,0,0,.36.06s18.25,4.49,33.54,5a58,58,0,0,0,10.09-.37c13.89-1.92,23.85-3,27.16-3.44"/><line class="g" x1="183.64" y1="188.84" x2="185.1" y2="214.07"/><path class="g" d="M185.81,282.54l1.32,21.87c.14,9.3,31.88,8.84,31.73-.46V286.63"/><path class="g" d="M217.45,188.37l.3,18.43a9.77,9.77,0,0,1-10.91,9.83L184,213.95l-6.69-.77a8.4,8.4,0,0,0-8.29,8.72,8.43,8.43,0,0,0,7.41,8,1.29,1.29,0,0,0,.35,0l21.59,3.39"/><polyline class="g" points="184.7 264.62 184.72 264.89 184.72 264.92"/><path class="h" d="M217.45,188.37a26.07,26.07,0,0,1-3.84,2.13,20.27,20.27,0,0,1-2.61.86,37.18,37.18,0,0,1-11.35,1.46h0a31,31,0,0,1-15.16-3.66l.07,0c-.32-.18-.63-.23-.93-.42a31.83,31.83,0,1,1,33.81-.36Z"/><line class="g" x1="202.92" y1="311.7" x2="203.95" y2="341.37"/><path class="g" d="M187.47,115.17A44.37,44.37,0,0,1,235,130.25"/><path class="g" d="M180.7,103.91a57.21,57.21,0,0,1,65.83,20.25"/><path class="g" d="M180.7,103.91a57.21,57.21,0,0,1,65.83,20.25"/><path class="g" d="M180.7,103.91a57.21,57.21,0,0,1,65.83,20.25"/><path class="g" d="M257.93,118.12A70,70,0,0,0,174,92.77"/><path class="g" d="M184.56,199.82s2.16,2.68,11.79,3.59,12.25-1.31,12.25-1.31"/><path class="g" d="M256.12,282.84c-3.32.48-13.28,1.52-27.17,3.43a57.14,57.14,0,0,1-10.09.37c-1.72-.06-3.49-.18-5.25-.32a208.7,208.7,0,0,1-26.49-4.3l-1.81-.42-.36-.06a8.38,8.38,0,0,1-7.38-8,8.42,8.42,0,0,1,7.15-8.64,11.29,11.29,0,0,1,1.34-.16"/><path class="g" d="M185.81,282.54l1.32,21.87c.14,9.3,31.88,8.84,31.73-.46V286.63"/><path class="g" d="M206.95,216.64h-.1l-20.35-2.39-1.24-.15-1.22-.14-6.7-.78A8.41,8.41,0,0,0,169,221.9a8.29,8.29,0,0,0,3.06,6.17,8.18,8.18,0,0,0,4.34,1.86,1.21,1.21,0,0,0,.35,0l8.92,1.4,12.67,2"/><polyline class="i" points="143.55 197.75 131.02 155.56 90.21 179.26 102.74 221.45"/><line class="i" x1="315.98" y1="120.39" x2="297.03" y2="164.5"/><ellipse class="j" cx="285.57" cy="159.98" rx="10.72" ry="13.57" transform="translate(25.86 359.21) rotate(-66.75)"/><path class="k" d="M282.5,162.46v.4a3.42,3.42,0,0,0,2.87,3.26h.34a3.2,3.2,0,0,0,2.84-3.27v-.22a2.6,2.6,0,0,0-2.85-2.57h-.07a2.91,2.91,0,0,1-2.93-2.87h0a3,3,0,0,1,2.88-3.19h.15a2.81,2.81,0,0,1,2.84,2.84V157"/><polyline class="k" points="285.37 165.96 285.37 166.11 285.37 168.19"/><line class="k" x1="285.37" y1="151.95" x2="285.37" y2="153.86"/><line class="g" x1="320.06" y1="234.88" x2="319.81" y2="234.85"/><line class="g" x1="217.64" y1="199.85" x2="217.49" y2="199.81"/><path class="g" d="M279.83,283.47c-9.41-.69-15.37-1.12-16.15-1.15"/><path class="g" d="M321,286.49l-1.39-.1"/><path class="g" d="M174.9,246.71a8.8,8.8,0,0,0,1,.14l21.59,3.39"/><polyline class="g" points="195.88 266.94 186.06 264.5 186 264.5"/><path class="g" d="M176.46,229.93a1,1,0,0,0,.34,0l21.6,3.4"/><line class="g" x1="217.64" y1="199.85" x2="217.45" y2="188.37"/><line class="g" x1="186" y1="264.5" x2="186" y2="264.5"/><path class="g" d="M256.12,282.84c-1,.14-2.5.32-4.53.57"/><ellipse class="j" cx="93.01" cy="224.99" rx="12.44" ry="9.82" transform="translate(-60.19 35.78) rotate(-16.54)"/><path class="k" d="M88.95,227.74v.37a3.14,3.14,0,0,0,2.63,3h.31a2.93,2.93,0,0,0,2.61-3v-.2a2.38,2.38,0,0,0-2.61-2.36h-.07a2.66,2.66,0,0,1-2.68-2.63h0A2.7,2.7,0,0,1,91.75,220h.13a2.58,2.58,0,0,1,2.61,2.61v.17"/><polyline class="k" points="91.58 230.95 91.58 231.09 91.58 233"/><line class="k" x1="91.58" y1="218.1" x2="91.58" y2="219.85"/><ellipse class="j" cx="133.82" cy="201.29" rx="12.44" ry="9.82" transform="translate(-51.76 46.42) rotate(-16.54)"/><path class="k" d="M129.76,204v.37a3.14,3.14,0,0,0,2.63,3h.31a2.93,2.93,0,0,0,2.61-3v-.2a2.38,2.38,0,0,0-2.61-2.36h-.07a2.66,2.66,0,0,1-2.68-2.63h0a2.7,2.7,0,0,1,2.64-2.92h.13a2.58,2.58,0,0,1,2.61,2.61v.17"/><polyline class="k" points="132.39 207.25 132.39 207.39 132.39 209.3"/><line class="k" x1="132.39" y1="194.4" x2="132.39" y2="196.16"/><path class="l" d="M206.42,138.62a1,1,0,0,1-.08-2c2.42-.19,5.07-.52,7.86-1a1,1,0,0,1,.32,2c-2.85.46-5.55.8-8,1Zm-15.92-.95-.21,0a44.6,44.6,0,0,1-7.86-2.33,1,1,0,0,1,.79-1.84,43.62,43.62,0,0,0,7.48,2.21,1,1,0,0,1-.21,2Z"/><path class="l" d="M205,144a.9.9,0,0,1-1-.83,1,1,0,0,1,.95-1c2.46-.12,5.11-.35,7.88-.74a1,1,0,0,1,1.13.87.9.9,0,0,1-.85,1A59,59,0,0,1,205,144Zm-15.92-1-.2,0a50.36,50.36,0,0,1-7.88-2.19,1,1,0,0,1,.74-1.86,49.46,49.46,0,0,0,7.54,2.09,1,1,0,0,1-.2,2Z"/><path class="l" d="M203.56,150a1.09,1.09,0,0,1-1-1.07,1,1,0,0,1,1-1.07c2.5-.06,5.15-.27,7.89-.59a1,1,0,0,1,1.11.87,1.09,1.09,0,0,1-.88,1.2,72.2,72.2,0,0,1-8.07.67Zm-15.92-1.57-.19,0a56.7,56.7,0,0,1-7.89-2.07,1,1,0,0,1,.69-1.88,55.83,55.83,0,0,0,7.59,2,1,1,0,0,1-.19,2Z"/><path class="l" d="M202.11,155c-.55,0-1-.28-1-.83a.93.93,0,0,1,1-.92c2.55,0,5.21-.09,7.9-.34a1,1,0,0,1,1.09.93c0,.55-.35.88-.91.93-2.75.25-5.47.23-8.08.23Zm-15.91-1.17-.19,0a63,63,0,0,1-7.91-2,1,1,0,0,1,.65-1.89,62.25,62.25,0,0,0,7.63,1.89,1,1,0,0,1-.19,2Zm39.67-1.56a1,1,0,0,1-.25-2c.85-.22,1.32-.36,1.33-.36a1,1,0,0,1,.56,1.92s-.5.14-1.4.38A1,1,0,0,1,225.87,152.27Z"/><path class="l" d="M202.15,160.83h-1.5a1,1,0,0,1-1-1,1,1,0,0,1,1-1c2.55,0,5.23,0,7.91-.21a1,1,0,0,1,.13,2C206.52,160.76,204.3,160.83,202.15,160.83Zm-17.4-1.59-.18,0a69.43,69.43,0,0,1-7.92-1.86,1,1,0,1,1,.61-1.9,69.18,69.18,0,0,0,7.67,1.8,1,1,0,0,1-.18,2Zm39.73-.95a1,1,0,0,1-.22-2c1.86-.43,2.82-.7,3.14-.8s1.1,0,1.23.4l.08.26a1,1,0,0,1-.65,1.22c-.87.24-2.15.59-3.36.87Z"/><path class="l" d="M202.33,166.33q-1.6,0-3.14,0a1,1,0,0,1-1-1,1,1,0,0,1,1-1c2.55.08,5.26.06,7.92-.07a1,1,0,1,1,.09,2C205.62,166.29,204,166.33,202.33,166.33Zm-19-1.68-.18,0a76.63,76.63,0,0,1-7.93-1.77,1,1,0,1,1,.58-1.92,76.09,76.09,0,0,0,7.7,1.72,1,1,0,0,1-.17,2Zm39.78-.39a1,1,0,0,1-.2-2c3.29-.67,5.24-1.27,5.42-1.33a1,1,0,0,1,1,1.65c-.48.48-6,1.62-6,1.63Z"/><path class="l" d="M202.5,171.83c-1.58,0-3.18,0-4.77-.09a1,1,0,0,1-1-1,1,1,0,0,1,1-1c2.67.1,5.4.12,7.93,0a1,1,0,0,1,1,1,1,1,0,0,1-1,1Q204.19,171.83,202.5,171.83Zm19.18-1.65a1,1,0,0,1-.18-2,63,63,0,0,0,7.5-1.75,1,1,0,0,1,1.3.79,1,1,0,0,1-.68,1.11,64.06,64.06,0,0,1-7.77,1.81Zm-39.81-.11h-.17c-4.91-.84-7.81-1.66-7.93-1.69a1,1,0,1,1,.54-1.92s2.93.82,7.73,1.65a1,1,0,0,1-.17,2Z"/><path class="l" d="M202.67,177.33c-2.12,0-4.27-.05-6.4-.15a1,1,0,0,1-1-1c0-.55.49-1.17,1-1.11,2.66.13,5.37,0,7.94,0h0a1.15,1.15,0,0,1,1,1.15,1.07,1.07,0,0,1-1,1.09C203.79,177.25,203.23,177.33,202.67,177.33Zm17.59-1.28a1,1,0,0,1-.15-2,75,75,0,0,0,7.73-1.57,1,1,0,0,1,.51,1.93,77.25,77.25,0,0,1-7.94,1.61Zm-39.85-.55h-.16c-4.92-.81-7.82-1.59-7.94-1.62a1,1,0,1,1,.52-1.93s2.93.78,7.75,1.58a1,1,0,0,1-.16,2Z"/><path class="l" d="M202.87,182.83c-2.67,0-5.37-.07-8.05-.21a1,1,0,0,1,.11-2c2.64.14,5.31.21,7.92.21a1,1,0,0,1,1,1A1,1,0,0,1,202.87,182.83Zm16-1a1,1,0,0,1-.13-2c2.8-.36,5.42-.82,7.79-1.36a1,1,0,0,1,.44,2c-2.43.55-5.11,1-8,1.39ZM179,180.94h-.16c-4.94-.79-5.83-1.52-5.95-1.55a1,1,0,1,1,.49-1.94s.93.74,5.77,1.51a1,1,0,0,1-.16,2Z"/><path class="l" d="M201.41,188h0c-2.65,0-5.36,0-8-.11a.93.93,0,0,1-.94-1,1,1,0,0,1,1.06-.9c2.66.15,5.33.26,7.95.29.55,0,1,.31,1,.86S202,188,201.41,188Zm16-.38a1,1,0,0,1-.1-2c2.79-.3,1.42.32,3.83-.15.53-.11.07.25.17.79a1,1,0,0,1-.79,1.17c-2.46.48-.15-.12-3,.18Z"/><path class="l" d="M202.5,137.67l-.21,0a44.6,44.6,0,0,1-7.86-2.33,1,1,0,0,1,.79-1.84,43.62,43.62,0,0,0,7.48,2.21,1,1,0,0,1-.21,2Z"/><path class="l" d="M217,144a.9.9,0,0,1-1-.83,1,1,0,0,1,.95-1c2.46-.12,5.11-.35,7.88-.74a1,1,0,0,1,1.13.87.9.9,0,0,1-.85,1A59,59,0,0,1,217,144Zm-15.92-1-.2,0a50.36,50.36,0,0,1-7.88-2.19,1,1,0,0,1,.74-1.86,49.46,49.46,0,0,0,7.54,2.09,1,1,0,0,1-.2,2Z"/><path class="l" d="M215.56,150a1.09,1.09,0,0,1-1-1.07,1,1,0,0,1,1-1.07c2.5-.06,5.15-.27,7.89-.59a1,1,0,0,1,1.11.87,1.09,1.09,0,0,1-.88,1.2,72.2,72.2,0,0,1-8.07.67Zm-15.92-1.57-.19,0a56.7,56.7,0,0,1-7.89-2.07,1,1,0,0,1,.69-1.88,55.83,55.83,0,0,0,7.59,2,1,1,0,0,1-.19,2Z"/><path class="l" d="M214.11,155c-.55,0-1-.28-1-.83a.93.93,0,0,1,1-.92c2.55,0,5.21-.09,7.9-.34a1,1,0,0,1,1.09.93c0,.55-.35.88-.91.93-2.75.25-5.47.23-8.08.23Zm-15.91-1.17-.19,0a63,63,0,0,1-7.91-2,1,1,0,0,1,.65-1.89,62.25,62.25,0,0,0,7.63,1.89,1,1,0,0,1-.19,2Z"/><path class="l" d="M214.15,160.83h-1.5a1,1,0,0,1-1-1,1,1,0,0,1,1-1c2.55,0,5.23,0,7.91-.21a1,1,0,0,1,.13,2C218.52,160.76,216.3,160.83,214.15,160.83Zm-17.4-1.59-.18,0a69.43,69.43,0,0,1-7.92-1.86,1,1,0,1,1,.61-1.9,69.18,69.18,0,0,0,7.67,1.8,1,1,0,0,1-.18,2Z"/><path class="l" d="M214.33,166.33q-1.6,0-3.14,0a1,1,0,0,1-1-1,1,1,0,0,1,1-1c2.55.08,5.26.06,7.92-.07a1,1,0,1,1,.09,2C217.62,166.29,216,166.33,214.33,166.33Zm-19-1.68-.18,0a76.63,76.63,0,0,1-7.93-1.77,1,1,0,1,1,.58-1.92,76.09,76.09,0,0,0,7.7,1.72,1,1,0,0,1-.17,2Z"/><path class="l" d="M214.5,171.83c-1.58,0-3.18,0-4.77-.09a1,1,0,0,1-1-1,1,1,0,0,1,1-1c2.67.1,5.4.12,7.93,0a1,1,0,0,1,1,1,1,1,0,0,1-1,1Q216.19,171.83,214.5,171.83Zm-20.63-1.76h-.17c-4.91-.84-7.81-1.66-7.93-1.69a1,1,0,1,1,.54-1.92s2.93.82,7.73,1.65a1,1,0,0,1-.17,2Z"/><path class="l" d="M214.67,177.33c-2.12,0-4.27-.05-6.4-.15a1,1,0,0,1-1-1c0-.55.49-1.17,1-1.11,2.66.13,5.37,0,7.94,0h0a1.15,1.15,0,0,1,1,1.15,1.07,1.07,0,0,1-1,1.09C215.79,177.25,215.23,177.33,214.67,177.33Zm-22.26-1.83h-.16c-4.92-.81-7.82-1.59-7.94-1.62a1,1,0,1,1,.52-1.93s2.93.78,7.75,1.58a1,1,0,0,1-.16,2Z"/><path class="l" d="M214.87,182.83c-2.67,0-5.37-.07-8.05-.21a1,1,0,0,1,.11-2c2.64.14,5.31.21,7.92.21a1,1,0,0,1,1,1A1,1,0,0,1,214.87,182.83ZM191,180.94h-.16c-4.94-.79-5.83-1.52-5.95-1.55a1,1,0,1,1,.49-1.94s.93.74,5.77,1.51a1,1,0,0,1-.16,2Z"/><path class="l" d="M213.41,188h0c-2.65,0-5.36,0-8-.11a.93.93,0,0,1-.94-1,1,1,0,0,1,1.06-.9c2.66.15,5.33.26,7.95.29.55,0,1,.31,1,.86S214,188,213.41,188Z"/></svg>