<svg xmlns="http://www.w3.org/2000/svg" viewBox="0 0 1200 630"><defs><style>.a{isolation:isolate;}.b{fill:#fff;}.c{fill:#ffea83;}.d{fill:#e1e8f6;}.e,.i{fill:#324681;}.f{fill:#f15a24;}.g,.h,.j,.l{fill:none;stroke-linecap:round;stroke-linejoin:round;}.g,.h,.i,.j{stroke:#324681;}.g{stroke-width:3px;}.h,.j{stroke-width:2px;}.h{stroke-dasharray:2 8;}.i{stroke-miterlimit:10;}.k{mix-blend-mode:multiply;}.l{stroke:#e1e8f6;stroke-width:5px;}</style></defs><title>result-3</title><g class="a"><path class="b" d="M222.81,323.3l-1.32,2.91-.4-.79Zm677,26.88,1.1-7.62.74-.11Z"/><path class="b" d="M994.81,321.26a7.9,7.9,0,0,0-7.34-5q-.38,0-.76,0L918.27,323l-1.45-13.85,2.85,13.7c-.05-.74-.15-1.5-.23-2.26a91.69,91.69,0,0,0-3.94-17.84l1.33,6.39-2.49-5.74,1.16-.65,50.86-28.52a7.75,7.75,0,0,0-7.11-13.77l-52,24.62a81.62,81.62,0,0,0-16.9-19.27l13.09-13.55A11,11,0,0,0,888.68,236l-19.22,16.6L866.69,255l-8.45-6.09,11.22,3.71a102.24,102.24,0,0,0-13.4-4.94V248h0c-6.33-2-10.61-3.06-11-3.12l7.36,2.27-10-1.05,2.6-1.52-16.78-12.17c1.15-3.14,4.06-10.86,6.6-20.51,5.3-20.08,4.44-41.33-6.74-59.23-.37-.6-.75-1.19-1.14-1.78-9-16.16-27.57-22.71-44.53-23.57-.75,0-1.47,0-2.2,0-17.69.55-33.92,10.46-44.15,25.32l-.82,1.28c-19.67,32,3.69,66.41,3.69,66.41l2.81.38c3.49,10.25,9.27,21,18.18,27.71l-1.13,2.24-13.18,16.71a166.74,166.74,0,0,0-38.27,30.5l-30.21-8.56-.66-.91a11.41,11.41,0,0,0-.35-1.42,25,25,0,0,1-.82-7.42c.08-8.84,2.62-21.37,5.27-32.45,1.91-8,2.75-18.4,2.79-28.25,0-11.16-.94-21.6-2.55-27a6.85,6.85,0,0,1-.16-1.2,7.43,7.43,0,0,1-.08-1c-.05-4.63,4.75-5.76,6.74-8.75h0c-5.32-3.19-11.7-4.26-16.95-6.36l-2-.63c-10.89-3.37-22.19-5.25-31.65-11.7l-.91-.74a19.72,19.72,0,0,0-4.89-2.81L603.26,171H590.67l1.64,7.78c-1.27,1.26-15.19,14.39-16.13,15.29,0,0-.05-.13-.05-.13s2.91,3.32,6.1,3.59-2.94,20.15-2.94,20.15l4.41,3.7s-8.87,20.6,6.17,31l1,.4a43.5,43.5,0,0,0,8.5,23.31l-3.79-4.22a118.27,118.27,0,0,0-3.71,13,64.59,64.59,0,0,0-1.18,6.94,21.36,21.36,0,0,0,1.31,8.65,121.34,121.34,0,0,0-20,5.69h0l-.94.45V307h0l.11-.14c-3.88,1.49-8,3-13.3,5.23l13.67-4.67.15.29-13.8,4.57c0-.12,0-.25,0-.36-1.37-14.91-7.61-28-22.41-37l.79.41L496.28,250l.3-.53c1.35-.44,12.23-4,15.88-6.11,46-26.64,27-107.17-11.11-117.14-62.3-16.33-79.66,44.35-76.94,76,1.58,18.36,5.1,45.48,6.36,55l-51.15,5.53,0,.08-14.88-12.41h0v.28L363.61,253h-2.78c3.84-6,5.17-13.71,5.17-20h0c11-5.75,13.35-17.2,8.25-21.95-.33-.31-.39-.56-.7-.77.07-.33.91-4,1.61-9.41.45-3.28.93-7.2,1.17-11.37.7-11,.34-23.86-3.92-31.57a37.2,37.2,0,0,0-2.8-4.4c-.32-.41-.63-.82-.94-1.19-9.25-10.4-27.86-6.91-40.59-11.72l-1.26-.24a54.76,54.76,0,0,0-10.33-1c-29.92.3-28.52,31.38-33.4,34.54-19.94,12.87,6.17,60.31,6.17,60.31H289l.63-.11c.14,1,.44,2,.67,3a62.8,62.8,0,0,0,7.55,19l-2.47,3,.81-2.51-26.52,22a18.86,18.86,0,0,0-6.57,17.54l-1.23.86-11.16,3.47c-6.58,2-12.46,7.68-17,12.85l-2.92,3.34a12,12,0,0,0-.64,14.78c-.15.08-14.92,8.12-14.74,52.51,0,6.38.36,13.51,1.09,21.47,3.86,42.17,7.35,81.59,7.35,81.59l157.32.13,41.3,0,.07.36v-.36l80.76.07,356.43.29,1.23-65.91-.43-.06a43.31,43.31,0,0,0,33.39-18.44,172.89,172.89,0,0,0,13-21.62s0,0,0,0l50.7,12.46a6.36,6.36,0,0,0,3.87-12.09l-45.58-18.1,1.65-11.39a71.29,71.29,0,0,0,2.18-9.85l68.95-10.53A7.87,7.87,0,0,0,994.81,321.26Z"/><path class="b" d="M919.71,342.44l-14,2.14A7.51,7.51,0,0,0,904.08,359l11.81,4.68,45.58,18.1a6.37,6.37,0,0,1,1.3.7,7.07,7.07,0,0,1,.74.6c.12.12.23.22.34.34a6.4,6.4,0,0,1,1.47,2.88,5.23,5.23,0,0,1,.14.92c0,.15,0,.31,0,.47a6.36,6.36,0,0,1-7.88,6.18L906.9,381.4,896,378.73a78.15,78.15,0,0,0-13.9-2.11l-63.28-3.85a59.33,59.33,0,0,1-11.58-1.87,58.65,58.65,0,0,1-11-4.1,57.46,57.46,0,0,0-9.17-3.58,58.69,58.69,0,0,0-13.29-2.38l-51.4-3.23a12.55,12.55,0,0,1-11.75-12.49c0-.36,0-.72,0-1.09a12.55,12.55,0,0,1,12.13-11.48l58.41-1.7-.06-2.07L866.69,255l2.77-2.38L888.68,236a11,11,0,0,1,14.72,16.27l-13.09,13.55-30.74,31.81a4.61,4.61,0,0,0-1.31,3.23,4.66,4.66,0,0,0,6.67,4.23l42.29-20,52-24.62a7.8,7.8,0,0,1,3.32-.74l1.81.21c.25.06.5.14.74.22l2.95,1.85c.2.21.4.43.59.68a7.71,7.71,0,0,1,1.12,7.59,1.47,1.47,0,0,1-.11.28,7.23,7.23,0,0,1-.37.76,0,0,0,0,0,0,0,8.13,8.13,0,0,1-.55.84c-.11.14-.21.28-.33.4a4.13,4.13,0,0,1-.36.38,7.92,7.92,0,0,1-1.7,1.28l-50.86,28.52h0l-1.14.65-14,7.86a7,7,0,0,0-3.58,6.13,6.94,6.94,0,0,0,1.94,4.82,7,7,0,0,0,5.74,2.14L918.27,323l1.4-.14,67-6.59q.38,0,.76,0c1.12,0,2.2.23,5.76,2.5a5.34,5.34,0,0,1,.39.45l1.2,2.07a7.86,7.86,0,0,1-1.78,8.42,7.14,7.14,0,0,1-1.06.89,8.09,8.09,0,0,1-1.22.7,7.91,7.91,0,0,1-2.1.63Z"/><path class="b" d="M992,330.58a7.14,7.14,0,0,0,1.06-.89A6.64,6.64,0,0,1,992,330.58Z"/><path class="b" d="M990.76,331.28a8.09,8.09,0,0,0,1.22-.7A8.09,8.09,0,0,1,990.76,331.28Z"/><path class="c" d="M968.66,262.71a7.68,7.68,0,0,1,1.11,7.59,7.71,7.71,0,0,0-1.12-7.59c-.19-.24-.39-.47-.59-.68A6.25,6.25,0,0,1,968.66,262.71Z"/><path class="c" d="M969.67,270.58a6.34,6.34,0,0,1-.37.76A7.23,7.23,0,0,0,969.67,270.58Z"/><path class="c" d="M969.29,271.35a6.34,6.34,0,0,1-.55.84A8.13,8.13,0,0,0,969.29,271.35Z"/><path class="c" d="M968,273a4.13,4.13,0,0,0,.36-.38A4.13,4.13,0,0,1,968,273Z"/><path class="b" d="M965.32,386.3a5.38,5.38,0,0,1,.14.92A5.23,5.23,0,0,0,965.32,386.3Z"/><path class="b" d="M963.85,383.42c-.11-.12-.22-.22-.34-.34C963.63,383.18,963.73,383.3,963.85,383.42Z"/><path class="b" d="M962.77,382.47a5.77,5.77,0,0,1,.74.6A7.07,7.07,0,0,0,962.77,382.47Z"/><path class="c" d="M917.54,352.31l-1.65,11.36L904.08,359a7.51,7.51,0,0,1,1.64-14.41l14-2.14a.13.13,0,0,1,0,.06c-.1.78-.23,1.57-.37,2.36-.08.43-.17.88-.26,1.32-.17.81-.36,1.61-.56,2.42s-.41,1.64-.64,2.46l-.33,1.22Z"/><path class="b" d="M919.67,322.86l-2.85-13.7-1.3-6.29c.39,1.17.75,2.36,1.09,3.58a91.94,91.94,0,0,1,2.83,14.16C919.52,321.36,919.61,322.12,919.67,322.86Z"/><path class="c" d="M916.82,309.16,918.27,323l-13.85,1.36a7,7,0,0,1-5.74-2.14,6.94,6.94,0,0,1-1.94-4.82,7,7,0,0,1,3.58-6.13l14-7.86Z"/><path class="b" d="M915.49,302.77c.4,1.2.77,2.43,1.11,3.68-.34-1.22-.7-2.42-1.09-3.58Z"/><path class="c" d="M907.22,285.11l-42.29,20a4.66,4.66,0,0,1-6.67-4.23,4.61,4.61,0,0,1,1.31-3.23l30.74-31.81A81.63,81.63,0,0,1,907.22,285.11Z"/><path class="c" d="M906.9,381.4s0,0,0,0a172.88,172.88,0,0,1-13,21.62,42.73,42.73,0,0,1-5,5.93q-.43.45-.89.86l0,0c-.29.28-.58.55-.89.81a.36.36,0,0,1-.06.06c-.3.26-.6.53-.92.78l-.88.72a42.37,42.37,0,0,1-8.45,5.2c-.74.34-1.48.67-2.23,1s-1.5.58-2.27.84l-1.12.36h0L870,420c-.39.12-.77.21-1.17.31l-1.11.26c-.48.12-1,.21-1.44.29l-1,.17-1.16.18H864l-1.1.13c-.66.08-1.31.14-2,.17l-.41,0a43.19,43.19,0,0,1-34.76-14.58l-38.66-43.68h0a57.46,57.46,0,0,1,9.17,3.58,58.65,58.65,0,0,0,11,4.1,59.33,59.33,0,0,0,11.58,1.87l63.28,3.85a78.15,78.15,0,0,1,13.9,2.11Z"/><path class="c" d="M869.46,252.62l-11.22-3.71,8.46,6.09-85.5,73.79.06,2.07-58.41,1.7A12.55,12.55,0,0,0,710.71,344c0,.37,0,.73,0,1.09a12.55,12.55,0,0,0,11.75,12.49l51.4,3.23a58.69,58.69,0,0,1,13.29,2.38h0l38.66,43.68a43.19,43.19,0,0,0,34.76,14.58l.42.06-1.23,65.91-213-.17,20.79-116.65a167,167,0,0,1,28.62-59.5q4.93-6.52,10.47-12.53c.22-.25.47-.51.7-.75a.49.49,0,0,1,.07-.07c.67-.72,1.35-1.43,2-2.14,2-2,4-4,6.08-6l1.08-1,.45-.41c1.14-1,2.31-2.08,3.5-3.08.77-.67,1.55-1.32,2.34-2l.43-.36,1.94-1.57,2.26-1.78q3.78-2.91,7.76-5.62c.71-.49,1.42-1,2.14-1.44,1-.64,1.92-1.25,2.89-1.87.76-.49,1.54-1,2.32-1.44,1-.6,2-1.19,3-1.77l19.22,2.46,6.69-13.78.37-1.88a36,36,0,0,0,12.83.71,18.65,18.65,0,0,0,7.23-2.55l.39.66,10.12,15.76,40-22.78,9.92.91-6.19-2.12a101.62,101.62,0,0,1,22,7.27Zm-81.93,22.46a5,5,0,1,0-5,5A5,5,0,0,0,787.53,275.07Zm0,19.26a5,5,0,1,0-5,5A5,5,0,0,0,787.53,294.33Z"/><path class="b" d="M856.05,247.15A108.35,108.35,0,0,1,868.2,252a101.62,101.62,0,0,0-22-7.27l-1.18-.4c.2,0,1.38.15,3.29.53a61.84,61.84,0,0,1,7.74,2.07Z"/><polygon class="b" points="845 244.51 844.98 244.52 828.38 232.49 845 244.51"/><path class="b" d="M828.38,232.49l16.6,12L842.41,246h.07l-40,22.78L792.34,253l-.39-.66a33.15,33.15,0,0,0,6.52-5.05l29.76-14.9Z"/><path class="d" d="M828.09,152.66c11.18,17.9,12,39.15,6.74,59.23l-.13.48c-.6,2.23-1.21,4.36-1.81,6.34-1.95,6.38-3.79,11.31-4.66,13.67h0l-29.76,14.9c9.48-9.22,16.5-24.35,16.32-31.59,0-2.15,16.11-3.33,12.62-15.66-4.73-16.79-15.07.05-15.07-2.13-1.09-17.47-7.51-31.53-23.89-31.53-2.18,0,.08,8.27-5.46,8.73-4.27.37-4.27-7.55-9.58-6.82-4.06.56-1.25,8-5.7,9-4.72,1.06-6.53-6.94-11.65-6.94a4,4,0,0,0-4.27,3.6c-.28,2.5-1,7-5.83,4.53-8.14-4.14-9.46,11.51-8.69,21.5a88.31,88.31,0,0,0,4.46,20.74l-2.81-.38s-23.36-34.44-3.69-66.41c.26-.42.53-.85.82-1.28,10.23-14.86,26.46-24.77,44.15-25.32.72,0,1.45,0,2.19,0,13.26.67,27.49,4.81,37.37,14.31.4.38.78.76,1.17,1.17.76.79,1.49,1.62,2.2,2.48s1.37,1.76,2,2.7,1.23,1.91,1.79,2.91c.2.3.4.59.59.89S827.91,152.37,828.09,152.66Z"/><path class="b" d="M834.7,212.37c-.59,2.24-1.21,4.36-1.81,6.34C833.49,216.72,834.1,214.59,834.7,212.37Z"/><polygon class="b" points="828.23 232.38 828.38 232.49 828.23 232.38 828.23 232.38"/><path class="b" d="M798.47,247.29a33.15,33.15,0,0,1-6.52,5.05,18.65,18.65,0,0,1-7.23,2.55,36,36,0,0,1-12.83-.71,32.82,32.82,0,0,1-11.57-5.45l-.39-.3h0l-.83-.64c-.82-.66-1.61-1.35-2.37-2.06-.51-.48-1-1-1.49-1.47l-.72-.76c-.23-.25-.48-.52-.7-.78-.47-.53-.91-1.07-1.36-1.62-.22-.26-.43-.55-.65-.83s-.42-.56-.64-.85l-.61-.86c-.21-.29-.41-.58-.6-.87-.39-.58-.78-1.18-1.16-1.78l-.06-.1c-.34-.56-.68-1.12-1-1.7l0-.05c-.3-.51-.58-1-.86-1.55-.73-1.35-1.41-2.71-2-4.09-.3-.64-.58-1.28-.85-1.92-.54-1.27-1-2.54-1.52-3.81-.24-.67-.48-1.32-.7-2A88.31,88.31,0,0,1,737.28,200c-.77-10,.55-25.65,8.69-21.5,4.78,2.43,5.55-2,5.83-4.53a4,4,0,0,1,4.27-3.6c5.12,0,6.93,8,11.65,6.94,4.45-1,1.64-8.45,5.7-9,5.31-.72,5.31,7.2,9.58,6.82,5.54-.47,3.27-8.73,5.46-8.73,16.37,0,22.79,14.05,23.89,31.53,0,2.18,10.34-14.66,15.07,2.13,3.49,12.34-12.66,13.51-12.62,15.66C815,222.93,808,238.07,798.47,247.29ZM789,201.35a2.88,2.88,0,1,0-4,.53A2.87,2.87,0,0,0,789,201.35Zm-28.39,3.27a2.88,2.88,0,1,0-4,.53A2.86,2.86,0,0,0,760.59,204.62Z"/><path class="b" d="M826.94,150.88c.2.3.39.59.58.89-.19-.3-.39-.59-.59-.89-.56-1-1.17-2-1.79-2.91C825.78,148.9,826.38,149.88,826.94,150.88Z"/><path class="b" d="M823.14,145.27c.7.87,1.37,1.76,2,2.7C824.51,147,823.84,146.13,823.14,145.27Z"/><path class="b" d="M823.14,145.27c-.71-.86-1.44-1.68-2.2-2.48C821.7,143.57,822.44,144.4,823.14,145.27Z"/><path class="b" d="M820.94,142.79c-.38-.4-.76-.78-1.17-1.17C820.16,142,820.55,142.37,820.94,142.79Z"/><path class="e" d="M788.44,197.32a2.87,2.87,0,1,1-4,.53A2.87,2.87,0,0,1,788.44,197.32Z"/><circle class="b" cx="782.52" cy="275.07" r="5.01"/><circle class="b" cx="782.52" cy="294.32" r="5.01"/><path class="b" d="M771.89,254.18l-.37,1.88-6.69,13.78-19.22-2.46,13.18-16.71,1.53-1.93A32.82,32.82,0,0,0,771.89,254.18Z"/><path class="e" d="M760.05,200.59a2.87,2.87,0,1,1-4,.53A2.86,2.86,0,0,1,760.05,200.59Z"/><path class="b" d="M760.32,248.74l-1.53,1.93,1.13-2.23Z"/><path class="b" d="M716.61,288.7l-1.08,1Z"/><path class="b" d="M628.21,313.6a22.87,22.87,0,0,0,6.82-1.47c.57-.21,1.13-.45,1.68-.68a62.62,62.62,0,0,0,23.21-16.94l.39-.11c.81,1.78,1.45,2.9,1.45,2.9l.81-.58a31.68,31.68,0,0,1,12.47-5c1.08-.21,1.83-1.07,1.43-3.31l.65.89,30.21,8.56c-.23.24-.48.5-.7.75l0,0-12.53-3.47-30.37,37.28c-24,29.49-70.72,23.26-86.18-11.49l-5.9-13.28-.15-.33-.37-.83v0l.86-.33c1.24-.47,2.46-.91,3.7-1.34l1.89-.64,1.13-.36c1.14-.36,2.32-.71,3.55-1l2.53-.67c.88-.22,1.78-.45,2.71-.66l1.43-.33c1-.22,2-.43,3.05-.66a20,20,0,0,0,2.77,4.92c5.32-5.32,6.39-2.13,11.44,2.47.15.05.72-1.28,1.46-3.23C609.1,306.16,617.16,314.21,628.21,313.6Z"/><path class="b" d="M706.62,298.61l0,0q-5.55,6-10.47,12.53a167,167,0,0,0-28.62,59.5L646.76,487.31l-97.06-.07v-.58c5.4-69.38,5.51-87.8,8.42-152.83.18-4-.13-9.06,0-12.87a76.38,76.38,0,0,0-.24-8.71l13.79-4.59,5.9,13.28c15.46,34.75,62.15,41,86.18,11.49l30.37-37.28Z"/><path class="f" d="M687.55,181a11,11,0,0,1-2.45,2.42l-.43.34-.24.19-.43.34c-.33.26-.65.52-.94.81a.75.75,0,0,0-.14.13,5.84,5.84,0,0,0-2,5.51c0,.29,0,.59.08.89a1.44,1.44,0,0,0,.06.31,46.12,46.12,0,0,1,1.19,5.54s0,0,0,0c.22,1.45.42,3,.6,4.69.08.85.17,1.71.24,2.61,0,.58.1,1.18.14,1.78.11,1.53.19,3.12.25,4.75,0,.65.05,1.29.06,1.94.1,3.18.1,6.49,0,9.81,0,.5,0,1,0,1.48-.18,5-.56,10-1.2,14.56-.23,1.73-.51,3.4-.82,5-.2,1.07-.42,2.11-.67,3.1l-.32,1.35-.41,1.75q-.64,2.75-1.23,5.55c-.14.67-.29,1.34-.41,2a.9.9,0,0,0,0,.18c-.14.66-.26,1.31-.39,2a1.5,1.5,0,0,0,0,.21c-.21,1.09-.41,2.17-.6,3.25s-.37,2.15-.54,3.2c-.1.58-.19,1.17-.26,1.75-.05.34-.11.68-.15,1q-.29,2-.48,3.94l-.1.94c-.06.64-.12,1.25-.15,1.85s-.07,1.2-.1,1.78,0,1.14,0,1.7c0,.81,0,1.58,0,2.31,0,.13,0,.24,0,.36,0,.53.07,1,.13,1.52a17.46,17.46,0,0,0,.64,3.23c.06.2.12.4.16.58s.08.34.13.51l.06.33v0c.4,2.24-.35,3.09-1.43,3.31a31.68,31.68,0,0,0-12.47,5l-.81.58s-.65-1.12-1.45-2.9c-1.49-3.33-3.55-8.94-3.05-14a30.71,30.71,0,0,0,9.43-19.69c.78-10.61.19-30-23.55-35.44-11.87-2.72-2.92,7.47-4.25,9.3-12.24.67-40-30.12-40-30.12a7.76,7.76,0,0,0-1.53-1.27s-6.74,27.84-6.74,41.14c0,2.64,0,5.44.18,8.39l-1-.4h0c-.43-.3-.84-.6-1.23-.92a19.92,19.92,0,0,1-1.64-1.46c-.5-.5-1-1-1.4-1.55s-.82-1.07-1.18-1.62a19.33,19.33,0,0,1-2.35-5.17c-.12-.39-.21-.78-.31-1.18-2.2-9.43,1.95-19.1,1.95-19.1l-4.41-3.72s6.13-19.93,2.94-20.2-6.1-3.68-6.1-3.68l4.85-4.69.59-.58.46-.43.69-.67,1.85-1.8.74-.72,6-5.8.35-.34.67-.66s0,0,0,0L591,169.73h12.49l27.67-11.64s2.34,1.49,4.46,3.17l.42.34.91.74c9.46,6.45,20.76,8.33,31.64,11.7l2,.63C675.84,176.76,682.23,177.83,687.55,181Z"/><path class="b" d="M629.54,159a42.85,42.85,0,0,0,3.94,2.25l-12.12,9-21.39,9h0s0,.09,0,.11-.35.38-.67.69c-.11.11-.22.24-.35.36l-6,5.81-.74.72-1.85,1.8-.69.67-.46.44-.59.58c-2.72,2.63,1.64,8.7,1.9,9.17a9,9,0,0,1,.82,6.79c-2.17,8.09-7.41,33.11-.16,45.8.24.41-.21,1.89-.21,1.89-.43,0-9.11-5.53-9.51-5.84a19.63,19.63,0,0,1-1.64-1.43c-.5-.5-1-1-1.4-1.53s-.82-1.06-1.18-1.61a19.31,19.31,0,0,1-2.35-5.17c-.12-.39-.21-.78-.31-1.17-2.2-9.43,1.95-19.1,1.95-19.1l-4.41-3.72s6.13-19.93,2.94-20.2-6.1-3.68-6.1-3.68l4.85-4.69.59-.58.46-.43.69-.67,1.85-1.8.74-.72,6-5.8.35-.34.67-.66,0,0-1.59-8.44h12.49l27.67-11.63s2.34,1.5,4.46,3.17l.42.34Z"/><path class="b" d="M684.43,183.65l.43-.34Z"/><path class="b" d="M683.75,184.18l.43-.34Z"/><path class="b" d="M683.22,211.2q0,1,.06,1.94C683.28,212.49,683.25,211.85,683.22,211.2Z"/><path class="b" d="M682.83,204.67c.05.58.1,1.18.14,1.78C682.93,205.85,682.87,205.26,682.83,204.67Z"/><path class="b" d="M682.81,185l-.14.13A.75.75,0,0,1,682.81,185Z"/><path class="b" d="M682,197.37c.23,1.45.43,3,.6,4.69C682.41,200.39,682.21,198.82,682,197.37Z"/><path class="b" d="M680.81,191.82a43.91,43.91,0,0,1,1.18,5.54,46.12,46.12,0,0,0-1.19-5.54,1.44,1.44,0,0,1-.06-.31A2.61,2.61,0,0,0,680.81,191.82Z"/><path class="b" d="M680.58,247.12c.24-1,.47-2,.67-3.1C681,245.07,680.82,246.11,680.58,247.12Z"/><path class="b" d="M680.65,190.62c0,.29,0,.59.08.89C680.68,191.22,680.68,190.91,680.65,190.62Z"/><path class="b" d="M678.61,255.76l-.41,2C678.33,257.1,678.48,256.43,678.61,255.76Z"/><path class="b" d="M678.16,258c-.13.66-.26,1.31-.39,2C677.89,259.27,678,258.61,678.16,258Z"/><path class="b" d="M677.72,260.14c-.21,1.09-.41,2.17-.6,3.25C677.31,262.31,677.51,261.23,677.72,260.14Z"/><path class="b" d="M676.58,266.59c-.1.59-.18,1.17-.26,1.75C676.39,267.76,676.48,267.18,676.58,266.59Z"/><path class="b" d="M676.28,287.56c0-.18-.1-.38-.16-.58C676.19,287.18,676.24,287.38,676.28,287.56Z"/><path class="b" d="M676.17,269.35q-.27,2-.48,3.94Q675.88,271.37,676.17,269.35Z"/><path class="b" d="M675.59,274.23c-.05.64-.11,1.25-.15,1.85C675.48,275.48,675.53,274.87,675.59,274.23Z"/><path class="b" d="M675.36,282.23c0,.52.07,1,.13,1.52C675.44,283.26,675.39,282.76,675.36,282.23Z"/><path class="b" d="M675.45,276.09c0,.6-.07,1.2-.1,1.78Q675.38,277,675.45,276.09Z"/><path class="b" d="M675.31,279.56c0,.81,0,1.58,0,2.31C675.31,281.14,675.3,280.37,675.31,279.56Z"/><path class="b" d="M618.13,293.88a31.74,31.74,0,0,1-5.25-3.47m0,0a76,76,0,0,1-7.5-7.07,66.76,66.76,0,0,1-6-7.27c-.4-.55-.78-1.11-1.13-1.65-.18-.26-.35-.53-.51-.78-.86-1.35-1.6-2.66-2.26-4-.26-.52-.51-1-.74-1.54-.4-.85-.75-1.68-1.07-2.51-.12-.3-.22-.59-.33-.88s-.2-.55-.29-.82a3.49,3.49,0,0,1-.13-.4c-.15-.42-.28-.85-.39-1.26s-.19-.66-.28-1-.12-.43-.17-.66c-.21-.88-.4-1.74-.55-2.59-.08-.46-.16-.91-.22-1.36,0-.29-.08-.56-.12-.84-.08-.6-.15-1.21-.21-1.8,0-.43-.07-.87-.11-1.29-.2-3-.18-5.75-.18-8.39,0-13.3,6.74-41.14,6.74-41.14a7.76,7.76,0,0,1,1.53,1.27s27.73,30.78,40,30.12c1.32-1.83-7.62-12,4.25-9.3,23.74,5.44,24.33,24.83,23.55,35.44a30.71,30.71,0,0,1-9.43,19.69,42.76,42.76,0,0,1-5.25,4.44c-15.79,11.41-25.09,13.53-33.9,9M641.65,246a2.8,2.8,0,1,0-3.93.52A2.78,2.78,0,0,0,641.65,246Zm-25.1-.19a2.81,2.81,0,1,0-3.93.53A2.8,2.8,0,0,0,616.55,245.82Z"/><path class="b" d="M636.72,311.45c-.55.23-1.11.47-1.68.68a22.87,22.87,0,0,1-6.82,1.47c-11.05.6-19.12-7.44-20.56-9,.58-1.5,1.26-3.37,1.92-5.24,1.54-4.28,3-8.59,3-8.59l.31-.37c10.62,8.47,20.22,8.15,39.15-5.53a42.76,42.76,0,0,0,5.25-4.44c-.5,5,1.56,10.63,3.05,14l-.39.11A62.62,62.62,0,0,1,636.72,311.45Z"/><path class="e" d="M641.12,242.09a2.8,2.8,0,1,1-3.92.51A2.78,2.78,0,0,1,641.12,242.09Z"/><path class="e" d="M616,241.9a2.8,2.8,0,1,1-3.93.52A2.8,2.8,0,0,1,616,241.9Z"/><path class="f" d="M607.66,304.62c-.74,1.95-1.31,3.29-1.46,3.23-5.05-4.6-6.13-7.79-11.44-2.47a20,20,0,0,1-2.77-4.92c-.12-.3-.22-.6-.33-.91s-.19-.59-.28-.9c0,0,0-.05,0-.08-.07-.29-.15-.57-.21-.86s-.13-.63-.18-.94-.1-.63-.14-.94-.05-.42-.07-.65,0-.34,0-.51,0-.55,0-.83,0-.68,0-1,0-.67,0-1a64.61,64.61,0,0,1,1.18-6.94c.89-4.08,2-7.91,2.81-10.33l.23-.72a3,3,0,0,1,.11-.33c.35-1,.56-1.63.56-1.63l3.79,4.22a66.76,66.76,0,0,0,6,7.27,76,76,0,0,0,7.5,7.07l-.31.37s-1.46,4.31-3,8.59C608.92,301.25,608.24,303.11,607.66,304.62Z"/><path class="b" d="M593,263.94c.08.26.18.54.29.82Z"/><path class="b" d="M590.76,169.6l1.59,8.44s0,0,0,0l-1.64-8.48Z"/><path class="b" d="M592.06,260.64c.05.22.11.43.17.66C592.16,261.07,592.11,260.85,592.06,260.64Z"/><path class="b" d="M591.17,255.86c-.08-.6-.16-1.21-.21-1.8C591,254.65,591.08,255.25,591.17,255.86Z"/><path class="b" d="M590.71,294.67c0,.17,0,.34,0,.51C590.74,295,590.72,294.83,590.71,294.67Z"/><path class="b" d="M581,189.07l.59-.58Z"/><path class="b" d="M572,306.15h0l-.86.33-.11-.22Z"/><path class="b" d="M571.13,306.5l.37.83-13.66,4.58C563.13,309.72,567.25,308,571.13,306.5Z"/><path class="b" d="M571.13,306.48v0Z"/><path class="b" d="M571,306.26l.11.22h0l-.1-.18h0Z"/><path class="d" d="M507.7,487.2l-74.28-.07,3.75-115.76c1.68-33.79-13.39-66-39.49-84.4l-.18-.12a15.52,15.52,0,0,0-.94-21.59l-2.66-2.41,0-.08,47-5.53,12.75-1.5,0,.49c.68,11.36,6.9,101.62,3.86,141.58-.43,5.73,7,7.47,8.76,2.06l40.15-140.23c6.5,3,15.85,7.24,19.52,9.16,4.61,2.42,9.3,5.08,11.14,6.13a.08.08,0,0,1,.06,0c.25.16.5.33.74.5.46.32.92.64,1.35,1s.93.69,1.36,1,.84.67,1.24,1l1.07,1c.25.22.49.45.73.69s.53.5.79.76.64.65,1,1l.2.23c.33.35.65.71,1,1.07s.68.81,1,1.22q.91,1.13,1.73,2.32c.19.25.36.51.53.77s.46.69.68,1,.29.47.43.71l.31.53c.21.38.43.76.63,1.14s.49.92.71,1.38.45.93.65,1.41.42.94.61,1.42.39,1,.57,1.45.35,1,.52,1.46.29.89.43,1.34.33,1.1.48,1.66.24.92.36,1.39c.16.68.31,1.37.45,2.06.09.39.17.79.23,1.2s.17,1,.24,1.45c0,.23.08.47.11.71.07.43.13.87.18,1.31.12.92.21,1.84.29,2.78,0,0,0,0,0,0s0,.22,0,.34h0a83,83,0,0,1,.22,8.71c-.1,3.8.19,8.82,0,12.87-2.68,65-2.78,83.45-7.75,152.83v.58Z"/><path class="b" d="M557.2,307.1c-.08-.49-.17-1-.26-1.45C557,306.12,557.12,306.61,557.2,307.1Z"/><path class="b" d="M556.94,305.64c-.07-.4-.16-.81-.25-1.2C556.78,304.84,556.86,305.24,556.94,305.64Z"/><path class="b" d="M556.2,302.39c-.13-.47-.25-.93-.39-1.39C555.94,301.46,556.07,301.92,556.2,302.39Z"/><path class="b" d="M555.28,299.34c-.15-.45-.3-.89-.47-1.34C555,298.45,555.14,298.89,555.28,299.34Z"/><path class="b" d="M554.82,298c-.18-.49-.36-1-.56-1.46C554.46,297,554.65,297.52,554.82,298Z"/><path class="b" d="M554.26,296.54c-.19-.49-.4-1-.61-1.45C553.85,295.57,554.07,296.05,554.26,296.54Z"/><path class="b" d="M553.64,295.09c-.21-.48-.43-1-.67-1.42C553.21,294.14,553.43,294.61,553.64,295.09Z"/><path class="b" d="M551.49,290.88c.26.46.52.91.77,1.38C552,291.8,551.76,291.34,551.49,290.88Z"/><path class="b" d="M551.49,290.88c-.22-.38-.46-.76-.69-1.14C551,290.12,551.27,290.5,551.49,290.88Z"/><path class="b" d="M550.46,289.21c-.15-.24-.31-.48-.47-.71C550.16,288.73,550.31,289,550.46,289.21Z"/><path class="b" d="M546.81,284.35c-.36-.41-.72-.82-1.1-1.22C546.09,283.54,546.45,283.94,546.81,284.35Z"/><path class="b" d="M545.7,283.14c-.34-.36-.69-.72-1-1.07C545,282.41,545.37,282.78,545.7,283.14Z"/><path class="b" d="M544.43,281.83c-.34-.33-.69-.66-1-1C543.75,281.17,544.09,281.5,544.43,281.83Z"/><path class="b" d="M540.58,278.45c-.43-.34-.89-.68-1.35-1C539.69,277.77,540.14,278.11,540.58,278.45Z"/><path class="b" d="M539.23,277.44c-.48-.36-1-.71-1.48-1C538.25,276.73,538.75,277.08,539.23,277.44Z"/><path class="b" d="M537.75,276.4c-.48-.33-1-.65-1.47-1C536.78,275.75,537.27,276.07,537.75,276.4Z"/><path class="b" d="M535.4,274.9c-2-1-7.1-3.71-12.11-6.13-4-1.92-14.16-6.2-21.23-9.16l-2.12-.88a6.74,6.74,0,0,1-3.7-8.67.08.08,0,0,0,0,0l0,0,39.92,25.32-.22-.12-.16-.08-.35-.18A.09.09,0,0,0,535.4,274.9Z"/><path class="c" d="M526.34,213.34c3.57-3.35,6-9.57,4.94-13.14-1.26-3.77-4.56-7-8.5-4.49l-.65.43c-7.74,5.1-6.87-38.52-46-38.48-22.21,0-31.09,24.9-31.09,33.9,0,11.86-4.41,27.19,3.93,44.16L448.86,248c7,4.52,4.45,7.33,1.07,7.71l-.49.05-13.86,1.5-.05-.51s-.69-4.23-1.7-11.83c-.07-.59-.16-1.21-.24-1.84,0-.38-.1-.77-.15-1.18-.07-.59-.16-1.21-.23-1.83s-.14-1.13-.22-1.73c-.2-1.7-.42-3.5-.65-5.4-.06-.56-.14-1.12-.2-1.71-.5-4.32-1-9.13-1.55-14.36-.1-.91-.19-1.83-.28-2.78-.05-.47-.1-.94-.14-1.41s-.1-1-.14-1.44c-.28-2.88-.55-5.88-.82-9-2.72-31.69,14.63-92.37,76.94-76,38.07,10,57.13,90.5,11.11,117.14a41,41,0,0,1-5,2.26l-.63.24c-.41.17-.84.33-1.25.48l-1.23.46-2.63.94-1,.36c-2,.7-3.62,1.23-4.09,1.38l-.14,0,2.16-7.34q1.76-1.27,3.63-2.73c9.38-7.27,13-13.83,14.58-21.24C522.16,215.69,524.47,215.09,526.34,213.34Z"/><path class="b" d="M451.29,236.84c-15.43-18.08-11-33.41-11-45.27,0-9,8.88-33.87,31.09-33.9,39.09,0,38.22,43.58,46,38.48l.65-.43c3.94-2.52,7.24.72,8.5,4.49,1.08,3.57-1.37,9.79-4.94,13.14-1.87,1.75-4.18,2.35-4.71,4.85-1.56,7.41-5.2,14-14.58,21.24M452,237.65l-.71-.82m51,2.6q-1.88,1.46-3.63,2.73M489.36,203a3,3,0,1,0-4.23-.57A3,3,0,0,0,489.36,203Zm-27,.2a3,3,0,1,0-4.23-.57A3,3,0,0,0,462.32,203.16Z"/><path class="b" d="M502.07,259.62,458.42,399.85c-1.93,5.42-10,3.68-9.53-2.06,3.31-40-3.45-130.22-4.2-141.58l-.05-.49.49-.05a6.74,6.74,0,0,0,6-6.59l.15-12.25.71.82c14.57,16.48,24.23,20.78,46.61,4.51l-2.16,7.34.14,0-.31.53,0,0a.08.08,0,0,1,0,0,6.74,6.74,0,0,0,3.7,8.67Z"/><path class="e" d="M489.92,198.72a3,3,0,1,1-4.22-.55A3,3,0,0,1,489.92,198.72Z"/><path class="e" d="M462.88,198.92a3,3,0,1,1-4.22-.55A3,3,0,0,1,462.88,198.92Z"/><path class="b" d="M428.64,241.88c.05.4.11.79.15,1.18C428.73,242.68,428.68,242.28,428.64,241.88Z"/><path class="b" d="M428.18,238.32c.08.59.15,1.17.22,1.73C428.33,239.49,428.26,238.91,428.18,238.32Z"/><path class="b" d="M427.54,232.92c-.06-.56-.14-1.12-.2-1.71C427.4,231.79,427.47,232.35,427.54,232.92Z"/><path class="b" d="M381.15,487.09,223.84,487s-1.5-17-3.63-40.57c-.11-1.12-.2-2.27-.31-3.41-.16-1.73-.32-3.5-.48-5.28-.11-1.2-.21-2.39-.33-3.61-.82-9.1-1.71-18.84-2.61-28.72q-.27-3-.48-5.82c-.4-5.66-.59-10.87-.61-15.65q0-4.51.16-8.54v0c.12-2.45.26-4.76.47-7s.45-4.28.72-6.23c.14-1,.29-1.93.45-2.85s.28-1.58.42-2.33c.28-1.41.57-2.76.88-4,.19-.78.39-1.54.59-2.26.53-1.9,1.09-3.62,1.66-5.19.11-.26.2-.53.31-.78a40.15,40.15,0,0,1,4.42-8.51l.57-.79.41-.52c.29-.36.57-.7.84-1l.28-.3.26-.28c.1-.1.17-.18.25-.25a9.75,9.75,0,0,1,2.06-1.65L239,344.08a4.34,4.34,0,0,0,7.86-2.09,2.49,2.49,0,0,0,0-.29h.43c1.4,2,4.92,4.61,8.09,2.85a3.79,3.79,0,0,0,1.74-3.07A4.53,4.53,0,0,0,257,340l.53-.14a4.33,4.33,0,0,0,7.68-3.74,4.32,4.32,0,0,0,7.17-1.32,1.41,1.41,0,0,0,.11-.74l14.8,60,96.19-107.21.19.12a94.54,94.54,0,0,1,42.94,84.4l-4.08,115.76v.36l-.07-.36Zm-27.37-40.2v-1.42a3.53,3.53,0,0,0-3.53-3.53h-3.54a3.53,3.53,0,0,0-3.53,3.53v1.42a3.53,3.53,0,0,0,3.53,3.53h3.54A3.53,3.53,0,0,0,353.78,446.89Z"/><path class="b" d="M425.51,214.07c.08.94.18,1.87.28,2.78C425.69,215.94,425.6,215,425.51,214.07Z"/><path class="b" d="M425.24,211.22c0,.49.08,1,.14,1.44C425.32,212.19,425.28,211.71,425.24,211.22Z"/><path class="b" d="M382.47,265.26a14.65,14.65,0,0,1,1,21.59L287.29,394.06s3.05-20.06,4-42.23c13-44.62,35.19-68.67,47.83-79.37a99.25,99.25,0,0,0,12.42-9.18,43.45,43.45,0,0,0,9.43-11h2.68l1.06-1.89v.08h0l14.88,12.41Z"/><path class="d" d="M376.33,154.86c4.26,7.7,4.64,20.54,3.94,31.57-.24,4.18-.69,8.09-1.14,11.37-.67,5.13-1.4,8.72-1.53,9.34-4.48-2.89-7.27,3.31-7.27,3.31-.58-.2-1.6-2.19-2.8-5.09-.15-.36-.31-.73-.46-1.12-3.74-6-9.56-17.67-15-9.65-.33.36-.68.72-1,1.06a10.77,10.77,0,0,1-6.66,3.12c-10.82.79-12.15-9.37-25.67-8.57-7,.41-12.31,6.45-16.56,11.58a37.65,37.65,0,0,0-7.79,32.29,63.16,63.16,0,0,0,7.15,18.46h0a62.65,62.65,0,0,1-7.23-18.47c-.22-1-.5-2-.64-3l-.22,0c-.88-1.6-19.39-35.63-12.2-53.17a15.6,15.6,0,0,1,3.07-4.81c.26-.29.54-.55.84-.82a0,0,0,0,1,0,0A15.26,15.26,0,0,1,287,170.9a2.38,2.38,0,0,0,.45-.38,3.53,3.53,0,0,0,.4-.52,16.65,16.65,0,0,0,1.66-4c.18-.56.37-1.17.56-1.8.14-.43.28-.89.41-1.36.54-1.79,1.16-3.76,1.92-5.8.08-.25.19-.51.29-.76.38-1,.79-2,1.25-3,.14-.3.29-.59.43-.89s.25-.52.39-.77a34,34,0,0,1,3.34-5.26l.55-.67c.38-.47.79-.91,1.22-1.36.21-.22.42-.45.65-.66l.69-.64c.22-.21.47-.42.71-.63.52-.43,1.07-.85,1.64-1.26l.67-.45c.3-.19.59-.38.91-.56l.82-.47c.37-.19.75-.39,1.14-.57l.71-.33c.41-.18.84-.36,1.28-.52l.72-.26,1.06-.34,1.09-.31,1.42-.33.9-.17,1.07-.18c.55-.07,1.11-.14,1.7-.19.34,0,.69-.06,1-.08l1.34-.07h.13l1,0q.91,0,1.88,0c.22,0,.46,0,.69,0s.73,0,1.1.06c1,.07,2.13.18,3.24.34a5.67,5.67,0,0,1,.59.07c.87.12,1.75.25,2.66.42l1.26.24c12.32,4.66,30.18,1.54,39.7,10.79.31.3.6.6.89.93s.63.77.94,1.19A37.23,37.23,0,0,1,376.33,154.86Z"/><path class="b" d="M339.08,272.45c-14.27,8.63-22.72,5.38-33-5.87-1.45-1.59-2.94-3.34-4.48-5.24a48.61,48.61,0,0,1-4-5.76,63.16,63.16,0,0,1-7.15-18.46,37.65,37.65,0,0,1,7.79-32.29c4.25-5.13,9.54-11.17,16.56-11.58,13.51-.79,14.85,9.37,25.67,8.57a10.77,10.77,0,0,0,6.66-3.12c.37-.34.72-.7,1-1.06,5.46-8,11.28,3.61,15,9.65.15.39.31.76.46,1.12,1.2,2.89,2.21,4.89,2.8,5.09,0,0,2.79-6.2,7.27-3.31a.43.43,0,0,0,0,.07,7.73,7.73,0,0,1,.83.77c5.1,4.75,2.6,16.19-8,21.95h0a37.32,37.32,0,0,1-5.67,19.24h.11a43.45,43.45,0,0,1-9.43,11A99.25,99.25,0,0,1,339.08,272.45Zm3.74-50.81a3.06,3.06,0,1,0-4.3-.57A3.07,3.07,0,0,0,342.82,221.64Zm-26,.21a3.06,3.06,0,1,0-4.3-.58A3.08,3.08,0,0,0,316.86,221.85Z"/><rect class="b" x="343.18" y="441.95" width="10.6" height="8.48" rx="3.53" ry="3.53"/><path class="e" d="M343.39,217.35a3.07,3.07,0,1,1-4.29-.56A3.07,3.07,0,0,1,343.39,217.35Z"/><path class="b" d="M339.08,272.45c-12.63,10.7-34.79,34.75-47.83,79.37.32-7.81.37-15.9-.06-23.44-2.23-38.55,14.2-61,14.2-61l.7-.79C316.36,277.84,324.81,281.08,339.08,272.45Z"/><path class="b" d="M324.16,140a5.67,5.67,0,0,0-.59-.07C323.76,139.89,324,139.92,324.16,140Z"/><path class="b" d="M319.22,139.48c-.23,0-.47,0-.69,0Z"/><path class="e" d="M317.43,217.55a3.07,3.07,0,1,1-4.29-.56A3.08,3.08,0,0,1,317.43,217.55Z"/><path class="b" d="M316.66,139.42l-1,0,.85,0Z"/><path class="b" d="M315.51,139.44l-1.34.07C314.61,139.47,315.06,139.45,315.51,139.44Z"/><path class="b" d="M314.18,139.51c-.35,0-.7,0-1,.08C313.48,139.55,313.83,139.52,314.18,139.51Z"/><path class="b" d="M311.44,139.79l-1.07.18C310.72,139.89,311.08,139.84,311.44,139.79Z"/><path class="b" d="M310.37,140l-.9.17C309.77,140.07,310.07,140,310.37,140Z"/><path class="b" d="M308.05,140.47l-1.09.31C307.32,140.66,307.68,140.56,308.05,140.47Z"/><path class="b" d="M307,140.77l-1.06.34C306.24,141,306.6,140.88,307,140.77Z"/><path class="b" d="M306.09,266.58l-.7.79s-16.43,22.46-14.2,61c.43,7.55.38,15.63.06,23.44-.91,22.17-4,42.23-4,42.23l-14.8-60a6.86,6.86,0,0,0-.34-1.4,2.09,2.09,0,0,1-.07-.28l-1.45-5.88-6.64-27a19.38,19.38,0,0,1-.89-3.4h0c-.12-.74-.19-1.47-.23-2.21v-.05a19.26,19.26,0,0,1,.68-5.83c.19-.66.4-1.3.66-1.94a18.73,18.73,0,0,1,1.94-3.63,18,18,0,0,1,2-2.43,18.42,18.42,0,0,1,1.56-1.45l26.51-22-.81,2.5,2.48-3c-.11-.17-.21-.34-.31-.52h0a48.61,48.61,0,0,0,4,5.76C303.16,263.24,304.64,265,306.09,266.58Z"/><path class="b" d="M305.9,141.11l-.72.26C305.41,141.28,305.66,141.19,305.9,141.11Z"/><path class="b" d="M303.9,141.9l-.71.33A6.13,6.13,0,0,1,303.9,141.9Z"/><path class="b" d="M302,142.8l-.82.47C301.49,143.09,301.77,142.94,302,142.8Z"/><path class="b" d="M300.32,143.82l-.67.45Z"/><path class="b" d="M298,145.53c-.24.2-.49.41-.71.63C297.52,145.93,297.76,145.73,298,145.53Z"/><path class="b" d="M296.61,146.79c-.22.21-.43.43-.65.66C296.16,147.23,296.38,147,296.61,146.79Z"/><polygon class="b" points="296.19 256.57 296.19 256.58 269.68 278.56 296.19 256.57"/><path class="b" d="M294.74,148.81l-.55.67Z"/><path class="b" d="M290.85,154.73c-.14.25-.26.51-.39.77C290.58,155.24,290.71,155,290.85,154.73Z"/><path class="b" d="M289.47,234.21l-.18,0c-.65-1.2-19.3-35.54-12-53.2C270.08,198.58,288.6,232.61,289.47,234.21Z"/><path class="b" d="M289.32,234.27h-.18l.16,0Z"/><path class="b" d="M290,156.39c-.46,1-.87,2-1.25,3C289.16,158.37,289.57,157.38,290,156.39Z"/><path class="b" d="M288.49,160.12c-.76,2-1.38,4-1.92,5.8C287.11,164.13,287.73,162.16,288.49,160.12Z"/><path class="b" d="M285.6,169.08c.18-.57.36-1.18.56-1.8C286,167.91,285.78,168.52,285.6,169.08Z"/><path class="b" d="M283.93,173.06a3.53,3.53,0,0,1-.4.52A4.19,4.19,0,0,0,283.93,173.06Z"/><path class="b" d="M270.62,326.49l1.45,5.88a2.09,2.09,0,0,0,.07.28l.34,1.4a1.41,1.41,0,0,1-.11.74,4.32,4.32,0,0,1-7.17,1.32,4.32,4.32,0,0,1-7.68,3.74L257,340a4.53,4.53,0,0,1,.13,1.5,3.79,3.79,0,0,1-1.74,3.07c-3.17,1.76-6.69-.86-8.09-2.85h-.43a2.49,2.49,0,0,1,0,.29,4.34,4.34,0,0,1-7.86,2.09l-8.85-12.67a0,0,0,0,0,0,0,12,12,0,0,1,.65-14.77l2.92-3.34c4.55-5.17,10.43-10.81,17-12.85L261.87,297l1.22-.84a19.38,19.38,0,0,0,.89,3.4Z"/><path class="b" d="M272.49,334l-.34-1.4A6.86,6.86,0,0,1,272.49,334Z"/><path class="b" d="M268.12,280a18,18,0,0,0-2,2.43A17.24,17.24,0,0,1,268.12,280Z"/><path class="b" d="M230.13,331.4a0,0,0,0,1,0,0,9.75,9.75,0,0,0-2.06,1.65A10.14,10.14,0,0,1,230.13,331.4Z"/><path class="b" d="M228.09,333.06c-.08.07-.16.16-.25.25A1.92,1.92,0,0,1,228.09,333.06Z"/><path class="b" d="M227.83,333.31l-.26.28A3.31,3.31,0,0,1,227.83,333.31Z"/><path class="b" d="M227.29,333.89c-.26.3-.55.64-.84,1C226.74,334.51,227,334.18,227.29,333.89Z"/><path class="b" d="M226,335.4l-.57.79Q225.75,335.78,226,335.4Z"/><path class="b" d="M221,344.71c-.11.25-.2.52-.31.78C220.85,345.22,220.94,345,221,344.71Z"/><path class="b" d="M787.25,127.72c-15.76,2-30,11.45-39.26,24.92-.29.43-.55.86-.82,1.28a52.66,52.66,0,0,0-7.86,27.18c-2.18,4.51-2.5,12.76-2,18.87a88.31,88.31,0,0,0,4.46,20.74l-2.81-.38s-23.36-34.44-3.69-66.41c.26-.42.53-.85.82-1.28,10.23-14.86,26.46-24.77,44.15-25.32.72,0,1.45,0,2.19,0C784,127.4,785.62,127.53,787.25,127.72Z"/><path class="b" d="M663,487.31l21-116.65a167.17,167.17,0,0,1,28.72-59.5c3.29-4.34,6.81-8.52,10.51-12.53.22-.25.5-.51.73-.75l.08-.07c.67-.72,1.36-1.43,2-2.14,2-2,4-4,6.08-6l1.08-1,.45-.41c1.14-1,2.31-2.08,3.5-3.08.77-.67,1.55-1.32,2.34-2l.43-.36,1.94-1.57,2.26-1.78q3.78-2.91,7.76-5.62c.71-.49,1.42-1,2.14-1.44,1-.64,1.92-1.25,2.89-1.87.76-.49,1.54-1,2.32-1.44l0,0-13.63-1.74c-1,.58-2,1.17-3,1.77-.78.48-1.56,1-2.32,1.44-1,.61-1.94,1.23-2.89,1.87-.72.47-1.43,1-2.14,1.44q-4,2.7-7.76,5.62l-2.26,1.78-1.94,1.57-.43.36c-.79.66-1.57,1.31-2.34,2-1.19,1-2.35,2-3.5,3.08l-.45.41-1.08,1c-2.08,1.94-4.11,3.93-6.08,6-.68.71-1.36,1.42-2,2.14a.49.49,0,0,0-.07.07c-.23.24-.48.5-.7.75q-5.55,6-10.47,12.53a167,167,0,0,0-28.62,59.5L646.4,487.31l212.6.17h0Z"/><path class="b" d="M322.81,139.79l-1,.18-.9.17-1.42.33-1.09.31-1.06.34-.72.26c-.45.16-.87.34-1.28.52l-.71.33c-.39.18-.77.38-1.14.57l-.82.47c-.32.18-.61.37-.91.56l-.67.45c-.57.41-1.12.83-1.64,1.26-.24.2-.49.41-.71.63l-.69.64c-.22.21-.43.43-.65.66-.42.45-.84.89-1.22,1.36l-.55.67a34,34,0,0,0-3.34,5.26c-.14.25-.26.51-.39.77s-.3.59-.43.89c-.46,1-.87,2-1.25,3-.1.25-.2.51-.29.76-.76,2-1.38,4-1.92,5.8-.14.47-.28.92-.41,1.36-.19.64-.38,1.24-.56,1.8a16.66,16.66,0,0,1-1.66,4,3.53,3.53,0,0,1-.4.52,2.38,2.38,0,0,1-.44.38,15.27,15.27,0,0,0-1.89,1.44,0,0,0,0,0,0,0c-.3.26-.57.53-.84.82a15.6,15.6,0,0,0-3.07,4.81c-3.74,9.12-.53,22.72,3.55,33.89a37.39,37.39,0,0,0-1.79,22.19,63.16,63.16,0,0,0,7.15,18.46h0a62.65,62.65,0,0,1-7.23-18.47c-.22-1-.5-2-.64-3l-.22,0c-.88-1.6-19.39-35.63-12.2-53.17a15.6,15.6,0,0,1,3.07-4.81c.26-.29.54-.55.84-.82a0,0,0,0,1,0,0,15.27,15.27,0,0,1,1.89-1.44,2.38,2.38,0,0,0,.44-.38,3.53,3.53,0,0,0,.4-.52,16.66,16.66,0,0,0,1.66-4c.18-.56.37-1.17.56-1.8.14-.43.28-.89.41-1.36.54-1.79,1.16-3.76,1.92-5.8.08-.25.19-.51.29-.76.38-1,.79-2,1.25-3,.14-.3.29-.59.43-.89s.25-.52.39-.77a34,34,0,0,1,3.34-5.26l.55-.67c.38-.47.79-.91,1.22-1.36.21-.22.42-.45.65-.66l.69-.64c.22-.21.47-.42.71-.63.52-.43,1.07-.85,1.64-1.26l.67-.45c.3-.19.59-.38.91-.56l.82-.47c.37-.19.75-.39,1.14-.57l.71-.33c.41-.18.84-.36,1.28-.52l.72-.26,1.06-.34,1.09-.31,1.42-.33.9-.17,1.07-.18c.55-.07,1.11-.14,1.7-.19.34,0,.69.22,1,.2s.88.21,1.34.21h.13c.33,0,.67-.3,1-.3.6,0,1.23-.13,1.88-.11.22,0,.46-.06.69,0s.73,0,1.1,0C321.14,139.63,322,139.68,322.81,139.79Z"/><path class="g" d="M296.21,256.56l-26.52,22a18.89,18.89,0,0,0-5.71,21l18.56,72"/><path class="g" d="M364.69,250.44l17.78,14.82a14.65,14.65,0,0,1,1,21.58L322,363.23"/><path class="h" d="M335.87,274.23s-25.6,12.53-44.62,77.6"/><path class="i" d="M343.39,217.35a3.06,3.06,0,1,1-4.29-.56A3.07,3.07,0,0,1,343.39,217.35Z"/><path class="i" d="M317.43,217.55a3.06,3.06,0,1,1-4.29-.56A3.07,3.07,0,0,1,317.43,217.55Z"/><line class="g" x1="327.16" y1="229.77" x2="326.13" y2="236.67"/><path class="i" d="M489.92,198.72a3,3,0,1,1-4.23-.55A3,3,0,0,1,489.92,198.72Z"/><path class="i" d="M462.88,198.92a3,3,0,1,1-4.23-.55A3,3,0,0,1,462.88,198.92Z"/><line class="g" x1="472.95" y1="210.95" x2="471.36" y2="221.57"/><line class="g" x1="475" y1="232.5" x2="477" y2="232.5"/><line class="g" x1="322" y1="254.5" x2="324" y2="254.5"/><path class="i" d="M612.09,242.42a2.8,2.8,0,1,0,3.92-.52A2.8,2.8,0,0,0,612.09,242.42Z"/><path class="i" d="M637.2,242.6a2.8,2.8,0,1,0,3.92-.52A2.8,2.8,0,0,0,637.2,242.6Z"/><line class="g" x1="627.85" y1="253.78" x2="628.53" y2="258.31"/><line class="g" x1="635" y1="271.5" x2="629" y2="271.5"/><path class="i" d="M756,201.12a2.88,2.88,0,1,0,4-.53A2.88,2.88,0,0,0,756,201.12Z"/><path class="i" d="M784.41,197.85a2.88,2.88,0,1,0,4-.53A2.88,2.88,0,0,0,784.41,197.85Z"/><line class="g" x1="774.68" y1="214.7" x2="775.36" y2="219.25"/><line class="g" x1="784" y1="232.5" x2="776" y2="232.5"/><path class="g" d="M375,211.06c-5.1-4.75-8.45,2.46-8.45,2.46-.58-.2-1.66-2.2-2.86-5.09-.15-.36-.33-.74-.49-1.12-3.74-6-9.57-17.67-15-9.65-.34.36-.69.72-1.06,1.06a10.8,10.8,0,0,1-6.66,3.11c-10.82.79-12.15-9.36-25.67-8.57-7,.41-12.31,6.45-16.56,11.58a37.66,37.66,0,0,0-7.8,32.29c1.83,8.08,5.17,16.82,11.19,24.22,15.31,18.82,25.17,23,50.13,1.93C362.54,254.18,365.5,243,367.5,233h0C377.5,227.24,380.1,215.81,375,211.06Z"/><path class="g" d="M282.53,220.33s-19.4-33.5.55-46.37c5.39-3.48,3.13-41,43.74-33.58l1.26.24c12.73,4.81,31.34,1.32,40.6,11.72.31.37.63.77.95,1.2a37,37,0,0,1,2.82,4.39c8.63,15.63,1.36,52.37,1.36,52.37"/><path class="g" d="M499,241.57c.18-.14,3-2,3.2-2.14,9.38-7.27,13-13.82,14.58-21.24.53-2.5,2.84-3.11,4.7-4.86,3.57-3.35,6-9.56,4.94-13.14-1.27-3.76-4.56-7-8.51-4.48l-.64.43c-7.74,5.1-6.88-38.51-46-38.47-22.2,0-31.09,24.9-31.09,33.9,0,12-4.55,27.66,11.73,46.09"/><path class="g" d="M462.5,243.36c7.23,7.41,13.78,9,24.1,2.48"/><path class="g" d="M444.69,256.22c.74,11.36,7.5,101.61,4.2,141.57-.47,5.73,7.59,7.47,9.53,2.05L495.78,283"/><path class="g" d="M618.13,293.88a18.93,18.93,0,0,0,8.59,2.22c6.67.08,14.46-3.37,25.32-11.22,10-7.25,14.09-16.09,14.67-24.12.78-10.61.19-30-23.54-35.45-11.87-2.72-2.93,7.47-4.26,9.31-12.24.66-40-30.12-40-30.12a7.47,7.47,0,0,0-1.53-1.27s-6.74,27.84-6.74,41.13c0,10.4-.41,23,14.71,39,1.56,1.64,5.75,5.86,7.5,6.8"/><path class="g" d="M595.55,271.86a119.5,119.5,0,0,0-3.71,13,65.73,65.73,0,0,0-1.17,6.93,20,20,0,0,0,4.08,13.57c5.32-5.32,6.38-2.13,11.45,2.47.27.1,1.85-4.18,3.38-8.46s3-8.6,3-8.6"/><path class="g" d="M657.27,280.38c-.78,7.73,4.51,16.92,4.51,16.92l.8-.57a31.52,31.52,0,0,1,12.47-5c1.28-.25,2.11-1.43,1.07-4.75-2.41-7.75.92-25.1,4.45-39.87,4.08-17.08,3.27-45,.23-55.29a7.54,7.54,0,0,1-.16-1.2c-.78-5.47,4.54-6.54,6.67-9.73-5.32-3.19-11.7-4.26-16.95-6.35l-2-.63c-10.89-3.37-22.19-5.25-31.65-11.7l-.92-.75a27,27,0,0,0-4.88-3.06L603.26,170.5H590.67l1.68,8.24c-1.06,1.06-16.23,15.38-16.23,15.38s2.92,3.23,6.11,3.5-2.94,20.11-2.94,20.11l4.41,3.68s-8.86,20.59,6.17,31"/><path class="g" d="M737.28,200c1.32,16.93,12.55,58.92,47.44,54.91,15.57-1.79,30.31-28.74,30.07-39.2-.05-2.15,16.1-3.33,12.62-15.66-4.74-16.79-15.08.05-15.08-2.13-1.09-17.47-7.51-31.52-23.88-31.52-2.18,0,.09,8.26-5.46,8.73-4.28.36-4.28-7.55-9.58-6.82-4.05.55-1.24,8-5.7,9-4.72,1.06-6.53-6.94-11.64-6.94a4,4,0,0,0-4.27,3.6c-.27,2.51-1.05,7-5.83,4.53C737.83,174.33,736.5,190,737.28,200Z"/><path class="g" d="M247.3,341.71c1.39,2,4.91,4.61,8.08,2.86a3.81,3.81,0,0,0,1.74-3.08,4.34,4.34,0,0,0-.32-2.09c-.07-.17-.15-.32-.24-.48l-10.63-18.51"/><path class="g" d="M257.52,339.85a4.33,4.33,0,0,0,7.31-4.63l-3-5.18-7.66-13.32"/><path class="g" d="M264.26,334.52a4.32,4.32,0,0,0,8.12.27c.32-.8-.1-1.51-.3-2.41l-1.45-5.89-3.72-15.08"/><path class="g" d="M262.32,296.82l-11.62,3.62c-6.58,2-12.46,7.68-17,12.85l-2.93,3.34a12,12,0,0,0-.63,14.78L239,344.08a4.33,4.33,0,0,0,7.86-2.08,5,5,0,0,0-.55-2.55c0-.06,0,.05,0,0l-7.21-14"/><line class="g" x1="255.22" y1="484.73" x2="247.07" y2="386.7"/><path class="g" d="M230.14,331.4s-19.49,10.31-13.67,74c3.86,42.16,7.36,81.59,7.36,81.59"/><path class="g" d="M536.28,275.36s-6.58-3.49-13-6.59c-4.42-2.11-16.37-7.13-23.34-10a6.74,6.74,0,0,1-3.7-8.67v0"/><path class="g" d="M828.23,232.38c1.15-3.13,4-10.85,6.6-20.5,5.3-20.07,4.44-41.33-6.74-59.23q-.56-.89-1.15-1.78c-9-16.16-27.57-22.71-44.53-23.57-.75,0-1.47,0-2.2,0-17.69.54-33.92,10.46-44.15,25.31-.28.43-.55.86-.82,1.29-19.67,32-3.68,51.11-3.68,51.11"/><path class="g" d="M760.32,248.74l-14.7,18.64h0a167,167,0,0,0-78.06,103.28L648.68,481.34"/><line class="g" x1="677.13" y1="290.45" x2="694.1" y2="295.14"/><path class="g" d="M796.33,330.42l-73.48,2.13A12.54,12.54,0,0,0,710.71,344h0a12.54,12.54,0,0,0,11.71,13.59l51.4,3.23a59.36,59.36,0,0,1,22.45,6h0a59.36,59.36,0,0,0,22.58,6l63.27,3.84a78,78,0,0,1,13.9,2.11l61.57,15.13a6.36,6.36,0,0,0,7.12-3.16h0a6.36,6.36,0,0,0-3.25-8.93L904.09,359a7.52,7.52,0,0,1-4.67-8.06h0a7.52,7.52,0,0,1,6.31-6.36l82.93-12.67a7.87,7.87,0,0,0,6.15-10.64h0a7.87,7.87,0,0,0-8.11-5l-82.28,8.08a7,7,0,0,1-5.75-2.13h0a7,7,0,0,1,1.64-10.94l66-37a7.75,7.75,0,0,0,2.31-11.55h0a7.75,7.75,0,0,0-9.42-2.22l-94.31,44.63a4.67,4.67,0,0,1-3.15.3h0a4.67,4.67,0,0,1-2.2-7.76l43.83-45.37a11,11,0,0,0-1.33-16.44h0a11,11,0,0,0-13.39.18l-76.1,65.67"/><polyline class="g" points="845 244.53 828.23 232.38 798.37 247.33"/><polyline class="g" points="792.34 253 802.46 268.75 829.79 253.19"/><polyline class="g" points="771.52 256.06 764.84 269.83 753.9 268.44"/><path class="g" d="M890.31,265.84a81.55,81.55,0,0,1,16.91,19.26"/><path class="g" d="M919.35,343c-.86,7.07-3.85,13.45-4.85,20.09V364"/><path class="g" d="M787.11,363.24l38.66,43.68a43.47,43.47,0,0,0,68.13-3.85,172.29,172.29,0,0,0,13-21.62s0,0,0,0"/><path class="g" d="M915.49,302.77a91.57,91.57,0,0,1,4,17.84c.09.75.17,1.51.23,2.26"/><path class="g" d="M869.46,252.61A98.82,98.82,0,0,0,845,244.54"/><line class="g" x1="860.95" y1="421.57" x2="859.72" y2="487.48"/><path class="g" d="M512.46,243.35c46-26.64,27-107.17-11.1-117.14-62.3-16.33-79.66,44.35-76.93,76,2.84,33,6.3,54.48,6.3,54.48"/><line class="g" x1="498.61" y1="242.17" x2="496.45" y2="249.51"/><path class="g" d="M534.57,274.39C553,285.13,558.6,302,558.1,321c-.1,3.8.21,8.81,0,12.86-2.91,65-.85,43-6.25,112.37"/><path class="g" d="M592,300.46c-14.34,3-20.26,5.72-34.15,11.43"/><path class="g" d="M398.2,262l46.92-6.36a6.75,6.75,0,0,0,6-6.6l.15-12.24"/><line class="g" x1="711.26" y1="376.23" x2="705.67" y2="486.97"/><path class="g" d="M607.42,304.36s11.88,13.73,27.62,7.76a62.75,62.75,0,0,0,24.89-17.62"/><path class="h" d="M286.5,420.76q.66-21.95,2.9-43.8c1.37-13.3,2.75-32.18,1.8-48.57C289,289.84,297.3,280,297.3,280"/><line class="g" x1="509.21" y1="351.83" x2="503.29" y2="487.27"/><line class="h" x1="613.28" y1="310.75" x2="608.97" y2="325.3"/><line class="h" x1="620.19" y1="313.13" x2="618.41" y2="328.07"/><line class="h" x1="628.24" y1="313.2" x2="627.41" y2="327.76"/><line class="h" x1="637" y1="312" x2="637" y2="325"/><line class="h" x1="645.11" y1="308.09" x2="645.78" y2="321.89"/><line class="h" x1="652.95" y1="302.26" x2="653.91" y2="316.06"/><circle class="j" cx="782.52" cy="275.07" r="5.01"/><circle class="j" cx="782.52" cy="294.32" r="5.01"/><path class="j" d="M577.55,320.93c15.46,34.76,62.15,41,86.17,11.49l30.38-37.28"/><rect class="j" x="343" y="443" width="11" height="8" rx="3.33" ry="3.33"/><path class="g" d="M383.48,286.84l.19.12a94.54,94.54,0,0,1,42.94,84.39l-4.09,116.12"/><path class="i" d="M343.39,217.35a3.06,3.06,0,1,1-4.29-.56A3.07,3.07,0,0,1,343.39,217.35Z"/><path class="i" d="M317.43,217.55a3.06,3.06,0,1,1-4.29-.56A3.07,3.07,0,0,1,317.43,217.55Z"/><line class="g" x1="327.16" y1="229.77" x2="326.13" y2="236.67"/><path class="i" d="M489.92,198.72a3,3,0,1,1-4.23-.55A3,3,0,0,1,489.92,198.72Z"/><path class="i" d="M462.88,198.92a3,3,0,1,1-4.23-.55A3,3,0,0,1,462.88,198.92Z"/><line class="g" x1="472.95" y1="210.95" x2="471.36" y2="221.57"/><line class="g" x1="475" y1="232.5" x2="477" y2="232.5"/><line class="g" x1="322" y1="254.5" x2="324" y2="254.5"/><path class="i" d="M612.09,242.42a2.8,2.8,0,1,0,3.92-.52A2.8,2.8,0,0,0,612.09,242.42Z"/><path class="i" d="M637.2,242.6a2.8,2.8,0,1,0,3.92-.52A2.8,2.8,0,0,0,637.2,242.6Z"/><line class="g" x1="627.85" y1="253.78" x2="628.53" y2="258.31"/><line class="g" x1="635" y1="271.5" x2="629" y2="271.5"/><path class="i" d="M756,201.12a2.88,2.88,0,1,0,4-.53A2.88,2.88,0,0,0,756,201.12Z"/><path class="i" d="M784.41,197.85a2.88,2.88,0,1,0,4-.53A2.88,2.88,0,0,0,784.41,197.85Z"/><line class="g" x1="774.68" y1="214.7" x2="775.36" y2="219.25"/><line class="g" x1="784" y1="232.5" x2="776" y2="232.5"/><path class="g" d="M595.55,271.86a119.5,119.5,0,0,0-3.71,13,65.73,65.73,0,0,0-1.17,6.93,20,20,0,0,0,4.08,13.57c5.32-5.32,6.38-2.13,11.45,2.47.27.1,1.85-4.18,3.38-8.46s3-8.6,3-8.6"/><path class="g" d="M247.3,341.71c1.39,2,4.91,4.61,8.08,2.86a3.81,3.81,0,0,0,1.74-3.08,4.34,4.34,0,0,0-.32-2.09c-.07-.17-.15-.32-.24-.48l-10.63-18.51"/><path class="g" d="M257.52,339.85a4.33,4.33,0,0,0,7.31-4.63l-3-5.18-7.66-13.32"/><path class="g" d="M264.26,334.52a4.32,4.32,0,0,0,8.12.27c.32-.8-.1-1.51-.3-2.41l-1.45-5.89-3.72-15.08"/><path class="g" d="M262.32,296.82l-11.62,3.62c-6.58,2-12.46,7.68-17,12.85l-2.93,3.34a12,12,0,0,0-.63,14.78L239,344.08a4.33,4.33,0,0,0,7.86-2.08,5,5,0,0,0-.55-2.55c0-.06,0,.05,0,0l-7.21-14"/><line class="g" x1="255.22" y1="484.73" x2="247.07" y2="386.7"/><path class="g" d="M536.28,275.36s-6.58-3.49-13-6.59c-4.42-2.11-16.37-7.13-23.34-10a6.74,6.74,0,0,1-3.7-8.67v0"/><path class="g" d="M890.31,265.84a81.55,81.55,0,0,1,16.91,19.26"/><path class="g" d="M919.35,343c-.86,7.07-3.85,13.45-4.85,20.09V364"/><path class="g" d="M915.49,302.77a91.57,91.57,0,0,1,4,17.84c.09.75.17,1.51.23,2.26"/><path class="g" d="M592,300.46c-14.34,3-20.26,5.72-34.15,11.43"/><path class="g" d="M607.42,304.36s11.88,13.73,27.62,7.76a62.75,62.75,0,0,0,24.89-17.62"/><rect class="j" x="343" y="443" width="11" height="8" rx="3.33" ry="3.33"/><line class="g" x1="380.61" y1="459.29" x2="379.25" y2="389.66"/><g class="k"><path class="l" d="M566,538.44c-92.32-2-162.95-3.46-300.78,11l-.23,0"/><path class="l" d="M639.69,517.82c-143.72-1.5-220.52-8-420,20.14"/><path class="l" d="M692.07,495.56l.4,0c-183.51.38-264.42-11-502.05,30.16"/><path class="l" d="M730.71,473.28c-211.57,2.36-299.33-13.14-559.85,40.37"/><path class="l" d="M756.55,450.68C528.08,454.74,429.68,436.37,158,500.87"/><path class="l" d="M771.05,428.17c-233.46,5.06-352.93-11.26-621.43,60.26"/><path class="l" d="M774.35,405.92c-231,5.19-367.36-9.17-628.37,68.19"/><path class="l" d="M765.54,384c-222,4.48-368.19-8.29-617.38,73.32"/><path class="l" d="M155.7,439.5l2.11-.75c230.68-82.61,377.77-73.36,583.51-76.48"/><path class="l" d="M691.61,340.83c-173.48,1.94-317.17,2.44-508.66,72.76"/><path class="l" d="M554.17,322.4l-.53.06c-88.55,3.48-174.72,14-268,39.83h.07"/></g></g></svg>