<svg xmlns="http://www.w3.org/2000/svg" viewBox="0 0 1200 630"><defs><style>.a{isolation:isolate;}.b{fill:#fff;}.c{fill:#e1e8f6;}.d{fill:#ffea83;}.e{fill:#f15a24;}.f,.g,.h,.j{fill:none;stroke-linecap:round;stroke-linejoin:round;}.f,.g,.h{stroke:#324681;}.f{stroke-width:3px;}.g{stroke-width:3.14px;}.h{stroke-width:2px;}.i{mix-blend-mode:multiply;}.j{stroke:#e1e8f6;stroke-width:5px;}</style></defs><title>result-4</title><g class="a"><circle class="b" cx="300.45" cy="349.96" r="50.85"/><path class="b" d="M851.74,544.1,708.5,450a9.41,9.41,0,0,0-11.79,1l-65.49,62.19-5.67,5.38-6.28-.67-7-8.48v0a283,283,0,0,1-32.73-25.54l-2.12-10.32v-.05l-1.81-8.86-.2-.18-1.32-1.15-17.26-62.53c-4.32-11.88-8.88-23.61-14.12-35.14l-4.93-11-1.24-1,.61-.13-3.83-8.22,1.83-3.39h0l11.06-20.61h0L560.77,295c5.28-9.83,15.53-15,26.69-15H668.1c3.54,0,6.83-2.09,9.53-4l0,.28c15.17,1.56,40.42,4.86,47.67,6.38,1.33.27,2.44.43,3.29.69,14.68,4.53,16.09,6.45,21.39,8,6,1.81,27,2.25,27,2.25a3.34,3.34,0,0,0,.81-6.61l-.1-.06h.11l4.57.35a3.32,3.32,0,0,0,.81-6.59l-5.59,1.5.63-2,4.55.36h.41a3.33,3.33,0,0,0,1.55-.46,3.28,3.28,0,0,0,1.56-2.22,3.32,3.32,0,0,0-2.7-3.91l-3.7,1,.41-1.29,3.15.25h.14a3.32,3.32,0,0,0,.67-6.59l-17.06-2.88-.5-.5,6-1.54a3.51,3.51,0,0,0,1-.39,3.63,3.63,0,0,0-2.2-6.73l-36.73,3.48-6.11-1.13-35.35-6.49-14.66-2.69,0,1.09h0a16.14,16.14,0,0,0-7.4-3.55L526,218.25h0l-.19,0,10.24-19.33,6.62-1.79.18.91h0l4.52-3,0-.59c.9-.31,2.46-1.24,4.21-2.06a10,10,0,0,0,4.45-13.88l-.73.45-.35-.06h0l1.56-4h.18l1.22.52a10.64,10.64,0,0,0,1-7.47h0c-.6-3.77-2-7.6-.81-11.33,7.8-23.63-22.44-45.73-48.37-42.75-11.24,1.3-16,3.4-20.11,6-9.62,6.06-8.48,20.53-8.48,20.53l.8.37a20.53,20.53,0,0,0-1.62,4.79c-4.49,11.56-6.32,20.4-6.08,33,.06,3-.18,22.29,17.75,19.11l-.3,1.38,1.31-.46s-3.68,14.67-10.17,14.69c-5.42,0-14.54-1.31-19.52-2.12l-2.5.51c-.65-.68-1-1.09-1-1.09L339.09,190.23a12.17,12.17,0,0,0-9.94,2.78l-19.59-4.61-39.7-9.33L263,177.46l-29.93-27a4.11,4.11,0,0,0-5.34,6,4,4,0,0,0,.81.84l3.88,4.58a5.67,5.67,0,0,1,1.28,2.82l.59,2.6a2.83,2.83,0,0,1-2.79,3.26c-.17,0-19.95-9.53-19.95-9.53a3.77,3.77,0,0,0-5,5.06,3.71,3.71,0,0,0,1.21,1.44h0a3.73,3.73,0,0,0-3.11,4.1l3,.59-1.07,1.94v0A3.75,3.75,0,0,0,205,181l5.61,2.62,1.88-.06.68,1.1-1.41-.56a3.77,3.77,0,0,0-2,7.25s22.2,8.65,29.28,9.36c6.25.64,8.58-.83,25.94.82,1,.1,2.29.29,3.8.59C277,203.69,299.88,214,316.46,219l2.79-5.7a22.61,22.61,0,0,0,16.57,26.62l81.25,20.55a35.24,35.24,0,0,1,26.58,33.09l9,38.75L423.15,366.5c-6.86,10.1-15.24,21.69-17.07,35.22-8.05,59.51-44.72,82.11-45.77,88.62l-8.92-6h0l-16-10.86L299,448.79a8.45,8.45,0,0,0-10.59.91l-43.81,42.14-50.37,48.45,112.43.66-12.08,15.3s6.91-5.79,17.24-15.28l120.14.7,9.09,21.71L446.17,543h0l13.47-.55,23.6-.18,23.6,0,23.6.06,23.45.1,23.48.12,23.55.13,23.39.12L660,543l27.92,19.75L665.31,543ZM400.11,431.89h0l-2,2.71s0,0,0,0l0,0h0c.94-2.35,1.76-4.67,2.44-6.94Q400.25,429.82,400.11,431.89Z"/><path class="c" d="M851.75,544.09h0L749.39,476.91l-40.9-26.85a10.28,10.28,0,0,0-1.87-1,9.7,9.7,0,0,1,1.89,1Z"/><path class="c" d="M749.39,476.91l102.33,67.19L665.32,543l22.58,19.73L660,543l-34.44-24.37,22.08-21,.31.32,30.42-3A39.1,39.1,0,0,1,695,496.91a39.2,39.2,0,0,0,36.77-6.06L749,477.51Z"/><path class="b" d="M765.68,264.23l1.48.25,17.05,2.88a3.32,3.32,0,0,1,1.13,6.13,3.25,3.25,0,0,1-1.8.47h-.15l-3.15-.24-.41,1.29,3.7-1a3.32,3.32,0,0,1,1.14,6.13,3.26,3.26,0,0,1-1.56.46c-.14,0-.26,0-.4,0l-4.55-.36-.64,2,5.59-1.5a3.31,3.31,0,0,1,1.14,6.12,3.38,3.38,0,0,1-1.95.47l-4.57-.36h-.11l.1.06a3.68,3.68,0,0,1,.86.26,3,3,0,0,1,.51.3,3.75,3.75,0,0,1,.44.37,3.32,3.32,0,0,1-.12,4.79,4.07,4.07,0,0,1-.55.4,3.63,3.63,0,0,1-.81.35,3.45,3.45,0,0,1-1.14.11s-21-.47-27-2.28c-5.3-1.6-6.71-3.58-21.39-8.11-.85-.25-2-.53-3.29-.81-7.23-1.51-32.48-5.05-47.66-6.61l0-.49a16.42,16.42,0,0,1-9.52,3.37H587.47a30.05,30.05,0,0,0-26.69,15.71L546.2,321.25h0l14.58-27.15a30.29,30.29,0,0,1,26.7-16H668.1a16.19,16.19,0,0,0,10.45-28.55l0-1.08,14.67,2.69,35.35,6.49,6.1,1.12,36.74-3.47a3.62,3.62,0,0,1,1.24,7.12Z"/><path class="b" d="M778.89,293.11a4.07,4.07,0,0,0,.55-.4,3.4,3.4,0,0,1-.55.41,3.17,3.17,0,0,1-.81.34A3.63,3.63,0,0,0,778.89,293.11Z"/><path class="b" d="M776.94,293.57a3.45,3.45,0,0,0,1.14-.11,3.19,3.19,0,0,1-1.14.12s-21-.47-27-2.28c-5.3-1.59-6.71-3.56-21.39-8.08-.85-.26-2-.51-3.29-.77-7.25-1.51-32.49-5-47.67-6.55v-.14c15.18,1.56,40.42,5.1,47.66,6.61,1.33.28,2.45.55,3.29.81,14.68,4.53,16.09,6.51,21.39,8.11C755.95,293.1,776.94,293.57,776.94,293.57Z"/><polygon class="b" points="772.7 262.44 766.67 263.98 767.17 264.48 765.68 264.23 772.7 262.44"/><path class="b" d="M749.39,476.91l-.39.6-17.24,13.35A39.2,39.2,0,0,1,695,496.91,39.1,39.1,0,0,0,678.35,495l-30.42,3-.31-.32,49.09-46.61a9.3,9.3,0,0,1,3.89-2.26,9.48,9.48,0,0,1,4-.28l.69.13a11.89,11.89,0,0,1,1.32.4s0,0,0,0a10.28,10.28,0,0,1,1.87,1Z"/><path class="c" d="M705.29,448.65a8.64,8.64,0,0,1,1.32.4A11.89,11.89,0,0,0,705.29,448.65Z"/><path class="c" d="M700.59,448.8a9.31,9.31,0,0,1,4-.28A9.48,9.48,0,0,0,700.59,448.8Z"/><path class="c" d="M678.56,257.92a16.19,16.19,0,0,1-10.45,28.55H587.47a30.29,30.29,0,0,0-26.7,16,28.84,28.84,0,0,0-21.82-15.38l-27.14-3.63a160.17,160.17,0,0,0-3.36-32.32l-2.38-11.45c27.06,2.56,21.15-9.69,19.37-12.63.06-.15.12-.32.19-.51l.2,0,.19,0h0l84.34,16.13,60.81,11.64c.24,0,.48.1.72.16s.41.1.61.16a14.52,14.52,0,0,1,1.49.5l.58.24.08,0c.2.08.39.18.58.28s.42.21.62.33l.58.33.06,0c.18.11.37.22.55.35s.53.36.78.55.41.32.6.49Z"/><path class="b" d="M677.07,248.44c-.18-.13-.37-.24-.55-.35A6,6,0,0,1,677.07,248.44Z"/><path class="b" d="M676.45,248.05l-.58-.33A6.31,6.31,0,0,1,676.45,248.05Z"/><path class="b" d="M675.24,247.39c-.19-.1-.38-.19-.58-.28A5.85,5.85,0,0,1,675.24,247.39Z"/><path class="b" d="M674.58,247.09l-.58-.24A5.63,5.63,0,0,1,674.58,247.09Z"/><path class="b" d="M672.5,246.35c-.2-.06-.41-.12-.61-.16A5.8,5.8,0,0,1,672.5,246.35Z"/><path class="b" d="M671.89,246.19c-.24-.06-.48-.12-.72-.16l-60.81-11.64L671.17,246A5.48,5.48,0,0,1,671.89,246.19Z"/><path class="b" d="M329.14,193a6.36,6.36,0,0,1,.67-.53,3.27,3.27,0,0,1,.39-.28c.22-.16.46-.31.69-.44l.47-.26.67-.33c.26-.12.53-.23.79-.33l.77-.26.06,0,.71-.18.11,0q.43-.1.86-.16l.65-.07.31,0c.26,0,.52,0,.78,0a12,12,0,0,1,2,.17l120.86,20.22.06.07.12.13c.15.18.41.49.79.88h0c3.71,3.88,18.12,17.08,44.7,19.72l.43,0,2.38,11.45a160.17,160.17,0,0,1,3.36,32.32l27.14,3.63a28.84,28.84,0,0,1,21.82,15.38l-14.58,27.15-11.06,20.6h0l-1.81,3.37v0h0l9.3,20.43q3.38,7.45,6.53,15a1.77,1.77,0,0,1,.08.21c2.67,6.58,5.17,13.22,7.61,19.91l17.26,62.53,1.31,1.14c.13.6.26,1.22.39,1.82l3.75,17.58h0c1.23,1.12,2.48,2.22,3.73,3.33l.15.13c1.3,1.13,2.62,2.27,3.94,3.37a281.47,281.47,0,0,0,24.95,18.76l7,8.46,6.26.67h0L660,543l-35.65-.21-23.38-.13h0l-23.55-.14-23.47-.13h0l-23.44-.12h0l-23.57-.1h0l-23.53-.05h-.07l-23.45,0h-.15l-13.47.25h0l-5.12,20.68-9-21.19-.1-.23L410.34,491.5a127.88,127.88,0,0,1-10.23-59.62,2,2,0,0,1,0-.35q0-.65.1-1.3c0-.25,0-.51.06-.75l.16-1.67a0,0,0,0,0,0,0v0c.57-1.89,1-3.74,1.42-5.56a152.08,152.08,0,0,0,4.18-20.45,144.81,144.81,0,0,1,17.08-35.22l29.55-34.21-9-38.75a35.23,35.23,0,0,0-26.58-33.09l-81.26-20.55a22.47,22.47,0,0,1-10.64-6.11,23,23,0,0,1-5.23-8.55c-.17-.52-.33-1-.47-1.58l-.1-.35a22.73,22.73,0,0,1-.52-7.68q.06-.59.16-1.18t.22-1.18l0,0a23.67,23.67,0,0,1,1.56-4.69L326,197.21a12.19,12.19,0,0,1,3.15-4.19Z"/><path class="b" d="M612.29,509.47l0,0a281.47,281.47,0,0,1-24.95-18.76,282.62,282.62,0,0,0,24.91,18.72Z"/><path class="b" d="M583.43,487.36q2,1.7,3.94,3.37C586,489.63,584.73,488.49,583.43,487.36Z"/><path class="b" d="M579.55,483.91c1.23,1.11,2.48,2.22,3.73,3.33C582,486.13,580.78,485,579.55,483.91Z"/><path class="b" d="M577.43,473.59l2.12,10.32h0l-3.75-17.58c-.13-.6-.26-1.22-.39-1.82h0l.2.18,1.81,8.86Z"/><path class="d" d="M551.69,130c6.58,7.53,9.71,16.9,6.54,26.52a10.31,10.31,0,0,0-.46,3.79,1.42,1.42,0,0,0,0,.21,3.57,3.57,0,0,0,0,.47c0,.2,0,.41.06.61.12,1,.3,1.9.5,2.85.23,1.13.49,2.28.67,3.4h0a10.58,10.58,0,0,1-1,7.47l-1.21-.52h-.14l-1.48,4h0l.28,0,.67-.48a9.73,9.73,0,0,1,1.24,4.21,9.73,9.73,0,0,1-5.7,9.49,38.12,38.12,0,0,1-4.72,2c-3,.66-6,1.48-8.32-.41a20.8,20.8,0,0,1-2.63-2.08l.14-.47c-1.53-5.3-13.63-9.55-11-20.86,1-4.36,12.1-27.89-11.07-34-10-2.61-20.86-3.19-28.58.62a8.13,8.13,0,0,0-3.39,3.78l-.81-.36a31.6,31.6,0,0,1,.6-7.87c.1-.43.19-.88.31-1.32.18-.68.38-1.37.61-2.07l.25-.7s0,0,0,0c.18-.46.37-.91.58-1.37h0a21.66,21.66,0,0,1,1.08-2l.42-.67a16.84,16.84,0,0,1,2-2.44c.19-.19.39-.38.59-.56a15.82,15.82,0,0,1,1.29-1l.72-.48c4.07-2.56,8.87-4.67,20.12-6,14.69-1.69,30.77,4.67,40.53,14.81C550.83,129.09,551.27,129.56,551.69,130Z"/><path class="b" d="M557.81,161a5.74,5.74,0,0,0,.06.61C557.86,161.44,557.82,161.23,557.81,161Z"/><path class="b" d="M557.77,160.35a1.42,1.42,0,0,0,0,.21A1.42,1.42,0,0,1,557.77,160.35Z"/><path class="b" d="M557.33,183.84a9.88,9.88,0,0,1-5.69,8.37c-1.75.82-3.3,1.63-4.21,1.94l0,.36-4.52,2.57h0l-.18-.46-6.62,2.25L525.83,218.2l-.2,0c1.13-3.19,4.47-12.5,6.59-17.52,2.05-4.86,3.74-9.09,3.74-9.09a20.8,20.8,0,0,0,2.63,2.08c2.36,1.9,5.36,1.07,8.32.41a38.12,38.12,0,0,0,4.72-2A9.91,9.91,0,0,0,557.33,183.84Z"/><path class="b" d="M542.71,365.68c2.26,5,4.39,10,6.43,15q-3.13-7.55-6.53-15l-9.3-20.43h0l4.46,9.4Z"/><path class="b" d="M506.07,231.3l-.43,0c-26.58-2.65-41-15.85-44.7-19.72l2.48-.51h0l.65.11,1.5.23.62.1,1,.15,3.79.53.79.1c1.28.16,2.6.32,3.88.46l.66.06,2.08.18,1.11.08,1.9.1.78,0h1.07c6.3-.47,9.87-14.68,9.87-14.68l-1.3.46.29-1.32v-.05a20.79,20.79,0,0,1-4.43.34c-.34,0-.67,0-1-.07-10.87-1.27-12.13-13.42-12.31-18,0-.59,0-1.07,0-1.37-.24-12.56,1.59-21.4,6.08-33,0,0,.16-.85.5-2,0-.11.06-.21.11-.32s.17-.53.28-.81l.16-.42s0-.07,0-.12c.15-.35.32-.72.49-1.08a.43.43,0,0,1,.05-.1,8.13,8.13,0,0,1,3.39-3.78c7.72-3.81,18.61-3.23,28.58-.62,23.17,6.07,12.1,29.6,11.07,34-2.64,11.3,9.47,15.56,11,20.86l-.14.47s-1.68,4.23-3.74,9.09c-2.12,5-5.46,14.33-6.59,17.52l-.59-.12a6.53,6.53,0,0,1,.4.62C527.22,221.61,533.13,233.87,506.07,231.3Zm-19.3-43.5c8.58-.51,14.51-12.71,6-10.19s-10.58-.12-10.58-.12C482.2,180.16,483,188,486.77,187.8Z"/><polygon class="b" points="535.16 341.85 533.33 345.21 535.15 341.84 535.16 341.85"/><path class="b" d="M525,218.05l.59.12c-.07.19-.13.36-.19.51A6.53,6.53,0,0,0,525,218.05Z"/><path class="b" d="M492.8,177.61c8.48-2.52,2.55,9.68-6,10.19-3.73.21-4.57-7.64-4.55-10.31C482.21,177.49,484.3,180.13,492.8,177.61Z"/><path class="b" d="M489,120.26a15.82,15.82,0,0,0-1.29,1A13.85,13.85,0,0,1,489,120.26Z"/><path class="b" d="M487.73,121.3c-.2.18-.4.37-.59.56A7.53,7.53,0,0,1,487.73,121.3Z"/><path class="b" d="M487.14,121.86a16.84,16.84,0,0,0-2,2.44A15.46,15.46,0,0,1,487.14,121.86Z"/><path class="b" d="M484.7,125a21.66,21.66,0,0,0-1.08,2A17.58,17.58,0,0,1,484.7,125Z"/><path class="b" d="M483.62,127c-.21.46-.4.91-.58,1.37C483.22,127.9,483.41,127.43,483.62,127Z"/><path class="b" d="M483,128.36l-.25.7Q482.9,128.71,483,128.36Z"/><path class="b" d="M482.17,131.13c-.12.44-.21.89-.31,1.32C481.95,132,482.06,131.58,482.17,131.13Z"/><path class="b" d="M474.4,179.8c.18,4.58,1.44,16.73,12.31,18C475.65,196.71,474.53,184.42,474.4,179.8Z"/><path class="b" d="M465.57,211.37l.62.1Z"/><path class="b" d="M463.42,211l.65.11Z"/><path class="e" d="M410.34,491.5,432,541.66,311.83,541c17.66-16.24,45.33-43.32,65.53-70.89a133.09,133.09,0,0,0,16-25.17c1.8-3.46,3.39-6.87,4.72-10.22,0,0,0,0,0,0l0,0s0,0,0,0l2-2.71A127.88,127.88,0,0,0,410.34,491.5Z"/><path class="b" d="M423.15,366.5a144.81,144.81,0,0,0-17.08,35.22C407.91,388.19,416.29,376.6,423.15,366.5Z"/><path class="b" d="M400.61,426.46c.44-1.4.87-2.83,1.28-4.29-.38,1.82-.85,3.68-1.42,5.56C400.51,427.31,400.56,426.89,400.61,426.46Z"/><path class="b" d="M398,434.68c-1.33,3.35-2.92,6.76-4.72,10.22a132.22,132.22,0,0,0,7.3-18.44c-.05.42-.1.85-.14,1.27v0a0,0,0,0,0,0,0h0c-.16.55-.33,1.1-.52,1.66s-.38,1.14-.58,1.73-.42,1.15-.64,1.74-.41,1.07-.62,1.61a0,0,0,0,1,0,0A.44.44,0,0,0,398,434.68Z"/><path class="d" d="M360.3,490.35c.47-2.91,8.07-9.06,17.05-20.27-20.2,27.56-47.87,54.65-65.53,70.89h0l-.7.65-1.2,1.09-.92.84c-1.81,1.65-3.5,3.17-5,4.51-.25.23-.5.46-.75.67-3.77,3.36-6.5,5.7-7.81,6.8l-.36.32-.44.37,0,0,12.07-15.29-112.43-.66.05-.05,50.32-48.39,27.33-2.71a35.24,35.24,0,0,1,14.94,1.75,35.23,35.23,0,0,0,33-5.44l15.5-12,16,10.85Z"/><polygon class="d" points="351.38 484.3 335.38 473.45 335.34 473.42 335.38 473.44 351.38 484.3"/><path class="d" d="M336.58,348.33a50.86,50.86,0,1,1-48.14-48.14A50.87,50.87,0,0,1,336.58,348.33Z"/><path class="b" d="M337.06,190.07c-.26,0-.52,0-.78,0C336.54,190.08,336.8,190.07,337.06,190.07Z"/><path class="b" d="M336,190.12l-.65.07Z"/><path class="b" d="M335.38,473.45l-15.5,12a35.23,35.23,0,0,1-33,5.44,35.24,35.24,0,0,0-14.94-1.75l-27.33,2.71h0l43.81-42.14a8.46,8.46,0,0,1,10.58-.9l36.34,24.63Z"/><path class="b" d="M299,448.78l36.33,24.64L299,448.79a8.4,8.4,0,0,0-6.9-1.17A8.39,8.39,0,0,1,299,448.78Z"/><path class="b" d="M335.33,190.19q-.43.06-.86.16Q334.9,190.26,335.33,190.19Z"/><path class="b" d="M334.36,190.37l-.71.18Z"/><path class="b" d="M333.59,190.57l-.77.26Z"/><path class="b" d="M332.82,190.84c-.26.1-.53.21-.79.33C332.29,191.05,332.55,190.93,332.82,190.84Z"/><path class="b" d="M332,191.17l-.67.33Z"/><path class="b" d="M330.2,192.21a3.27,3.27,0,0,0-.39.28C329.93,192.39,330.06,192.29,330.2,192.21Z"/><path class="b" d="M206.65,174.18l0,0,1.07-1.94-3-.58a3.7,3.7,0,0,1,.7-2.62,3.63,3.63,0,0,1,.5-.56,2.81,2.81,0,0,1,.28-.22,4,4,0,0,1,1.29-.62l.35-.07h0a3.69,3.69,0,0,1-1.22-1.44,3.77,3.77,0,0,1,5-5.06s19.77,9.53,19.95,9.53a2.84,2.84,0,0,0,2.79-3.26l-.59-2.6a5.62,5.62,0,0,0-.61-1.85,5.34,5.34,0,0,0-.66-1l-3.89-4.59a3.59,3.59,0,0,1-.82-.84,4.11,4.11,0,0,1,5.34-6l29.93,27,6.84,1.62,39.71,9.33L329.13,193a12.19,12.19,0,0,0-3.15,4.19l-5.19,11.41a23.67,23.67,0,0,0-1.56,4.69L316.46,219c-16.58-5-39.46-15.29-47.71-16.85-1.51-.3-2.79-.49-3.79-.59-17.36-1.64-19.69-.18-25.94-.82-7.08-.71-29.29-9.36-29.29-9.36a3.77,3.77,0,0,1-1.84-1.32,3.73,3.73,0,0,1-.67-3,3.77,3.77,0,0,1,4.53-2.92l1.41.55-.69-1.09-1.87.06L205,181a3.77,3.77,0,0,1-.91-5.33,3.39,3.39,0,0,1,.84-.82l.29-.19a2.75,2.75,0,0,1,.72-.33A4.08,4.08,0,0,1,206.65,174.18Z"/><path class="b" d="M295.43,555.51l-.36.32Z"/><path class="d" d="M294.6,556.22h0Z"/><polygon class="d" points="244.6 491.83 244.6 491.84 194.28 540.23 244.6 491.83"/><path class="b" d="M232.43,161.88a5.34,5.34,0,0,1,.66,1,6,6,0,0,0-.67-1l-3.88-4.59Z"/><path class="b" d="M559,167.46a11.38,11.38,0,0,1-1,7.76l-1.21-.22h-.14L555,178.82h0l.35,0,.7-.48a10,10,0,0,1,1.27,5.46,9.91,9.91,0,0,1-5.69,8.24,38.16,38.16,0,0,1-4.72,2c-2.82.62-5.68,1.41-8-.17.9-.32,2.45-1,4.17-1.8a9.73,9.73,0,0,0,5.7-9.49,9.73,9.73,0,0,0-1.24-4.21l-.47.48-.08,0h0l1.09-3.82h.14l1.21.45c1.44-2.43,1.45-5.41,1-8l0-.5h0c-.18-1-.43-1.82-.67-2.95-.2-1-.38-1.67-.5-2.62,0-.2-.05-.3-.06-.5a2.77,2.77,0,0,1,0-.41,1.07,1.07,0,0,1,0-.18,10.23,10.23,0,0,1,.46-3.78c3.18-9.63,0-19-6.54-26.52-.42-.48-.86-.94-1.3-1.41a51.68,51.68,0,0,0-31.36-14.87c14.52-1.45,30.28,4.88,39.9,14.87.44.47.88.93,1.3,1.41,6.58,7.53,9.71,16.9,6.54,26.52a10.31,10.31,0,0,0-.46,3.79,1.42,1.42,0,0,0,0,.21,3.56,3.56,0,0,0,0,.47c0,.2,0,.41.06.61a24.05,24.05,0,0,0,.5,2.4c.23,1.13.49,1.95.67,2.95h0Z"/><path class="f" d="M525,218.06s4.59-11.29,7.18-17.41c2.05-4.85,3.74-9.08,3.74-9.08a20.32,20.32,0,0,0,2.63,2.08c2.36,1.89,5.35,1.06,8.31.41a37,37,0,0,0,4.73-2,9.86,9.86,0,0,0,4.45-13.76h0"/><path class="f" d="M441.05,562.74,410.34,491.5a126.25,126.25,0,0,1-4.27-89.78,144.86,144.86,0,0,1,17.07-35.22l29.55-34.22-9-38.75a35.24,35.24,0,0,0-26.58-33.09L335.82,239.9a22.61,22.61,0,0,1-15-31.28L326,197.2a12.19,12.19,0,0,1,13.1-7L460,210.46s14.42,18,45.68,20.8c20.37,1.84,20.87-4.87,20.87-4.87"/><path class="f" d="M523.72,419.38l22.57,28.82a285.65,285.65,0,0,0,70.45,64.19l71.17,50.36"/><path class="g" d="M294.58,556.24s99.34-83.13,107.73-136.44"/><path class="f" d="M525,218.06l146.13,28a16.19,16.19,0,0,1,12.9,18.53h0a16.19,16.19,0,0,1-16,13.56H587.47a30.3,30.3,0,0,0-26.7,16l-27.46,51.16,9.3,20.44a489.61,489.61,0,0,1,33.18,100.63l3.75,17.59"/><path class="f" d="M508.38,191c-33.94,19.82-33.94-8.87-34-12.55-.24-12.55,1.59-21.39,6.08-33,0-.12,1.18-6.68,5-8.57,7.72-3.81,18.62-3.24,28.58-.63,23.17,6.07,12.1,29.6,11.07,34-2.64,11.3,9.47,15.55,11,20.85"/><path class="f" d="M481.26,140.32s-1.14-14.48,8.48-20.53c4.07-2.57,8.87-4.67,20.12-6,25.93-3,56.18,19.11,48.38,42.75-2.06,6.24,3.39,12.78-.19,18.81"/><line class="g" x1="483.02" y1="163.91" x2="481.93" y2="167.9"/><line class="g" x1="493.94" y1="156.98" x2="501.06" y2="155.39"/><line class="g" x1="479.01" y1="150.65" x2="482.32" y2="154.38"/><path class="f" d="M482.22,177.49s2.08,2.65,10.58.12,2.55,9.68-6,10.19C483,188,482.2,180.16,482.22,177.49Z"/><path class="f" d="M207.82,167.52a3.76,3.76,0,0,1-1.28-4.54,3.77,3.77,0,0,1,5-2s19.77,9.53,19.95,9.53a2.83,2.83,0,0,0,2.79-3.26l-.59-2.6a5.67,5.67,0,0,0-1.28-2.82l-3.88-4.58a4,4,0,0,1-.81-.84,4.11,4.11,0,0,1,5.34-6l29.93,27,6.85,1.62,39.7,9.33L329.19,193"/><path class="f" d="M309.35,216.66c-16.58-5-32.34-13-40.59-14.54-1.51-.3-2.79-.49-3.8-.59-17.36-1.64-19.69-.18-25.94-.82-7.08-.71-29.28-9.36-29.28-9.36a3.77,3.77,0,0,1,2-7.25l15.12,6"/><path class="f" d="M678.6,248.49l14.66,2.69,35.35,6.49,6.11,1.13,36.73-3.48a3.63,3.63,0,0,1,2.2,6.73,3.52,3.52,0,0,1-1,.39l-7,1.79-20,5.11"/><path class="f" d="M765.69,264.23l18.54,3.13a3.32,3.32,0,0,1-.67,6.59h-.14l-18.32-1.44"/><path class="f" d="M783.55,274a3.32,3.32,0,0,1,2.7,3.91,3.29,3.29,0,0,1-1.56,2.22,3.33,3.33,0,0,1-1.55.46h-.41l-18.32-1.44"/><path class="f" d="M783.13,280.7a3.32,3.32,0,0,1-.81,6.59l-4.57-.36L764,285.85"/><path class="f" d="M777.75,287a3.32,3.32,0,0,1-.81,6.59s-21-.47-27-2.28c-5.3-1.59-6.71-3.57-21.39-8.11-.85-.26-2-.53-3.29-.81-7.25-1.51-32.49-5.05-47.67-6.61"/><path class="f" d="M519.67,342.91l-41.41-6.71a8.3,8.3,0,0,1-7-7.88l-.79-20.59a32.35,32.35,0,0,1,36.62-33.29L539,278.71a28.86,28.86,0,0,1,21.82,15.38h0"/><path class="f" d="M506,231.08l2.42,11.67a160.66,160.66,0,0,1,3.35,32.66h0"/><path class="f" d="M204.72,171.63a3.69,3.69,0,0,1,.69-2.62,3.77,3.77,0,0,1,4.9-1.07l18.56,8.44"/><path class="f" d="M210.6,183.62,205,181a3.77,3.77,0,0,1,4-6.38l18.55,8.44"/><path class="f" d="M493.25,198.47S489.5,213.13,483,213.15c-7.74,0-23.06-2.69-23.06-2.69"/><line class="h" x1="452.88" y1="528.09" x2="468.76" y2="560.34"/><line class="h" x1="476.41" y1="528.09" x2="492.3" y2="560.34"/><line class="h" x1="499.94" y1="528.09" x2="515.83" y2="560.34"/><line class="h" x1="523.47" y1="528.09" x2="539.36" y2="560.34"/><line class="h" x1="546.08" y1="528.58" x2="563.82" y2="559.85"/><line class="h" x1="568.75" y1="529.1" x2="588.21" y2="559.32"/><line class="h" x1="591.84" y1="529.39" x2="612.19" y2="559.03"/><line class="h" x1="613.85" y1="530.57" x2="637.25" y2="557.86"/><circle class="f" cx="300.45" cy="349.96" r="50.85"/><path class="f" d="M360.31,490.35,299,448.79a8.44,8.44,0,0,0-10.59.9l-94.18,90.59"/><path class="f" d="M244.59,491.84l27.33-2.71a35.21,35.21,0,0,1,14.94,1.75h0a35.21,35.21,0,0,0,33-5.44l15.49-12"/><path class="f" d="M851.74,544.1,708.5,450a9.4,9.4,0,0,0-11.79,1l-71.16,67.57"/><path class="f" d="M647.92,498l30.43-3A39.21,39.21,0,0,1,695,496.91h0a39.21,39.21,0,0,0,36.76-6.06L749,477.5"/><g class="i"><path class="j" d="M912.78,508.29c-68.46-12.1-120.83-21.23-221.36-11.51l-.17,0"/><path class="j" d="M965.26,482.48c-106.43-16.25-163.84-34-308.67-8.37"/><path class="j" d="M1001.84,452l.29,0c-135.67-17.09-196.6-43.13-368.35-.3"/><path class="j" d="M1028.26,420.19C872,403.56,805.65,370.36,618.16,430.63"/><path class="j" d="M1045.19,386.61C876.64,371.07,802.1,332.25,607.4,409"/><path class="j" d="M1053.75,352.1c-172.15-14.44-262.07-52-453.72,36.23"/><path class="j" d="M1054,316.91c-170.33-14-272.54-50.07-458.09,48.22"/><path class="j" d="M1045.41,281c-163.71-14.27-273.06-48.74-449.47,57.46"/><path class="j" d="M599.8,310.83l1.49-1C763.9,200.25,873.57,229.2,1025.4,244.06"/><path class="j" d="M986.58,205.06c-128.1-13.63-234.31-26.69-369.12,67.05"/><path class="j" d="M883.17,162.39l-.38,0c-65.15-3-127.85,5.44-194.33,37.71h.05"/></g></g></svg>