<svg xmlns="http://www.w3.org/2000/svg" viewBox="0 0 1200 630"><defs><style>.a{isolation:isolate;}.b{mix-blend-mode:multiply;}.c,.h,.i,.j,.k{fill:none;stroke-linecap:round;stroke-linejoin:round;}.c{stroke:#e1e8f6;stroke-width:5px;}.d{fill:#fff;}.e{fill:#ffea83;}.f{fill:#e1e8f6;}.g{fill:#f15a24;}.h,.i,.j,.k{stroke:#324681;}.h{stroke-width:3.14px;}.i{stroke-width:3px;}.j,.k{stroke-width:2px;}.k{stroke-dasharray:2 8;}</style></defs><title>result-5</title><g class="a"><g class="b"><path class="c" d="M347,185.57c67.71,14.7,119.75,25.93,222.27,26.93H569"/><path class="c" d="M291.43,200.56C397,221.5,452.91,239.48,601.89,232.39"/><path class="c" d="M251,220.5h-.2c135,24,193.45,48.44,371.52,30.76"/><path class="c" d="M220.87,241.77c155.74,25.35,219,55.6,414.9,26.22"/><path class="c" d="M200,265.39C368.33,291,439.17,326.06,644.21,285"/><path class="c" d="M187.52,290.41c172.05,25,258.55,60.49,461.8,10.61"/><path class="c" d="M183.28,316.61c170.27,24.55,269.33,59.91,467.56,2"/><path class="c" d="M188,344.08c163.56,24.21,270,59,459.89-5.56"/><path class="c" d="M640.86,358.8l-1.61.62C462.9,427.61,355.51,396.94,204,373.28"/><path class="c" d="M238.79,405.57c127.7,20.78,233.39,39.32,379.91-19.38"/><path class="c" d="M338,445.5h.72c65.39,8,129.6,7,200.28-12h0"/></g><path class="d" d="M980.43,263.47l-1.28,1.25c-7,6.88,19,15.22,17,6.84S980.43,263.47,980.43,263.47Z"/><path class="d" d="M1015.62,285.61c-3.79-13.18-19.34-11.22-19.34-11.22s4,18.8,7.37,22.28,3.34-10.48,5.55-11.24S1019.42,298.79,1015.62,285.61Z"/><path class="d" d="M969.41,323.37l-1.12,3.72-1.11-1.17,5.31-6.1a5.87,5.87,0,0,0,1.34-4.94l-.13-.68a5.9,5.9,0,0,0-10.82-2l-1.16,1.91-2.84-6.81,2.83-3.25a5.86,5.86,0,0,0,1.42-4.34l0-.47a5.91,5.91,0,0,0-6.87-5.34l-.32.05a5.86,5.86,0,0,0-4,2.73l-2.59,4.24-2.56-4.76,1.56-2.85a5.87,5.87,0,0,0,.42-4.66l-.05-.18a5.92,5.92,0,0,0-7.24-3.83l-10.18-18-.19.54-11.83-21.6.1,0,11.93,21.1-11.92-21.09h0a8.46,8.46,0,0,0,4.4-3.93l1.92-3.61h0s0-.17,0-.17a27.15,27.15,0,0,0,7.53.9l-1.73.32s4.51,15.87,10.47,14.24c1.4,9.17,17.51,10.3,20.7,5.6-.33,2.35.49,5.83,7.76,6.9,11.29,1.66,13.1-5.74,7-8.28s-14.07-.88-14.07-.88-.07.13-.18.36a3.8,3.8,0,0,0-.12-.82c-2-7.59-18.49-4.7-18.49-4.7l-1,.65c2.88-3.91-1.69-15.33-1.69-15.33l-5.28,1.12h0c.31-.13.63-.27.93-.43a8.87,8.87,0,0,0,1.31-.87h0l.06.11c22.86-.3,36.75-14,35.3-40.34s-4.61-52.82-42.09-59.84c-41.12-7.7-43.61,11.62-43.62,11.74h0s-11.16,17.43-18.34,29c-3.72,6-11.43,15.79-15.41,28.35l-35.47-8.19-.92.28-14.53-3.06a7.58,7.58,0,0,0-9,5.6l-.2.78,0,.1,0-.11L715,207.24l-15.58-2.87-10.35-5.2-35.62-33.84-21.5-20.48,0-.19a25.63,25.63,0,0,0-9.69-15.37l-17.77-16a4.18,4.18,0,0,0-6.22,5.27,4.05,4.05,0,0,0,.7,1l2.12,2.2-4.29-.06-20.52-8a3.82,3.82,0,0,0-3.32,6.87s.09,1.27.14,1.29L575,124h-.6l-1.45-2.47c-2-.8-4.26-.28-5,1.74a3.26,3.26,0,0,0,.19,2.88,3.51,3.51,0,0,0,1.24,1.27,4.33,4.33,0,0,0,.41.18l3.17,1.59-.36,1.71-3.29-3.49a3.82,3.82,0,0,0-3.18,6.94l4.69,2.41,5.6,2.86,1.58,1.73-7.21-4.55a3.82,3.82,0,0,0-3.18,6.95s13,8.68,27.15,13.32c1.58.52,5.63.83,9.24,1.16l1.14.26,7.17,1.44,52.63,63.89c.82,1,1.68,2,2.56,3h0a69.56,69.56,0,0,0,34.21,20.64l77.81,9.4c-1.81,5.87-5.23,21.84-7.43,27.58l.51-.13-.23.48-.28-.35q-2.52,6.58-5.41,13L736.54,364.9l-9.94,16.23-40.32,38.21a8.23,8.23,0,0,0-1,10.86c1.07,1.45,2.33,3.13,3.75,5l1.07,1.38-1.33,1,.25-2.34-29.27,19a45.43,45.43,0,0,0-18.73,51.22l30.44,91.41,65,2.89-11.45-76,5.72-6.34,48.53-6.93L814,599.73l70.81-2.89-13.95-89c10.36-7,18-15.29,17.65-24.46-1.08-29.06-15.44-45.31-14.09-61.54s16.69-40.12,21.68-47.51l2.25-.91a13.63,13.63,0,0,0,10.87,7l8.93.7c7.15.56,14.07-1.3,18.19-7.17L952.76,352h-.68l1.43-2.75c.11.62.33.52.7,1.08a4.41,4.41,0,0,0,5.85,1.09L971.69,345C985.48,338.3,969.41,323.37,969.41,323.37ZM612.85,160.27h0Zm163.6,342.68,0,0,2.88,7.42ZM928.36,218.13l1.92,3.37a45.56,45.56,0,0,0-7.05,1.7C924.52,221.71,926.44,220,928.36,218.13ZM917,237.33h0a13,13,0,0,0,1.22-1.21c1-1.17,3.59.34,7.2,1.46h0Z"/><path class="e" d="M779.27,509.43l-.25.11-42.77,5.75A12.85,12.85,0,0,0,725.45,531L730,574.66l-65-2.89-23.9-66.34a45.42,45.42,0,0,1,18.73-51.22l29.26-19h0c13.49,17.55,41.57,50.32,64.26,51.86,22.92,1.55,34.68-42.45,34.68-42.45l18.44,67.11a21.36,21.36,0,0,0,28.71,14.13c10.23-4.21,23.16-9.86,33.73-16.68l.26.41,9.14,62.21-70.81,2.89Z"/><polygon class="f" points="626.5 152.52 680.89 204.21 667.49 226.79 617.45 165.54 626.5 152.52"/><path class="d" d="M660.24,510.9l22.21,61.64L665,571.77l-23.9-66.34a45.42,45.42,0,0,1,18.73-51.22l29.26-19h0c2.65,3.45,5.87,7.49,9.5,11.76L679,459.68A45.42,45.42,0,0,0,660.24,510.9Z"/><path class="f" d="M1015.63,285.61c3.78,13.18-4.21-.95-6.42-.19s-2.21,14.72-5.55,11.24-7.37-22.28-7.37-22.28S1011.83,272.44,1015.63,285.61Z"/><path class="f" d="M996.18,271.57c2,8.37-24,0-17-6.84l1.28-1.25S994.23,263.18,996.18,271.57Z"/><path class="f" d="M978,257.51c6.06,2.54,4.25,9.93-7,8.28-7.24-1.06-8.09-4.52-7.77-6.87a3,3,0,0,0,.57-2c.1-.21.16-.33.16-.33S971.95,255,978,257.51Z"/><path class="f" d="M974.86,196.37c1.37,25.22-11.25,38.82-32.35,40.21-1,.08-2,.12-3,.13l-.08-.11c6.54-5.1,2-16.54-6.91-15.36a49.26,49.26,0,0,0-8.74,2c4.14-4.79,14.9-11.51,10.71-21.61a16.24,16.24,0,0,1-.59-11.45c1.53-4.34,4.11-10-1.52-14.85-9.34-8-21-4.46-26-7.64-3.19-2-2.78-3.78-3.25-7.95-.56-4.9-4.2-8.18-8.88-9.73l-5.12-1.7s2.38-19.46,43.62-11.73C970.25,143.55,973.41,170,974.86,196.37Z"/><path class="f" d="M963.66,256.16a3.62,3.62,0,0,1,.12.8,7.46,7.46,0,0,0-.57,2c-3.24,4.67-19.3,3.51-20.69-5.65a3.19,3.19,0,0,0,2.17-2l.48.21S961.67,248.57,963.66,256.16Z"/><path class="f" d="M942.52,236.78s4,10,2.17,14.47a3.19,3.19,0,0,1-2.17,2c-6,1.62-10.47-14.26-10.47-14.26v-.38a15.78,15.78,0,0,0,4.09-.39,8,8,0,0,0,2-.77,8.76,8.76,0,0,0,1.31-.86l.08.11c1,0,2-.05,3-.13Z"/><path class="g" d="M935.86,267.72l10.17,18-.47.13a5.89,5.89,0,0,0-3.93,3.72L940,294.33l-15.3,4.3Z"/><path class="g" d="M874.59,441.39l-1.64.48s-31.53,26.55-86.44,9.4-61.42-63.45-61.42-63.45L735,371.6s10.3,31.42,60.15,49.85,79.27-.81,79.27-.81A42.84,42.84,0,0,0,873,428.5,35.87,35.87,0,0,0,874.59,441.39Z"/><path class="g" d="M816.56,197.37l-22.48,58.41a43.43,43.43,0,0,1-31,26.77A263.09,263.09,0,0,0,772,255c.41-1.56.82-3.13,1.2-4.7l12.55-51.1.19-.76a7.59,7.59,0,0,1,9-5.62Z"/><path class="d" d="M974.23,187.16c-3.46-18.27-12.52-33.78-39.91-38.9-20.57-3.86-31.48-.95-37.23,2.93a15.89,15.89,0,0,0-2.81-1.22l-5.12-1.7s2.38-19.46,43.62-11.73C965.88,142.73,972.2,164.09,974.23,187.16Z"/><path class="h" d="M632,144.89l0-.23a25.63,25.63,0,0,0-9.69-15.37l-17.77-16a4.18,4.18,0,0,0-6.21,5.27,4.34,4.34,0,0,0,.71,1l3.12,3.23,2.67,2.75,8.11,13.31"/><path class="h" d="M601.33,123.49l-25.08-9.82a3.83,3.83,0,0,0-4.82,5.33,3.78,3.78,0,0,0,1.5,1.54h0l.13.08,18.84,9.64"/><path class="h" d="M572.91,120.59a3.82,3.82,0,0,0-5,2.2,3.74,3.74,0,0,0,.2,3.12,3.47,3.47,0,0,0,1,1.18,1.71,1.71,0,0,0,.27.22l.4.24,18.84,9.64"/><path class="h" d="M569.28,127.41l-.36-.13a3.82,3.82,0,0,0-4.66,2.32,3.77,3.77,0,0,0,.2,3.13,3.85,3.85,0,0,0,1.64,1.62l4.69,2.41L584.94,144"/><path class="h" d="M794.75,201l-74.65,5.77a48.64,48.64,0,0,1-37.38-13.36L632,144.89s-5.42,10.3-8.49,13"/><path class="h" d="M781,256.84l-79.3-9.4a69.48,69.48,0,0,1-34.21-20.64q-1.32-1.46-2.55-3l-49.77-61.48a9.87,9.87,0,0,0-5.43-3.4c-3-.7-12.36-1-15-1.85-14.15-4.63-27.15-13.32-27.15-13.32a3.71,3.71,0,0,1-1.65-1.62,3.78,3.78,0,0,1-.19-3.12,3.82,3.82,0,0,1,5-2.2"/><path class="h" d="M736.54,364.91s10.3,31.42,60.15,49.85S876,414,876,414"/><path class="h" d="M854.4,205.31l-28.82-6.07-21.7-4.58a7.59,7.59,0,0,0-9,5.62l-.19.76-12.55,51.1c-.38,1.57-.79,3.14-1.2,4.7a263.09,263.09,0,0,1-8.94,27.57q-2.52,6.59-5.41,13l-21.36,49.36"/><path class="h" d="M888.55,148.27s-11.16,17.42-18.34,29c-3.7,6-11.36,15.68-15.35,28.16a49.63,49.63,0,0,0-2,23.19,21.13,21.13,0,0,0,20.24,17.52,128,128,0,0,0,25.06-1.72c6.42-1.12,12.54-2.89,16.75-5.56a15,15,0,0,0,3.31-2.77c1-1.19,3.67.34,7.39,1.48a21.38,21.38,0,0,0,5.81,1,15.78,15.78,0,0,0,4.09-.39,8,8,0,0,0,2-.77,8.76,8.76,0,0,0,1.31-.86c6.54-5.1,2-16.54-6.91-15.36a49.26,49.26,0,0,0-8.74,2c4.14-4.79,14.9-11.51,10.71-21.61a16.24,16.24,0,0,1-.59-11.45c1.53-4.34,4.11-10-1.52-14.85-9.34-8-21-4.46-26-7.64-3.19-2-2.78-3.78-3.25-7.95-.56-4.9-4.2-8.18-8.88-9.73Z"/><path class="h" d="M888.55,148.27s2.38-19.46,43.62-11.73c37.47,7,40.64,33.46,42.09,59.83,1.37,25.22-11.25,38.82-32.35,40.21-1,.08-2,.12-3,.13"/><line class="h" x1="877.6" y1="204.4" x2="872.94" y2="208.93"/><line class="h" x1="899.98" y1="195.83" x2="909.9" y2="199.05"/><line class="h" x1="879.91" y1="173.79" x2="881.29" y2="180.79"/><line class="h" x1="890.51" y1="203.19" x2="897.36" y2="205.42"/><line class="h" x1="875.55" y1="186.87" x2="876.5" y2="191.71"/><path class="h" d="M941.92,236.78s4,10,2.17,14.47a3.19,3.19,0,0,1-2.17,2c-6,1.62-10.47-14.26-10.47-14.26"/><path class="h" d="M944.57,251.46s16.5-2.89,18.49,4.7a3.62,3.62,0,0,1,.12.8,3,3,0,0,1-.57,2c-3.24,4.67-19.3,3.51-20.69-5.65"/><path class="h" d="M963.18,257c.1-.21.16-.33.16-.33s8-1.66,14.08.88,4.25,9.93-7,8.28c-7.24-1.06-8.09-4.52-7.77-6.87A7.46,7.46,0,0,1,963.18,257Z"/><path class="h" d="M980.43,263.48s13.8-.29,15.74,8.09-24,0-17-6.84Z"/><polyline class="h" points="915.62 239.03 919.3 245.54 931.24 266.64 941.41 284.64"/><path class="h" d="M941.41,284.64a5.91,5.91,0,0,1,7.24,3.83l.07.19a5.88,5.88,0,0,1-.44,4.66l-1.17,2.13-4.79,8.73a5.11,5.11,0,0,1-9.58-2.46A5,5,0,0,1,933,300l2.34-6.79,1.65-4.75a5.89,5.89,0,0,1,3.93-3.72Z"/><path class="h" d="M950.75,298.52l1.12-1.84a5.87,5.87,0,0,1,4-2.74l.32-.05a5.91,5.91,0,0,1,6.87,5.34l0,.47a5.87,5.87,0,0,1-1.42,4.34l-2.82,3.25-5.35,6.15a5.11,5.11,0,0,1-8.21-6Z"/><path class="h" d="M961.72,314.09l1.16-1.9a5.89,5.89,0,0,1,4.08-2.74,5.53,5.53,0,0,1,.94-.08,5.93,5.93,0,0,1,5.81,4.81l.13.69a5.89,5.89,0,0,1-1.34,4.94l-3.09,3.54-4.85,5.57a5.12,5.12,0,0,1-6.78.83,5.1,5.1,0,0,1-1.43-6.85l5.38-8.81"/><path class="h" d="M969.41,323.36s16.07,14.77,2.28,21.5l-11.62,6.2a4.52,4.52,0,0,1-5.86-1.44c-.07-.1-.13-.2-.19-.29a4.57,4.57,0,0,1-.59-2.24,4.49,4.49,0,0,1,1.74-3.57l10.65-8.25"/><path class="h" d="M935.37,293.24l-15.3,4.3-3.89,1.09a6.21,6.21,0,0,0-4,5.39l-1,13.72c0,.37,0,.74,0,1.11a15.38,15.38,0,0,0,3.52,9.78l7.83,9.49.27.29a5.29,5.29,0,0,0,7.76-7.17L929.41,330c-9-9.39-6.51-15.28-6.51-15.28"/><line class="h" x1="947.43" y1="295.61" x2="950.74" y2="298.52"/><polyline class="h" points="958.89 307.29 961.72 314.09 961.72 314.1"/><path class="i" d="M922.46,338.65l.08,1.2c.55,5.53,5.19,10.14,10.75,10.14h19.47l-16.38,22.92a20.14,20.14,0,0,1-18.19,8.36l-9.31-.8a14.3,14.3,0,0,1-11.6-7.84A13,13,0,0,1,896,365v0c1.09-5.11,14.72-46.16,14.72-46.16"/><path class="h" d="M825.58,199.23,803.1,257.64a43.41,43.41,0,0,1-11,16.22"/><line class="h" x1="857.63" y1="272.49" x2="796.69" y2="414.76"/><path class="h" d="M736.54,364.91l-9.93,16.22s6.5,46.3,61.42,63.45c39.14,11,69.61-.26,69.61-.26"/><path class="h" d="M996.28,274.39s15.55-2,19.34,11.22-4.21-.95-6.42-.19-2.21,14.72-5.55,11.24S996.28,274.39,996.28,274.39Z"/><line class="h" x1="931.24" y1="266.64" x2="920.07" y2="297.54"/><path class="i" d="M689.06,435.18l-29.26,19a45.42,45.42,0,0,0-18.73,51.22L665,571.77"/><line class="i" x1="776.46" y1="502.97" x2="807.49" y2="574.66"/><line class="i" x1="869.16" y1="509.55" x2="878.3" y2="571.77"/><path class="i" d="M730,574.66,725.45,531a12.85,12.85,0,0,1,10.79-15.7L779,509.54"/><path class="j" d="M879.91,230.77a3.07,3.07,0,0,1,.5-.41l1.37-.94a3.66,3.66,0,0,1,3.9-.13l2.65,1.55a3.66,3.66,0,0,1,.81,5.66L887.78,238a3.66,3.66,0,0,1-4.93.36l-2.64-2.07A3.66,3.66,0,0,1,879.91,230.77Z"/><path class="j" d="M925.65,237.59l-1.94,3.83a8.79,8.79,0,0,1-4.42,4.12,6,6,0,0,1-.73.28l-7.12,2.3a11.94,11.94,0,0,1-10.84-1.73c-.8-.6-1.6-1.26-2.41-2-3.39-2.91-6.68-6.32-9-7.9l-.07,0"/><path class="h" d="M667.47,226.8s12.89-19.1,14.33-24.31"/><path class="h" d="M788,444.58s-11.76,44-34.68,42.45c-25.07-1.7-56.72-41.51-68-56.82a8.24,8.24,0,0,1,1-10.86l40.32-38.22"/><path class="h" d="M896.14,374.3C893.5,378.08,880.71,396.92,876,414a42.84,42.84,0,0,0-1.49,7.85,35.87,35.87,0,0,0,1.64,12.9c3.58,12.66,11.64,27.15,12.45,48.64.7,18.85-32.18,33.75-53.38,42.48a21.36,21.36,0,0,1-28.71-14.13l-7.64-24.61"/><line class="j" x1="879.91" y1="230.77" x2="888" y2="236.51"/><path class="h" d="M876.57,225.76c2.93-1.11,3-4.79.14-5.45-3.64-.85-7.69-3.29-11.3-9C857.08,198.28,856,233.59,876.57,225.76Z"/><line class="k" x1="660.28" y1="219.21" x2="673.29" y2="200.87"/><line class="k" x1="630.67" y1="175.64" x2="640.19" y2="155.28"/><line class="k" x1="635.23" y1="187.47" x2="644.75" y2="167.1"/><line class="k" x1="646.38" y1="191.25" x2="660.48" y2="173.74"/><line class="k" x1="654.23" y1="210.37" x2="668.32" y2="192.86"/><path class="e" d="M439.7,234.5,458.49,220s16,41.91,60.37,49.27S578.2,308.8,578.2,308.8l-17.75,15.48s-23.29-29.8-60.73-36.73C459.54,280.1,439.7,234.5,439.7,234.5Z"/><path class="j" d="M439.7,225.33l18.79-14.53s16,41.91,60.37,49.27,59.34,39.55,59.34,39.55L560.45,315.1s-23.29-29.8-60.73-36.73C459.54,270.93,439.7,225.33,439.7,225.33Z"/><path class="g" d="M333.93,281.21l12.6-9.74s10.73,28.1,40.47,33S426.79,331,426.79,331l-11.9,10.38s-15.62-20-40.71-24.63C347.24,311.78,333.93,281.21,333.93,281.21Z"/><path class="j" d="M333.93,272.87l12.6-9.74s10.73,28.1,40.47,33,39.78,26.52,39.78,26.52l-11.9,10.38s-15.62-20-40.71-24.63C347.24,303.45,333.93,272.87,333.93,272.87Z"/><path class="f" d="M343.17,167l-.5-16.73s30.53,8.24,53.11-14,47.15-17.44,47.15-17.44l1.47,16.53s-26.64.93-46.11,19.4C377.4,174.58,343.17,167,343.17,167Z"/><path class="j" d="M337.94,163.19l-.5-16.73s30.53,8.24,53.11-14S437.7,115,437.7,115l1.47,16.53s-26.64.93-46.11,19.4C372.16,170.78,337.94,163.19,337.94,163.19Z"/></g></svg>