<svg xmlns="http://www.w3.org/2000/svg" viewBox="0 0 1200 630"><defs><style>.a{isolation:isolate;}.b{fill:#ffea83;}.c{fill:#fff;}.d{fill:#e1e8f6;}.e{fill:#f15a24;}.f{fill:#324681;}.g,.h,.i,.k{fill:none;}.g,.h,.i{stroke:#324681;}.g,.i,.k{stroke-linecap:round;stroke-linejoin:round;}.g{stroke-width:3px;}.h{stroke-miterlimit:10;}.i{stroke-width:2px;}.j{mix-blend-mode:multiply;}.k{stroke:#e1e8f6;stroke-width:5px;}</style></defs><title>result-1</title><g class="a"><polygon class="b" points="592.69 251.18 582.76 243.28 561.82 245.41 562.46 245.85 577.26 255.8 592.69 251.18"/><path class="c" d="M566.31,387c-.75,15.49-.78,31.86-.41,47.65a.55.55,0,0,1,0,.14c.5,21.06,1.72,41.74,2.9,57.36L570.6,528H358.16L371,514.8a421.15,421.15,0,0,0,45.77-45l.2-.36.13-.27c11.65-13.53,22.7-28.72,30.45-44.35,5.89-11.89,9.88-24.08,10.76-36a64.26,64.26,0,0,0,.17-6.63c-.79-29.58-6.66-43.54-10-49.13l-1.56-5.74a44.83,44.83,0,0,0,5.54-44.06,65.55,65.55,0,0,0-6.78-12.54c-11.88-16.77-23-32.9-23.32-33.4l.16-.14,13.32-9.67a21.1,21.1,0,0,1,27.8,3.22,91.87,91.87,0,0,1,6.16,7.7c12.07,16.68,31.6,24.84,52.18,30.52,3.18.87,9.95,1.47,17.57,1.87a39,39,0,0,1,8.44,1.4l1.24.38.77.26a36.21,36.21,0,0,1,3.61,1.44q.67.3,1.31.62t1.34.72c.32.17.64.35.95.54a4.15,4.15,0,0,1,.36.22c.37.22.75.46,1.11.7l.1.07c.42.27.82.54,1.22.83.74.52,1.47,1.07,2.16,1.66l.41.33c.3.25.59.51.87.77a37.22,37.22,0,0,1,3.24,3.3c.24.28.49.57.72.86a1.28,1.28,0,0,1,.19.23c.27.32.52.66.77,1s.58.78.85,1.19.44.66.65,1a30.12,30.12,0,0,1,1.71,3c.19.35.36.72.54,1.09a33.25,33.25,0,0,1,2.29,6.58c.05.2.09.41.15.61s.15.7.21,1.05a1,1,0,0,1,0,.25c.08.41.15.82.2,1.24a2,2,0,0,1,0,.26c.05.42.1.83.14,1.26a1.65,1.65,0,0,1,0,.25c0,.29,0,.57.05.86a2.55,2.55,0,0,1,0,.29l.36.59c0,.41.35.8.35,1.21v.56c-1,10.3-5.68,38-7.82,58.7-.1,1-.36,1.92-.45,2.88-.07.68-.22,1.36-.27,2.05-.25,2.81-.51,5.69-.7,8.6-.06.85-.14,1.72-.18,2.58s-.12,2-.18,3C566.38,385.8,566.34,386.39,566.31,387Z"/><path class="c" d="M371.14,372.76l-2,1.44-.91.64-.92.65-6.84,4.86-1.75,1.25-.9.64L356,383.52l-2.76,2-1,.72-1.92,1.37c-4.84,3.48-10,7.18-15.12,10.92L333.13,400c-3.79,2.76-7.57,5.54-11.27,8.28-1.32,1-2.65,2-3.95,2.94L316,412.68c-6.64,5-12.77,9.67-17.71,13.64-.3.24-.59.49-.9.72-2.65,2.16-4.93,4.07-6.74,5.7l-.58.53c-1.11,1-2,1.9-2.68,2.62-11.41,12.6-11.63,15.28-15.78,19.79-4.69,5.11-24.4,17.41-24.4,17.41a3.68,3.68,0,0,1-4.49-5.81l0,0-4.14,2.92a3.69,3.69,0,0,1-4.86-.56,3.67,3.67,0,0,1,.37-5.25l-.06-.1h0a1.85,1.85,0,0,1-.39.18,4.71,4.71,0,0,1-.5.16,2.4,2.4,0,0,1-.37.06,3.23,3.23,0,0,1-.45,0,3.63,3.63,0,0,1-2.74-1.23,3.68,3.68,0,0,1,.36-5.25l0,0-.36.21a.53.53,0,0,1-.18.07,1.49,1.49,0,0,1-.35.14l-.08,0-.43.1-.18,0-.4,0a3.68,3.68,0,0,1-2.38-6.48l15.87-13.44-7.67,2.25a3.9,3.9,0,0,1-1.14.17l-1.71-.39a4.86,4.86,0,0,1-.51-.28l-.46-.36a2.44,2.44,0,0,1-.32-.33l-.14-.16a2.7,2.7,0,0,1-.25-.35l-.07-.14a3,3,0,0,1-.25-.48,4,4,0,0,1,2-5.15l36.92-17.42,5.18-4.52,30-26.13,45.28-39.47.83-.41a1.07,1.07,0,0,1-.07-.16c-.15-.28-.28-.57-.41-.86a1.07,1.07,0,0,1-.09-.23q-.2-.47-.37-.94a.38.38,0,0,1,0-.11c-.11-.31-.22-.64-.32-1s-.2-.69-.28-1-.16-.66-.22-1a14.32,14.32,0,0,1-.24-1.49,20.51,20.51,0,0,1,3.68-14.46c19.83-27.75,61.45-78.59,71.74-87.15h0c.34.5,11.43,16.63,23.32,33.4a65.55,65.55,0,0,1,6.78,12.54,44.82,44.82,0,0,1-5.54,44.06c-.39.52-.79,1-1.2,1.54,0,0,0,0,0,0-.41.49-.82,1-1.25,1.46s-.89,1-1.34,1.45-.93.94-1.41,1.4c-13.31,12.58-31.42,27.37-46.07,30.88a31.28,31.28,0,0,1-4.88.77,36.55,36.55,0,0,1-6.32,0c-.58-.05-1.16-.12-1.74-.2s-1.16-.17-1.73-.27l-.32,1.8S377,368.61,371.14,372.76Z"/><path class="c" d="M371,514.15l45.77-44.72A413,413,0,0,1,371,514.15Z"/><path class="c" d="M417.1,469.05l30.45-44.31C439.8,440.37,428.75,455.53,417.1,469.05Z"/><path class="c" d="M447.55,424.74l10.76-36C457.43,400.69,453.44,412.85,447.55,424.74Z"/><path class="c" d="M458.47,382.12a64.06,64.06,0,0,1-.17,6.62l-2.42-28.65-7.4-27.1C451.8,338.58,457.68,352.54,458.47,382.12Z"/><path class="c" d="M547.82,270.87l.43.42-.25.87a39,39,0,0,0-8.44-1.4c-7.62-.41-14.39-1-17.57-1.87-20.59-5.69-40.11-13.84-52.18-30.52a91.87,91.87,0,0,0-6.16-7.7,21.1,21.1,0,0,0-27.8-3.22l-13.32,9.67,14.65-12.28,0,0a41.72,41.72,0,0,1-9.79-5.88l-1-.84a.55.55,0,0,1-.12-.1c-.3-.26-.59-.52-.89-.79s-.81-.74-1.2-1.13-.57-.56-.84-.85-.51-.53-.76-.8l-.74-.82c-.72-.82-1.42-1.67-2.08-2.54-19.3-25.17-11-61.68,16.62-77.21,12-6.73,24.11-12.72,30-13.21,14-1.19,19.45,16,19.45,16l1,.45.34.17.6.3c3.43,1.84,12.51,9.26,12.51,9.26a14.9,14.9,0,0,0,5.75,2.59l5.34,1.2a5.89,5.89,0,0,1,4.6,5.88v1.76c0,.24.24.48.26.72a8.69,8.69,0,0,0,.33,1.24,7.07,7.07,0,0,0,1.86,3.17v0l-1,.17-.66.15,8.76,7.27.41-.43c1,1,2.07,2,3.12,3a11.86,11.86,0,0,1-2.72,19.13l-.81.43a32.25,32.25,0,0,0-8.82,29.49c.15.68.29,1.35.46,2,.05.26.11.52.18.77.18.72.36,1.43.56,2.13a.11.11,0,0,0,0,.05q.33,1.17.69,2.31t.78,2.31a0,0,0,0,0,0,0c.3.45,5,7.65,10.79,15.92C536.21,256.66,543.3,266.32,547.82,270.87Z"/><path class="c" d="M565.92,434.78l2.9,56.71C567.64,475.87,566.42,455.84,565.92,434.78Z"/><path class="c" d="M616,443.72h0l-3.62,3.84-1.54,1.64-3.18,3.64-1.74,2-3.12,3.57,0,0v0l-1-2.39-2.7.8-2.21.66-6.05,1.8-.05,0-24.81-24.59c-.37-15.8-.34-32.17.41-47.65-.08,1.75-.16,3.52-.22,5.29l3.08,2,44.75,29.06-.28.77-1.79,5h0l-5.64-.76-2.27-.3,6,7.82Z"/><path class="d" d="M555.29,272.16c15.68,4.44,27.62,18.45,27.35,35.21-.18,10.3-5.35,38-7.49,58.7-.86,8.36-1.44,17.95-1.77,27.07-.06,1.71-.12,3.86-.17,5.86h0c-36,0-64.65-27.74-68.68-63.49l-8.86-78.95.43-.88c9.9,6,21.38,10,33.2,13.29,3.18.87,9.95,1.42,17.57,1.83A39,39,0,0,1,555.29,272.16Z"/><path class="e" d="M463.22,230.17l0,0a21.08,21.08,0,0,0-24.38-4.47l-.12-.26a43,43,0,0,1-18.94-14.41c-19.3-25.17-11-61.68,16.62-77.21,12-6.73,24.11-12.72,30-13.21,14-1.19,19.45,16,19.45,16-5.79-2.42-18.12-5.95-16.56-1.57,1.77,5,12.26,6.07,1.43,11s-27-.57-21,9,22.26,23.24,13.43,30-8.29,10.29-6,14.72,12.07,6.75,16.33-1.24,9.66-2.62,21.83,9.13l-.58.6c-3.59.09-13.73-1.81-13.73-1.81,2.18,5.69.82,14.56.82,14.56-4.73-4.61-8-4.85-8-4.85,4.55,3.14,1.77,11.72,1.77,11.72a14.83,14.83,0,0,1-3.52,3.3A6.65,6.65,0,0,1,463.22,230.17Z"/><path class="f" d="M485.85,152.81a2.7,2.7,0,1,1-2.71,2.7A2.71,2.71,0,0,1,485.85,152.81Z"/><path class="b" d="M452.46,283.2a45,45,0,0,1-10.76,49.93c-13.31,12.58-31.42,27.37-46.07,30.88a35.91,35.91,0,0,1-14.67.26c-9-1.59-17.68-6-24.76-10.58a20.64,20.64,0,0,1-5.58-29.28c19.83-27.75,61.45-78.59,71.74-87.15,0,0,11.26,16.37,23.33,33.41A65.55,65.55,0,0,1,452.46,283.2Z"/><path class="b" d="M314.5,395.62c2.59,3,6.31,10.5,7.36,12.67-13.56,10-25.78,19.45-31.82,25,0,0-4.05-9-6.76-12.27a13.07,13.07,0,0,0-5.17-4.14l30-26.13C309,391.42,311.62,392.24,314.5,395.62Z"/><path class="d" d="M644.86,155c.5-.28,1,0,1.56,0h11.94c4,0,7.64,1.53,9.31,5.18l11.86,26.14a10,10,0,0,1-9.31,14.15s-3.75-.06-7.5,0A12,12,0,0,1,652,193.84c0-.07-.07-.18-.11-.25-3.69-7.59-8.53-18.21-10.58-22.77-.18-.39-.33-.72-.46-1-.06-.14-.12-.26-.18-.39s-.15-.32-.21-.45l-.17-.39a11.23,11.23,0,0,1-.91-2.94,8.33,8.33,0,0,1,0-3A10.43,10.43,0,0,1,644.86,155Z"/><path class="c" d="M431.68,250.72C419.81,261.58,380.21,310,361,336.9a20.6,20.6,0,0,0-2.94,18c-.65-.4-1.28-.8-1.9-1.2a20.64,20.64,0,0,1-5.58-29.28c19.83-27.75,61.45-78.59,71.74-87.15C422.35,237.25,426.15,242.76,431.68,250.72Z"/><path class="c" d="M430.17,211.05a43.61,43.61,0,0,0,15.19,12.77,21,21,0,0,0-6.54,1.91l-.12-.26a43,43,0,0,1-18.94-14.41c-19.3-25.17-11-61.68,16.62-77.21,12-6.73,24.11-12.72,30-13.21a14.88,14.88,0,0,1,6.47.83c-6.52,1.95-16.33,6.91-26.08,12.38C419.13,149.37,410.87,185.88,430.17,211.05Z"/><path class="g" d="M571.59,522.73s-4.35-39.49-5.58-84.52c-.37-13.35-.48-27.19-.09-40.63,0-1.72.1-3.44.17-5.14.33-9.12.91-18,1.77-26.36,2.13-20.69,7.31-48.4,7.49-58.7.27-16.76-11.66-30.77-27.35-35.21a39,39,0,0,0-8.44-1.4c-7.62-.41-14.39-1-17.57-1.87-11.82-3.27-23.3-7.34-33.2-13.38a64.14,64.14,0,0,1-19-17.14,91.87,91.87,0,0,0-6.16-7.7c-.15-.17-.29-.32-.45-.48a21.08,21.08,0,0,0-24.38-4.47,20.46,20.46,0,0,0-3,1.73l-12.46,10.09s10.23,16.08,22.3,33.11a65.55,65.55,0,0,1,6.78,12.54,45,45,0,0,1-10.76,49.93c-13.31,12.58-31.42,27.37-46.07,30.88a35.91,35.91,0,0,1-14.67.26c-9-1.59-17.68-6-24.76-10.58a20.64,20.64,0,0,1-5.58-29.28c19.83-27.75,47.93-61.47,56.32-71.41"/><path class="g" d="M446.24,329.86s11.12,10.78,12.23,52.26c1.74,65.45-98.12,140.61-98.12,140.61"/><path class="g" d="M525.59,193.09a32.25,32.25,0,0,0-8.82,29.49,72,72,0,0,0,2.68,9.6,67.26,67.26,0,0,0,8.32,16c5,7.22,11.63,14.5,20.48,23.07"/><path class="g" d="M526.4,192.66a11.86,11.86,0,0,0,2.72-19.13l-3.12-3c-3.17-3-6-5.72-7.46-7.15l-.51,0a7.64,7.64,0,0,1-2.53-5.12V156.5a5.69,5.69,0,0,0-4.35-5.88l-5.33-1.2a14.4,14.4,0,0,1-5.63-2.59s-9-7.41-12.45-9.26a20.53,20.53,0,0,0-1.93-.92c-5.79-2.42-18.1-5.95-16.54-1.57,1.77,5,12.26,6.07,1.43,11s-27-.57-20.95,9,22.27,23.24,13.44,30-8.29,10.29-6,14.72,12.07,6.75,16.33-1.24,9.66-2.62,21.83,9.13l.09.09"/><path class="g" d="M485.85,136.65s-5.49-17.2-19.45-16c-5.91.5-18,6.49-30,13.21-27.66,15.53-35.92,52-16.62,77.21a43,43,0,0,0,18.94,14.41"/><path class="g" d="M463.2,230.14l0,0a6.65,6.65,0,0,0,8.87,1.08,14.83,14.83,0,0,0,3.52-3.3s2.78-8.57-1.77-11.72c0,0,3.31.24,8,4.85,0,0,1.35-8.87-.82-14.56,0,0,10.13,1.91,13.73,1.81a4.16,4.16,0,0,0,.68-.05"/><path class="g" d="M348.16,346.06l-45.28,39.47-30,26.13-5.18,4.52-36.92,17.42a4,4,0,0,0,1.71,7.64,3.89,3.89,0,0,0,1.14-.17l7.67-2.25,21.9-6.41"/><path class="g" d="M241.33,438.82l-15.87,13.44a3.67,3.67,0,0,0,4.36,5.89.59.59,0,0,0,.14-.08l16.62-11.72"/><path class="g" d="M229.86,458.2a3.68,3.68,0,0,0-.36,5.25,3.64,3.64,0,0,0,2.74,1.23,3.68,3.68,0,0,0,1.74-.44c.14-.07.26-.16.39-.24L251,452.29"/><path class="g" d="M234,464.35a3.68,3.68,0,0,0,4.49,5.81l4.14-2.92,12.48-8.8"/><path class="g" d="M242.7,467.28a3.68,3.68,0,0,0,4.49,5.81s19.71-12.3,24.4-17.41c4.14-4.51,4.36-7.19,15.78-19.79.67-.73,1.56-1.61,2.68-2.62,6-5.53,18.27-14.93,31.82-25,26.78-19.85,58.77-42.22,58.77-42.22"/><path class="g" d="M566.52,392.45l11.19,7.74,34.37,22a4,4,0,0,1-3.78,7.05L601,426l-20.89-9.17"/><path class="g" d="M601,426l14,15.37a3.68,3.68,0,0,1-2.72,6.15,3.6,3.6,0,0,1-2.37-.89.41.41,0,0,1-.1-.08l-15-13.76"/><path class="g" d="M609.86,446.73a3.68,3.68,0,0,1-4.85,5.47,2.25,2.25,0,0,1-.34-.28l-15-13.76"/><path class="g" d="M604.94,452.3a3.67,3.67,0,0,1-5.2,5.18L596,454l-11.25-10.32"/><path class="g" d="M596,454.09a3.68,3.68,0,0,1-5.21,5.19s-18.92-15.45-22.91-21.12"/><path class="g" d="M283.28,421c2.71,3.3,6.76,12.27,6.76,12.27"/><path class="g" d="M302.8,385.46l.08.06c.91.69,9.87,6.82,14,13.89"/><path class="g" d="M518.46,163.41s-14.58,2.07-9.37,9.17,16.5-1.59,16.5-1.59"/><path class="g" d="M639.34,162.23a11.24,11.24,0,0,1,5.52-8c.5-.28,1,.3,1.56.1,1.21-.46,2.54.16,3.95.16h14.9c4.35,0,8.32,1.64,10.13,5.6l14.48,31.31c3.34,7.26-1.83,16.27-9.74,16.54-.12,0-.26.55-.4.55H665.07c-3.26,0-6.29-2.4-8.37-4.77a14.15,14.15,0,0,1-1.74-3.14l-3-6.6-10.69-23.08"/><path class="g" d="M640.81,169.81l-.18-.39-.21-.45-.17-.34a10.65,10.65,0,0,1-.91-3"/><polyline class="g" points="680.5 208 680.5 206.99 679.59 523.29"/><polyline class="g" points="671.1 207 671.1 207 670.19 522.79"/><path class="h" d="M488.55,155.51a2.71,2.71,0,1,1-2.71-2.7A2.71,2.71,0,0,1,488.55,155.51Z"/><line class="i" x1="427.12" y1="246.22" x2="413.42" y2="258.5"/><line class="i" x1="430.68" y1="254.74" x2="416.97" y2="267.02"/><line class="i" x1="436.31" y1="261.18" x2="422.6" y2="273.45"/><line class="i" x1="442.97" y1="267.61" x2="429.28" y2="279.89"/><line class="i" x1="447.29" y1="275.75" x2="433.58" y2="288.03"/><line class="i" x1="449.84" y1="285.97" x2="436.14" y2="298.26"/><path class="g" d="M474.06,232s10.23,15,29.64,16.51c6.55.49,15.3.22,24.13-.14,17.35-.7,34.66-1.8,34.66-1.8L519.44,233.5H520"/><polygon class="g" points="561.82 245.41 582.76 243.28 592.69 251.18 577.26 255.8 562.46 245.85 561.82 245.41"/><path class="g" d="M492.42,292.11l4.81,42.69c3.46,30.72,25.12,55,54,61.22"/><line class="g" x1="648" y1="167.5" x2="662" y2="167.5"/><line class="g" x1="653" y1="178.5" x2="666" y2="178.5"/><line class="g" x1="657" y1="188.5" x2="671" y2="188.5"/><path class="i" d="M483.14,167.78s.27,14.81,8.67,10.59-4.69-12-4.69-12"/><g class="j"><path class="k" d="M334.6,291.78c64.67,14,114,24.72,211.89,25.72H547"/><path class="k" d="M281.09,306.4c100.8,20,154.23,37.17,296.52,30.4"/><path class="k" d="M243,325.5h-.71c128.89,23,185,46.27,355.1,29.38"/><path class="k" d="M213.71,345.76C362.46,370,422.87,398.85,610,370.8"/><path class="k" d="M193.8,368.32C354.54,392.73,422.2,426.26,618,387.07"/><path class="k" d="M181.85,392.21C346.18,416.12,428.79,450,622.91,402.34"/><path class="k" d="M177.8,417.23c162.62,23.45,257.24,57.22,446.56,1.95"/><path class="k" d="M182.27,443.48c156.22,23.12,257.89,56.32,439.24-5.31"/><path class="k" d="M614.83,457.54l-1.54.59c-168.43,65.13-271,35.83-415.7,13.24"/><path class="k" d="M230.82,502.2c122,19.85,222.9,37.55,362.85-18.51"/><path class="k" d="M326,540.5h.26c62.45,8,123.78,7,191.29-11H517"/></g><path class="i" d="M752.41,196.37C912.78,236.05,933,398.72,933,529.88"/><path class="i" d="M734.33,205.81c120,57.88,134.8,192.91,134.8,324.07"/><path class="i" d="M716.25,215.25c79.66,76.06,89,183.46,89,314.62"/><path class="i" d="M698.17,224.7c39.31,94.25,43.22,174,43.22,305.18"/></g></svg>