<svg xmlns="http://www.w3.org/2000/svg" viewBox="0 0 1200 630"><defs><style>.a{isolation:isolate;}.b{fill:#fff;}.c{fill:#e1e8f6;}.d{fill:#324681;}.e{fill:#f15a24;}.f{fill:#ffea83;}.g,.h,.i,.k{fill:none;}.g,.h,.i{stroke:#324681;}.g,.h,.k{stroke-linecap:round;stroke-linejoin:round;}.g{stroke-width:3px;}.h{stroke-width:2px;}.i{stroke-miterlimit:10;}.j{mix-blend-mode:multiply;}.k{stroke:#e1e8f6;stroke-width:5px;}</style></defs><title>result-2</title><g class="a"><path class="b" d="M574.75,458.56l.06,0,.78-2.82C575.3,456.74,575,457.68,574.75,458.56Z"/><path class="b" d="M575.59,455.77c4.48-15.06,11-39.71,11.87-43Z"/><polygon class="b" points="672.61 268.38 672.63 268.46 672.7 268.43 672.61 268.38"/><path class="b" d="M708,334.43c-.88-16.83-5.8-40.3-26.92-58.5L677,272.46c-1.43-1.28-3.05-2.53-4.33-3.77l0-.23h0c-14.13-13.73-18.94-24.36-20.58-30.14,0,0,0,7-2-5h0c8-5.8,13.83-12,15.32-22.78a47.49,47.49,0,0,0-15.19-41.33c-19.94-17.66-46.63-18.74-74.28-3.3s-23.49,43.94-20.35,46c3.46,2.23,6.13-3.55,6.78-5.14a.46.46,0,0,1,.07-.14.66.66,0,0,1,0-.11l0-.09a.31.31,0,0,1,0-.06,1.31,1.31,0,0,1,2-.67c3.64,1.72,4.62,8.1,7.39,7.06v0l1,3.24-10.54-9.25c-1,3.17.66,11.53,2.06,16.13a21.86,21.86,0,0,0,.73,2.12c1.55,3.71,8.24,13.83,8.24,13.83A15.51,15.51,0,0,1,575.4,245l.66,5.87a6.31,6.31,0,0,0,5.56,5.57l1.94.19a7.28,7.28,0,0,1,4.95,2.67c1.34,1.64,3.84,4.84,6.6,8.42.89,1.15,1.81,2.33,2.72,3.52,4.23,5.45,11.08,8.36,20.75-.91l.34-.32c1.66,1.34,2.86,2.35,2.86,2.35l3,9.17,1,3.13.11.35,0,.31-1.64,11.59-1.61,11.41c-1.45.86-2.32,1.36-2.4,1.4h0L600.55,369.4l-2.64,8-.09.27.14-.2,1.58,1.56-.68,2.21L555.24,334.9l-5-20.45-.53-2.18,3.86-5.29a15,15,0,0,0,16.12-11.64,15.27,15.27,0,1,0-29.13,1.75l-8.44,11,3.1,3-.11-.07h0l-3.1-3-2.28-2.24a4.05,4.05,0,0,0-5.32,6.09s.07,1.17.11,1.21l2.64,3.94h0l-2.11.18v-.54l-.63-4.48a4,4,0,0,0-5.74.67,3.85,3.85,0,0,0,.16,4.89c.1.13.22.14.34.26l1,1L519,320V320l-.31-2.26a4,4,0,0,0-6.41,4.05,4.09,4.09,0,0,0,1.2,2.12l3.46,3.17.06.27h0a4,4,0,0,0-4.8,6.4l-6.69,8.66a8.1,8.1,0,0,0,12.83,9.91l5.07-6.57a28.14,28.14,0,0,0,3.91,2.87c2.62,1.55,4.88,2.92,6.71,4v-.17L550.48,369h0c10.93,13,27.05,31.75,38.34,44.67L575,458.61c-.08,0-.15,0-.23-.07l-.07.72s0,.73,0,.73h0l0-.68,0,.39-.08.29h-.05l.08-.68,0-.33,0-.16,0-.07-.05-.08-.22.13,0,0L530,435.95c-23.91-13.19-56.42-9.65-74.32,9-.47.48-.92.94-1.37,1.45l3.93.39a199.21,199.21,0,0,0-46.33,13.5c-8.23,3.68-12.62,11.09-11.72,18.48l-33.44,10.42.18-2.53c0-.16,0-.32,0-.49,0-4.49-4.4-8.21-9.91-8.21a11.11,11.11,0,0,1-6.6-2.09l-35.85-26.59a9.11,9.11,0,0,0-5.33-1.69,9.73,9.73,0,0,0-1.42.11c-5,.73-7.88,5-6.06,8.92l32.59,69.84c2.12,4.52,8.26,6.77,13.72,5l14.36-4.59a12.65,12.65,0,0,0,6.39-4.4l48.24-12.24.11.19,1,1.74a15.57,15.57,0,0,0-1.53,4.17,13.85,13.85,0,0,0-.32,3c0,5.56,3.24,10.87,8.82,14.16a49.32,49.32,0,0,0,14.26,5.43,97.55,97.55,0,0,0,16,2.18c7.78.46,44.22,7.9,44.22,7.9a57.07,57.07,0,0,0,7.4,1h0c.44-2,.88-1.21,1.31-1.36l-1.33-.49.6-.35.73-.11.37,0c12.66.26,25.2-1.34,36.48-6.08L547,542h0c19.1,8,42.82,12.46,60.27,13.46s26.84-.11,26.84-.11c39.44,0,59.19-17.68,59.19-49.75l-.76-28.87c.07-.35.14-.74.21-1.08,7.41-6.52,12.45-15.32,12.76-24.57l2.34-99c0-1.07.09-2.34.15-3.77,0-.32,0-.66,0-1l.12-7.87C708.17,337.84,708.12,336.17,708,334.43ZM583.8,233.68l-.11-.07.15.09A.05.05,0,0,1,583.8,233.68Zm-2.87-45c.6-1.81,1.45-2.87,2.91-2.7Zm4,45.39-.18,0-.22-.05a2.57,2.57,0,0,0,.4.06Zm36.43,107.34c2.76-8.33,5.52-15.76,5.86-16.66C626.87,325.63,624.26,333.24,621.33,341.37Zm38.18-57.88v0h0S659.52,283.49,659.51,283.49Zm.62,2.74-.31-1.95.25,1.41.09.5Zm4.08,24.17-.38-2.22.42,2.18Z"/><path class="b" d="M893.06,342.09l-6.66,4.49-.61-2.22a44.45,44.45,0,0,1-1.22,5c-4.75,15.61-17.41,26.85-32.91,31.3L858.35,396a63,63,0,0,1,4.8,32.58l-4.78,40.7,2.49,4.28a4,4,0,0,1-4.13,6L839,476.84l-.2,3,12.43-.88c-10.3,36.89-35.4,62.35-64.37,65.26l-32.71,3.31a7.92,7.92,0,0,0-4.94,2.62,7.61,7.61,0,0,1-5.59,2.66,7.84,7.84,0,0,1-6.07-3.22l-11.25-14.08c-2.9-3.62-2.05-10.11,1.6-12.15a4.19,4.19,0,0,1,2.06-.55,3.83,3.83,0,0,1,1.24.2l-5.69-15.62a30.47,30.47,0,0,1,10.56-35l3.81-2.81-.26,1.61,1.76.88c-4.53-21.66-.63-38.9,15.51-64.52l4.83-7.66c.15-1.08.3-2.07.43-3l-2.22,3.13s-3.73-3.64-8.22-8.51-9.76-11-12.83-16a15.63,15.63,0,0,0-6.53-5.87l-1.51-.72a15.65,15.65,0,0,1-6.71-6.18l-9.08-15.49c0,.35-.06.69-.06,1V334.43c0,1.74.15,3.41.17,5a4.4,4.4,0,0,1,5.35.23l7.79,6.5A63.16,63.16,0,0,1,753,348.3l36.12,10.57-.24.34,1.11-.3c-8.2-11.79-11.19-26.45-6.92-40.49a46,46,0,0,1,21.86-26.7L804.1,284a5.71,5.71,0,0,1,4.37-6.18l1.05-.25a5.72,5.72,0,0,1,6.7,3.61l1.85,5.09-1.48.68a56.27,56.27,0,0,1,31.36.56c21.69,6.6,36.41,24.66,38.35,44.35l1.3-.48a5.52,5.52,0,0,1,6.84,2.7l.48.93A5.54,5.54,0,0,1,893.06,342.09Z"/><path class="c" d="M879.67,356.43l1,.3,6.87-4.15a5.53,5.53,0,0,0,2.21-7l-.43-1a5.52,5.52,0,0,0-6.7-3l-1.32.41Z"/><path class="b" d="M834,335.17a2.15,2.15,0,1,0-2.26,2A2.15,2.15,0,0,0,834,335.17Zm-12,13.25a6.74,6.74,0,0,0-3.31-8.57l-2.29-1.12a6.75,6.75,0,0,0-8.27,1.92l-10.28,13.16a6.74,6.74,0,0,0,1.64,9.8l6.14,4a6.74,6.74,0,0,0,10-3.14Zm-4.85-21.57a2.15,2.15,0,1,0-2.26,2A2.16,2.16,0,0,0,817.16,326.85Zm62.51,29.58c-.28,1-.6,2-.95,3-5.52,15.36-18.72,26-34.42,29.63a57,57,0,0,1-60.63-24.95c-7.51-12.15-9.72-26.86-4.78-40.59a45.94,45.94,0,0,1,23.41-25.71,51.55,51.55,0,0,1,13-4.35,56.26,56.26,0,0,1,29.92,2.41c21.34,7.67,35.14,26.44,36.1,46.2Z"/><path class="b" d="M738,505l-.66-.92c-4.07-12.16-6.9-22.43-8.1-31.87-2.66-20.59,2.41-37.21,19.08-61l4.59-6.54-1.18-.82s-3.54-3.82-7.79-8.91-9.2-11.48-12-16.61a15.63,15.63,0,0,0-6.23-6.19l-1.47-.8a15.64,15.64,0,0,1-6.4-6.51l-8.29-15.92c.2-2.27.41-4.91.51-7.85a4.39,4.39,0,0,1,5.33.5l7.46,6.88a63.1,63.1,0,0,1,24.56,3.37l35.54,12.35.75-.11A57,57,0,0,0,844.3,389l5.92,15.7a63,63,0,0,1,3.18,32.78l-6.8,40.42,2.27,4.4a4,4,0,0,1-4.42,5.82L839,487l0,.2c-12.12,36.33-38.45,60.51-67.53,62l-32.83,1.68a7.88,7.88,0,0,0-5.06,2.37,7.62,7.62,0,0,1-5.72,2.38,7.82,7.82,0,0,1-5.9-3.52l-10.55-14.62c-2.71-3.76-1.54-10.19,2.21-12.06a4.2,4.2,0,0,1,2.07-.45,3.85,3.85,0,0,1,1.24.27,3.51,3.51,0,0,1,.79.38l7.58,4.77,3.42-10.82A31,31,0,0,1,738,505Z"/><path class="d" d="M831.92,332.91a2.15,2.15,0,1,1-2.26,2A2.15,2.15,0,0,1,831.92,332.91Z"/><circle class="d" cx="815.01" cy="326.74" r="2.15" transform="translate(448.24 1124.54) rotate(-87.16)"/><path class="d" d="M810.3,349.86a1.76,1.76,0,0,1-.34-1.17l.14-2.72a1.44,1.44,0,0,1,2.16-1.36l2.38,1.4a1.63,1.63,0,0,1-.13,2.88l-2.42,1.34A1.4,1.4,0,0,1,810.3,349.86Z"/><path class="c" d="M815.08,292.3l.21,1.12a51.59,51.59,0,0,0-13,4.35l-.15-.31-.46-8a5.54,5.54,0,0,1,4.5-5.76l1-.19a5.52,5.52,0,0,1,6.29,3.81Z"/><path class="c" d="M737.35,504.08l.66.92a31,31,0,0,0-9.28,14.58l-3.42,10.82-7.58-4.77a3.51,3.51,0,0,0-.79-.38L712,509.36A30.47,30.47,0,0,1,724.31,475l3.95-2.62,1-.12C730.45,481.65,733.28,491.92,737.35,504.08Z"/><path class="e" d="M614.39,384.14l-.19.16a8.42,8.42,0,0,1-10.27-.92l-6-6,22.31-67.67h0c.52-.29,34-19.46,43.2-30.44l9.19-10.89q2.05,2,4.37,4.08l4.12,3.47c30.39,21.16,26.81,74.82,26.76,76.14l-2.4,99c-.32,9.35-5,18.22-13.07,24.76-8.26,6.7-19.26,10.32-30.51,10.32a51.83,51.83,0,0,1-12.09-1.42s-28.86-6.91-50.47-15.47c-7.52-3-15.63-6.74-24.64-10.5,4.76-15.52,12.86-46.35,12.86-46.35,1.26,1.45,2.48,2.83,3.62,4.14a31.4,31.4,0,0,0,43.45,3.61l7.28-5.83.12-.19a17.91,17.91,0,0,1-3.64-3.11l-23.57-26.36Z"/><path class="c" d="M644.42,173.37a47.63,47.63,0,0,1,15.33,41.33c-1.47,10.58-7,16.77-14.65,22.5-2.69,2-5.66,4-8.79,6l-.09.05a7.08,7.08,0,0,1-9.56-1.76c-8-10.8-10.62-17.66-3.1-20.75,8.66-3.56,7.29-13.83,3-16.68s-7.93-3.75-15.78,4.63-20.24-9.74-29.48-16.94-5.2,10-11.45,20.63-6.29-.27-11.22-2.61a1.32,1.32,0,0,0-2,.67.35.35,0,0,0,0,.06l0,.09a.45.45,0,0,0,0,.11s0,.09-.05.14c-.66,1.59-3.31,7.37-6.77,5.14-3.14-2-7.27-30.51,20.38-46S624.48,155.71,644.42,173.37Z"/><path class="d" d="M587.55,229.78a2.8,2.8,0,1,1-3.85-.94A2.81,2.81,0,0,1,587.55,229.78Z"/><path class="e" d="M553.3,307l-4.54,5.88h0l-5.26,6.81L532,308.1l8.49-11a15.24,15.24,0,0,0,10.76,9.55A12.69,12.69,0,0,0,553.3,307Z"/><path class="e" d="M523.41,345.77l-5.07,6.56a8.11,8.11,0,0,1-12.84-9.9l6.7-8.67.12.13A94.5,94.5,0,0,0,523.41,345.77Z"/><path class="f" d="M517.86,532.06a13.2,13.2,0,0,1,2.87,7.3c.5,7.38-5.52,13.57-13.53,15.26h0a21.4,21.4,0,0,1-7.39.24s-36.45-6.31-44.23-6.78a98.47,98.47,0,0,1-16-2.12,49.54,49.54,0,0,1-14.26-5.41c-5.58-3.29-8.81-8.59-8.81-14.15a14.14,14.14,0,0,1,.31-3,15.4,15.4,0,0,1,1.53-4.16c4.71-8.72,17.51-12.9,28.43-8.39l6.44,2.65a127.53,127.53,0,0,0,28.08,7.94l25,4.1a19.09,19.09,0,0,1,10.08,4.85A15.43,15.43,0,0,1,517.86,532.06Z"/><path class="f" d="M378.51,510a9,9,0,0,1-.18,6.81,12,12,0,0,1-7.56,6.43l-14.36,4.59c-5.46,1.75-11.6-.51-13.71-5L310.1,452.92c-1.82-3.89,1.1-8.19,6.05-8.92a9.29,9.29,0,0,1,6.76,1.58l35.84,26.59a11.13,11.13,0,0,0,6.6,2.09c5.51,0,9.91,3.72,9.91,8.21,0,.16,0,.32,0,.48l-.22,3-.16,2.22a46.69,46.69,0,0,0,2.88,19.75Z"/><path class="b" d="M707.88,352.06l-2.41,99c-.3,8.91-4.56,17.37-11.94,23.81.05-.62.08-1.26,1.57-1.79l2.41-112.52c-1.43-1.59,6.74-60.55-28.24-86.64l-.73-.7,4.08-4.84q2.05,2,4.38,4.09l4.11,3.47C711.5,297.09,707.92,350.75,707.88,352.06Z"/><path class="g" d="M517.76,525h0l10.85,6.31A139.09,139.09,0,0,0,547,540c19.09,7.55,42.8,13.47,60.26,14.47a264.82,264.82,0,0,0,26.83.5c39.44,0,59.15-17.49,59.15-49.55l-.85-29.6"/><path class="g" d="M562.43,206.38a.35.35,0,0,1,0-.06"/><path class="g" d="M562.35,206.58a1.12,1.12,0,0,1,0-.11"/><path class="g" d="M625.48,262.19a58.48,58.48,0,0,1-6.9,8.12c-9.67,9.27-16.53,6.36-20.75.9l-2.73-3.52-.52-.67c-2.55-3.31-4.83-6.21-6.08-7.75a5.76,5.76,0,0,0-.48-.54,7.35,7.35,0,0,0-4.47-2.13l-1.94-.19a6.3,6.3,0,0,1-5.56-5.57L575.4,245a15.41,15.41,0,0,0-2.07-6.18s-6.69-10.12-8.24-13.83c-.23-.54-.47-1.26-.73-2.11-1.4-4.6-3-13-2.06-16.14,0-.05,0-.1.05-.14a.45.45,0,0,1,0-.11l0-.09s0,0,0-.06a1.32,1.32,0,0,1,2-.67c4.92,2.34,5,13.24,11.22,2.61s2.21-27.84,11.45-20.63S608.75,213,616.6,204.56s11.45-7.47,15.78-4.63,5.69,13.12-3,16.68c-7.52,3.09-4.87,10,3.1,20.75a7.08,7.08,0,0,0,9.56,1.76l.09-.05c3.14-2.06,6.1-4,8.79-6,7.66-5.72,13.19-11.92,14.65-22.5a47.63,47.63,0,0,0-15.33-41.33c-19.94-17.66-46.69-18.75-74.35-3.3s-23.52,43.94-20.38,46c3.46,2.23,6.11-3.54,6.77-5.14"/><path class="g" d="M481.21,514.36a127.53,127.53,0,0,1-28.08-7.94l-6.44-2.65c-10.92-4.5-23.72-.32-28.43,8.39a15.4,15.4,0,0,0-1.53,4.16,14.14,14.14,0,0,0-.31,3c0,5.56,3.23,10.86,8.81,14.15a49.54,49.54,0,0,0,14.26,5.41,98.47,98.47,0,0,0,16,2.12c7.78.46,44.23,6.78,44.23,6.78a21.4,21.4,0,0,0,7.39-.24"/><path class="g" d="M507.12,547.53c8-1.68,14-7.88,13.53-15.26a13.2,13.2,0,0,0-2.87-7.3,15.43,15.43,0,0,0-1.5-1.66,19.09,19.09,0,0,0-10.08-4.85"/><path class="g" d="M507.1,547.53h0l1.68,0A89.75,89.75,0,0,0,547,540"/><path class="g" d="M574.69,458.74c4.76-15.52,12.86-46.35,12.86-46.35"/><path class="g" d="M574.67,458.72c-22.81-9.51-51.36-19-90.5-15.45a282,282,0,0,0-29.57,4.26C437.13,451,422.22,455.71,412,460.3c-7.76,3.47-12.11,10.21-11.83,17.15a16.09,16.09,0,0,0,1.82,6.83l15.29,26.14,1,1.75"/><path class="g" d="M651.17,233.33s-.53,13.71,21.45,35q2.05,2,4.37,4.08l4.12,3.47c23.29,20.08,26.88,46.59,27.07,63.5,0,2.94,0,5.59-.12,7.86-.06,1.85-.15,3.46-.19,4.77l-2.4,99c-.32,9.35-5,18.22-13.07,24.76-8.26,6.7-19.26,10.32-30.51,10.32a51.83,51.83,0,0,1-12.09-1.42s-28.86-6.91-50.47-15.47c-7.52-3,2.55,1.09-6.46-2.67"/><path class="g" d="M614.2,384.3a8.42,8.42,0,0,1-10.27-.92l-6-6L555.24,334.9l-6.48-22"/><path class="g" d="M538.53,355.44c1.08,1.16,30.63,35.87,49,56.95,1.26,1.45,2.48,2.83,3.62,4.14a31.4,31.4,0,0,0,43.45,3.61l7.28-5.83"/><path class="g" d="M543.51,319.68,532,308.1l-2.28-2.28a4,4,0,0,0-5.71.81,4,4,0,0,0,.39,5.23.62.62,0,0,0,.12.12l7.1,7.7"/><path class="g" d="M524.32,311.89a4,4,0,0,0-6.41,4,4.07,4.07,0,0,0,.87,1.77c.11.13.23.24.34.36l7.1,7.7"/><path class="g" d="M518.69,317.77a4,4,0,0,0-5.72.8,4,4,0,0,0,.52,5.35l3.66,3.39.41.39,3,3.92"/><path class="g" d="M517.52,327.75a4.36,4.36,0,0,0-.46-.31,4,4,0,0,0-5.26,1.12,4,4,0,0,0,.39,5.2l.12.13a94.5,94.5,0,0,0,11.1,11.88,27.82,27.82,0,0,0,3.9,2.87c5.79,3.42,9.84,6,11.23,6.8"/><line class="g" x1="540.46" y1="297.09" x2="531.97" y2="308.1"/><path class="g" d="M512.19,333.76l-6.7,8.67a8.11,8.11,0,0,0,12.84,9.9l5.07-6.56h0"/><polyline class="g" points="543.51 319.68 548.77 312.87 548.77 312.86 553.3 306.98"/><polyline class="g" points="517.14 327.33 517.06 327.44 517.05 327.45"/><path class="g" d="M590.43,258.61s7.76-3.8,11.26-3.34c1.54.22,2,6.68-5.66,11.36"/><path class="g" d="M540.46,297.09A15.29,15.29,0,1,1,553.3,307a12.69,12.69,0,0,1-2.08-.34A15.24,15.24,0,0,1,540.46,297.09Z"/><path class="h" d="M507,353.8l-12.74,19.86a74.56,74.56,0,0,1-11.09,13.49h0a74.56,74.56,0,0,1-90.85,9.68h0a141.54,141.54,0,0,1-65.7-100.16h0a183.69,183.69,0,0,0-88.27-131.81L175,127.41"/><path class="g" d="M881.32,342c-1-19.76-14.77-38.53-36.1-46.2a56.26,56.26,0,0,0-29.92-2.41,51.55,51.55,0,0,0-13,4.35,45.94,45.94,0,0,0-23.41,25.71c-4.94,13.73-2.72,28.44,4.78,40.59A57,57,0,0,0,844.3,389c15.7-3.68,28.9-14.27,34.42-29.63.35-1,2.07-6.74,2-10.2"/><path class="g" d="M802.16,297.46l-.46-8a5.54,5.54,0,0,1,4.5-5.76l1-.19a5.52,5.52,0,0,1,6.29,3.81l1.55,5"/><path class="g" d="M880.69,356.73l6.87-4.16a5.53,5.53,0,0,0,2.2-7l-.43-.95a5.53,5.53,0,0,0-6.7-3l-1.33.42-3.68,1.14"/><path class="g" d="M808.15,340.65l-10.28,13.16a6.74,6.74,0,0,0,1.64,9.8l6.14,4a6.74,6.74,0,0,0,10-3.14L822,348.41a6.74,6.74,0,0,0-3.31-8.57l-2.29-1.12A6.75,6.75,0,0,0,808.15,340.65Z"/><polyline class="g" points="810.75 349.1 810.3 349.86 807.2 355.2 802 356.1"/><line class="g" x1="810.18" y1="360.49" x2="807.2" y2="355.2"/><path class="g" d="M844.23,388.84l.07.18,5.92,15.7a63,63,0,0,1,3.18,32.78l-6.8,40.42,2.27,4.4a4,4,0,0,1-4.42,5.82L839,487l-13-2.68a7.09,7.09,0,0,1-5.52-8.25,15.86,15.86,0,0,0,.24-2,15.05,15.05,0,0,0-.78-5.58l-8.75-25.92a45.28,45.28,0,0,1-.67-26.83"/><path class="g" d="M769.65,360.13l-22.27-8.3a63.1,63.1,0,0,0-24.56-3.37l-7.46-6.88a4.39,4.39,0,0,0-5.33-.5,4.15,4.15,0,0,0-.87.7,4.38,4.38,0,0,0-1.22,2.82,4.45,4.45,0,0,0,.5,2.27l1.07,2.06,8.29,15.92a15.64,15.64,0,0,0,6.4,6.51l1.47.8a15.63,15.63,0,0,1,6.23,6.19c2.82,5.12,7.77,11.5,12,16.61s7.79,8.91,7.79,8.91"/><path class="g" d="M759,396l-6.12,8.72-4.59,6.54c-16.67,23.77-21.74,40.39-19.08,61,1.2,9.43,4,19.7,8.1,31.87"/><path class="g" d="M835.13,495.19c-12.12,36.33-34.58,52.53-63.66,54l-32.83,1.68a7.88,7.88,0,0,0-5.06,2.37,7.62,7.62,0,0,1-5.72,2.38,7.82,7.82,0,0,1-5.9-3.52l-10.55-14.62c-2.71-3.76-1.54-10.19,2.21-12.06a4.2,4.2,0,0,1,2.07-.45,3.85,3.85,0,0,1,1.24.27,3.51,3.51,0,0,1,.79.38l7.58,4.77,3.42-10.82A31,31,0,0,1,738,505a20.68,20.68,0,0,1,5.14-3.19l30.92-13.25"/><path class="g" d="M728.26,472.34,724.31,475A30.47,30.47,0,0,0,712,509.36l2.67,8.64"/><line class="g" x1="366.76" y1="489.62" x2="400.11" y2="477.45"/><polyline class="g" points="418.11 510.23 417.23 510.42 370.06 520.44"/><path class="g" d="M370.05,520.44a12,12,0,0,1-7.56,6.43l-14.36,4.59c-5.46,1.75-11.6-.51-13.71-5l-32.59-69.84c-1.82-3.89,1.1-8.19,6.05-8.92a9.29,9.29,0,0,1,6.76,1.58l35.84,26.59a11.13,11.13,0,0,0,6.6,2.09c5.51,0,9.91,3.72,9.91,8.21,0,.16,0,.32,0,.48l-.22,3-.16,2.22a46.69,46.69,0,0,0,2.88,19.75l.76,2A9,9,0,0,1,370.05,520.44Z"/><path class="g" d="M454.35,446.33c.45-.51.9-1,1.37-1.49,17.91-18.62,50-20.2,77.26-9.8l30.87,12.39"/><path class="g" d="M620.23,309.7c.19-.53,7.37-19.68,5.33-26.27-1.1-3.56-7-13.12-7-13.12"/><path class="i" d="M587.55,229.78a2.8,2.8,0,1,1-3.85-.94A2.81,2.81,0,0,1,587.55,229.78Z"/><path class="h" d="M594.73,238.15s8.18,13,13.35,4.72-10.57-8.08-10.57-8.08"/><path class="g" d="M682,306.52l2.25,9.85c7.5,32.78-2.67,63.29-21.26,91.32a16.19,16.19,0,0,1-13.52,7.2,16.94,16.94,0,0,1-9.13-2.68,17.91,17.91,0,0,1-3.64-3.11l-19.69-22.45-.42-.5a16.86,16.86,0,0,1-2.11-18.25c1.83-3.7,14.88-41.27,14.88-41.27"/><path class="g" d="M620.23,309.7h0l-22.31,67.67-.09.27"/><path class="g" d="M671.68,269.49l-16.05,17.16c-9.81,10.45-34.94,22.79-35.49,23.07"/><g class="j"><path class="k" d="M756.41,163.89l.27-.07C801,142.57,837.39,128,875.25,109.23"/><path class="k" d="M723,206.24c84-40.29,140-62.13,206.92-100.29"/><path class="k" d="M712.91,238.66c104.47-51.6,170.28-75.74,252.28-127.26"/><path class="k" d="M713.94,265.79C829,208,902.27,181.68,992.3,120.62"/><path class="k" d="M722.7,289.09C841.55,228.84,921,200,1014.07,132.75"/><path class="k" d="M738,309c117.38-59.59,201.18-91.34,293.48-161.35"/><path class="k" d="M759.71,325.73c111.36-56.29,196.82-90.74,285-159.91"/><path class="k" d="M788.79,339.22c100.78-50.5,183.29-87.49,264.2-150.74l.39-.1"/><path class="k" d="M826.64,347.08c84.24-42,158.2-76.87,227.18-131l-.11,0"/><path class="k" d="M882.53,347l-.1,0c56.32-28.34,108.55-56.24,157.28-91"/></g><path class="h" d="M175.24,247.05l179.65-19.89c14-1.55,28.41.5,39.92,5.67l2,.92c13.18,5.92,16.25,17.33,6.89,25.59h0c-22.33,19.7-57.33,32.41-95.93,34.82l-94.4,5.91c-21.52,1.35-33.93,15.83-23.71,27.67h0c5,5.73,14.4,9.43,24.87,9.72l10,.28a693.09,693.09,0,0,0,109.09-5.51l38.71-5.06c19.58-2.56,37.56,7.37,35.76,19.74h0c-1.12,7.7-9.85,14.15-21.87,16.16h0c-59,9.9-113.82,27.76-160.47,52.31l-63.44,33.38"/></g></svg>